<?xml version="1.0" encoding="utf-8" standalone="no"?>
<!DOCTYPE svg PUBLIC "-//W3C//DTD SVG 1.1//EN"
  "http://www.w3.org/Graphics/SVG/1.1/DTD/svg11.dtd">
<svg xmlns:xlink="http://www.w3.org/1999/xlink" width="568.8pt" height="174.395518pt" viewBox="0 0 568.8 174.395518" xmlns="http://www.w3.org/2000/svg" version="1.1">
 <metadata>
  <rdf:RDF xmlns:dc="http://purl.org/dc/elements/1.1/" xmlns:cc="http://creativecommons.org/ns#" xmlns:rdf="http://www.w3.org/1999/02/22-rdf-syntax-ns#">
   <cc:Work>
    <dc:type rdf:resource="http://purl.org/dc/dcmitype/StillImage"/>
    <dc:date>2025-07-04T20:50:30.766702</dc:date>
    <dc:format>image/svg+xml</dc:format>
    <dc:creator>
     <cc:Agent>
      <dc:title>Matplotlib v3.10.3, https://matplotlib.org/</dc:title>
     </cc:Agent>
    </dc:creator>
   </cc:Work>
  </rdf:RDF>
 </metadata>
 <defs>
  <style type="text/css">*{stroke-linejoin: round; stroke-linecap: butt}</style>
 </defs>
 <g id="figure_1">
  <g id="patch_1">
   <path d="M 0 174.395518 
L 568.8 174.395518 
L 568.8 0 
L 0 0 
z
" style="fill: #ffffff"/>
  </g>
  <g id="axes_1">
   <g id="patch_2">
    <path d="M 44.082734 125.624752 
L 270.362176 125.624752 
L 270.362176 18.935122 
L 44.082734 18.935122 
z
" style="fill: #ffffff"/>
   </g>
   <g id="matplotlib.axis_1">
    <g id="xtick_1">
     <g id="line2d_1">
      <defs>
       <path id="m459407f890" d="M 0 0 
L 0 3.5 
" style="stroke: #000000; stroke-width: 0.8"/>
      </defs>
      <g>
       <use xlink:href="#m459407f890" x="44.082734" y="130.624752" style="stroke: #000000; stroke-width: 0.8"/>
      </g>
     </g>
     <g id="text_1">
      <!-- $\mathdefault{0}$ -->
      <g transform="translate(40.421499 147.310644) scale(0.14 -0.14)">
       <defs>
        <path id="HFBR17-30" d="M 947 4087 
C 762 3959 634 3785 538 3586 
C 307 3136 282 2609 282 2037 
C 282 1317 410 656 768 276 
C 1107 -77 1645 -167 2099 19 
C 2381 129 2586 366 2714 623 
C 2944 1080 2970 1626 2970 2191 
C 2970 2371 2963 2551 2944 2731 
C 2899 3162 2752 3637 2515 3901 
C 2125 4332 1427 4428 947 4087 
z
M 2234 3721 
C 2534 3400 2560 2783 2560 2198 
L 2560 1851 
C 2560 1555 2509 1170 2445 951 
C 2355 649 2208 431 1914 296 
C 1555 167 1184 289 979 572 
C 704 938 691 1587 691 2159 
C 691 2699 698 3297 960 3650 
C 1248 4036 1869 4100 2234 3721 
z
" transform="scale(0.015625)"/>
       </defs>
       <use xlink:href="#HFBR17-30" transform="scale(0.996264)"/>
      </g>
     </g>
    </g>
    <g id="xtick_2">
     <g id="line2d_2">
      <g>
       <use xlink:href="#m459407f890" x="119.509215" y="130.624752" style="stroke: #000000; stroke-width: 0.8"/>
      </g>
     </g>
     <g id="text_2">
      <!-- $\mathdefault{5}$ -->
      <g transform="translate(115.84798 147.310644) scale(0.14 -0.14)">
       <defs>
        <path id="HFBR17-35" d="M 538 4245 
L 538 1949 
L 781 1949 
C 813 1949 858 1943 883 1956 
C 915 1975 934 2020 954 2046 
C 998 2103 1050 2148 1101 2193 
C 1331 2386 1773 2463 2067 2315 
C 2470 2123 2547 1614 2515 1216 
C 2496 964 2419 733 2272 585 
C 1933 224 1363 224 947 435 
C 742 538 570 699 442 891 
L 435 891 
C 416 859 269 634 269 595 
C 269 569 288 550 301 531 
C 493 306 742 132 1030 36 
C 1600 -144 2240 -3 2643 460 
C 3123 1019 3059 1930 2502 2417 
C 2336 2572 2106 2681 1830 2706 
C 1459 2758 1126 2578 928 2411 
L 928 3904 
L 2746 3904 
L 2746 4245 
L 538 4245 
z
" transform="scale(0.015625)"/>
       </defs>
       <use xlink:href="#HFBR17-35" transform="scale(0.996264)"/>
      </g>
     </g>
    </g>
    <g id="xtick_3">
     <g id="line2d_3">
      <g>
       <use xlink:href="#m459407f890" x="194.935696" y="130.624752" style="stroke: #000000; stroke-width: 0.8"/>
      </g>
     </g>
     <g id="text_3">
      <!-- $\mathdefault{10}$ -->
      <g transform="translate(187.613225 147.310644) scale(0.14 -0.14)">
       <defs>
        <path id="HFBR17-31" d="M 621 3841 
L 621 3520 
C 973 3520 1216 3584 1498 3706 
L 1498 321 
L 659 321 
L 659 0 
L 2752 0 
L 2752 321 
L 1914 321 
L 1914 4288 
C 1760 4288 1786 4247 1664 4152 
C 1402 3950 1037 3841 621 3841 
z
" transform="scale(0.015625)"/>
       </defs>
       <use xlink:href="#HFBR17-31" transform="scale(0.996264)"/>
       <use xlink:href="#HFBR17-30" transform="translate(50.643218 0) scale(0.996264)"/>
      </g>
     </g>
    </g>
    <g id="xtick_4">
     <g id="line2d_4">
      <g>
       <use xlink:href="#m459407f890" x="270.362176" y="130.624752" style="stroke: #000000; stroke-width: 0.8"/>
      </g>
     </g>
     <g id="text_4">
      <!-- $\mathdefault{15}$ -->
      <g transform="translate(263.039706 147.310644) scale(0.14 -0.14)">
       <use xlink:href="#HFBR17-31" transform="scale(0.996264)"/>
       <use xlink:href="#HFBR17-35" transform="translate(50.643218 0) scale(0.996264)"/>
      </g>
     </g>
    </g>
    <g id="text_5">
     <!-- $V_{in}$ (volts) -->
     <g transform="translate(127.286474 164.096027) scale(0.14 -0.14)">
      <defs>
       <path id="HFBRMI10-56" d="M 371 4416 
L 1235 -64 
C 1402 -64 1568 -64 1722 -64 
L 1786 19 
L 4499 4416 
C 4352 4416 4205 4416 4077 4403 
L 4013 4320 
L 2246 1447 
L 1830 761 
L 1606 376 
C 1581 473 1574 575 1555 678 
C 1472 1172 1056 3320 1056 3332 
L 864 4314 
C 864 4339 858 4384 838 4403 
C 819 4422 749 4416 717 4416 
L 371 4416 
z
" transform="scale(0.015625)"/>
       <path id="HFBRMI10-69" d="M 1370 4032 
L 1773 4032 
L 1856 4436 
C 1722 4436 1574 4436 1459 4416 
C 1414 4303 1395 4165 1370 4032 
z
M 1152 3010 
L 512 -32 
C 646 -32 794 -32 909 -13 
L 934 57 
L 1555 3010 
L 1152 3010 
z
" transform="scale(0.015625)"/>
       <path id="HFBRMI10-6e" d="M 1427 2398 
L 1421 2398 
L 1549 3027 
L 1158 3027 
L 518 0 
L 806 0 
C 864 0 941 -19 941 64 
C 954 109 960 154 973 199 
C 1056 572 1286 1742 1344 1935 
C 1466 2295 1734 2713 2163 2764 
C 2445 2764 2701 2693 2797 2502 
C 2893 2310 2816 2087 2778 1889 
L 2374 0 
L 2675 0 
C 2739 0 2797 -13 2797 71 
C 2835 199 2925 673 2925 673 
L 3213 2026 
C 3264 2270 3322 2565 3187 2796 
C 3072 2988 2854 3052 2643 3071 
C 2541 3084 2438 3084 2336 3065 
C 2054 3014 1792 2847 1606 2635 
C 1542 2565 1466 2488 1427 2398 
z
M 1414 2398 
C 1414 2398 1421 2398 1421 2398 
C 1421 2392 1414 2385 1414 2398 
z
" transform="scale(0.015625)"/>
       <path id="HFBR17-28" d="M 2189 -1408 
C 2138 -1350 2074 -1298 2016 -1247 
C 1965 -1202 1920 -1151 1875 -1099 
C 1235 -392 902 739 954 1941 
C 979 2596 1107 3264 1414 3856 
C 1555 4119 1798 4492 2016 4678 
C 2074 4730 2138 4781 2189 4839 
L 1978 4839 
C 1946 4839 1901 4845 1869 4833 
C 1792 4794 1600 4601 1574 4575 
C 960 3959 595 3027 544 1941 
C 512 1163 640 372 986 -322 
C 1139 -630 1344 -913 1587 -1157 
C 1651 -1221 1792 -1363 1869 -1401 
C 1901 -1414 1946 -1408 1978 -1408 
L 2189 -1408 
z
" transform="scale(0.015625)"/>
       <path id="HFBR17-76" d="M 45 3040 
C 77 2912 269 2405 282 2373 
C 346 2194 1107 39 1126 19 
C 1146 -13 1203 0 1235 0 
L 1459 0 
C 1542 0 1594 -19 1613 58 
C 1818 597 2566 2733 2675 3040 
L 2278 3040 
C 1971 2175 1658 1308 1370 423 
L 704 2317 
C 608 2547 550 2809 442 3021 
C 326 3040 179 3040 45 3040 
z
" transform="scale(0.015625)"/>
       <path id="HFBR17-6f" d="M 685 2693 
C 115 2127 51 1144 544 508 
C 614 411 698 328 794 257 
C 1030 64 1376 -77 1779 -32 
C 2419 45 2861 566 2995 1112 
C 3174 1877 2797 2731 2093 3001 
C 1542 3226 992 3001 685 2693 
z
M 2285 2519 
C 2592 2242 2650 1799 2624 1407 
C 2605 1105 2522 790 2310 565 
C 1965 192 1325 192 954 552 
C 762 758 646 1053 627 1407 
C 595 1927 723 2480 1235 2686 
C 1613 2853 2048 2731 2285 2519 
z
" transform="scale(0.015625)"/>
       <path id="HFBR17-6c" d="M 410 4460 
L 410 0 
L 813 0 
L 813 4460 
L 410 4460 
z
" transform="scale(0.015625)"/>
       <path id="HFBR17-74" d="M 691 3872 
L 691 3009 
L 70 3009 
L 70 2688 
L 685 2688 
L 685 961 
C 685 677 666 335 851 97 
C 960 -45 1107 -83 1331 -64 
C 1517 -64 1702 -25 1875 42 
C 1933 68 2144 161 2170 207 
C 2182 233 2099 518 2099 518 
L 1946 401 
C 1747 278 1350 149 1184 382 
C 1037 582 1075 880 1075 1112 
L 1075 2688 
L 2067 2688 
L 2067 3009 
L 1075 3009 
L 1075 3872 
L 691 3872 
z
" transform="scale(0.015625)"/>
       <path id="HFBR17-73" d="M 198 617 
C 186 527 166 444 154 354 
C 141 283 122 251 186 219 
C 448 65 762 -19 1133 -51 
C 1549 -90 2074 7 2278 418 
C 2336 534 2368 662 2374 791 
C 2400 1253 2035 1549 1722 1658 
C 1370 1793 890 1748 646 2018 
C 518 2166 512 2385 634 2539 
C 890 2899 1715 2744 2042 2584 
C 2093 2558 2138 2526 2195 2513 
L 2253 2860 
C 1952 2995 1690 3072 1274 3072 
C 915 3072 589 2989 384 2783 
C 179 2571 109 2217 230 1948 
C 346 1690 589 1523 851 1440 
C 1229 1305 1658 1369 1907 1061 
C 2048 881 2022 611 1862 450 
C 1555 167 902 270 544 424 
C 422 476 314 553 198 617 
z
" transform="scale(0.015625)"/>
       <path id="HFBR17-29" d="M 320 4839 
C 371 4781 435 4730 493 4678 
C 544 4633 589 4582 634 4530 
C 1190 3888 1510 3014 1555 1941 
C 1587 1144 1466 315 1101 -405 
C 979 -656 819 -894 634 -1099 
C 589 -1151 544 -1202 493 -1247 
C 435 -1298 371 -1350 320 -1408 
L 531 -1408 
C 563 -1408 608 -1414 640 -1401 
C 717 -1363 909 -1170 934 -1144 
C 1549 -527 1914 405 1965 1491 
C 1997 2268 1869 3059 1523 3753 
C 1370 4061 1165 4344 922 4588 
C 858 4653 717 4794 640 4833 
C 608 4845 563 4839 531 4839 
L 320 4839 
z
" transform="scale(0.015625)"/>
      </defs>
      <use xlink:href="#HFBRMI10-56" transform="scale(0.996264)"/>
      <use xlink:href="#HFBRMI10-69" transform="translate(49.812623 -14.943915) scale(0.697382)"/>
      <use xlink:href="#HFBRMI10-6e" transform="translate(72.506026 -14.943915) scale(0.697382)"/>
      <use xlink:href="#HFBR17-28" transform="translate(142.269559 0) scale(0.996264)"/>
      <use xlink:href="#HFBR17-76" transform="translate(181.289768 0) scale(0.996264)"/>
      <use xlink:href="#HFBR17-6f" transform="translate(223.630806 0) scale(0.996264)"/>
      <use xlink:href="#HFBR17-6c" transform="translate(274.274024 0) scale(0.996264)"/>
      <use xlink:href="#HFBR17-74" transform="translate(293.368983 0) scale(0.996264)"/>
      <use xlink:href="#HFBR17-73" transform="translate(329.48337 0) scale(0.996264)"/>
      <use xlink:href="#HFBR17-29" transform="translate(367.9224 0) scale(0.996264)"/>
     </g>
    </g>
   </g>
   <g id="matplotlib.axis_2">
    <g id="ytick_1">
     <g id="line2d_5">
      <defs>
       <path id="m1816112a3e" d="M 0 0 
L -3.5 0 
" style="stroke: #000000; stroke-width: 0.8"/>
      </defs>
      <g>
       <use xlink:href="#m1816112a3e" x="39.082734" y="125.624752" style="stroke: #000000; stroke-width: 0.8"/>
      </g>
     </g>
     <g id="text_6">
      <!-- $\mathdefault{0}$ -->
      <g transform="translate(24.760264 130.467698) scale(0.14 -0.14)">
       <use xlink:href="#HFBR17-30" transform="scale(0.996264)"/>
      </g>
     </g>
    </g>
    <g id="ytick_2">
     <g id="line2d_6">
      <g>
       <use xlink:href="#m1816112a3e" x="39.082734" y="90.061542" style="stroke: #000000; stroke-width: 0.8"/>
      </g>
     </g>
     <g id="text_7">
      <!-- $\mathdefault{2}$ -->
      <g transform="translate(24.760264 94.904488) scale(0.14 -0.14)">
       <defs>
        <path id="HFBR17-32" d="M 467 2942 
C 557 3302 710 3711 1075 3872 
C 1229 3936 1395 3949 1562 3936 
C 1875 3910 2182 3782 2374 3526 
C 2515 3333 2566 3096 2541 2866 
C 2464 2198 1811 1718 1389 1359 
C 1146 1154 454 500 454 500 
L 346 397 
C 288 340 282 340 282 224 
L 282 0 
L 2970 0 
L 2970 360 
L 653 360 
C 858 559 1709 1313 1824 1403 
C 2195 1706 2611 2008 2835 2446 
C 3085 2948 2976 3580 2554 3953 
C 2298 4179 1946 4288 1606 4288 
C 1293 4288 973 4224 723 4026 
C 531 3865 371 3628 282 3384 
C 262 3346 230 3282 237 3237 
C 243 3199 282 3167 301 3141 
C 352 3077 403 3000 467 2942 
z
" transform="scale(0.015625)"/>
       </defs>
       <use xlink:href="#HFBR17-32" transform="scale(0.996264)"/>
      </g>
     </g>
    </g>
    <g id="ytick_3">
     <g id="line2d_7">
      <g>
       <use xlink:href="#m1816112a3e" x="39.082734" y="54.498332" style="stroke: #000000; stroke-width: 0.8"/>
      </g>
     </g>
     <g id="text_8">
      <!-- $\mathdefault{4}$ -->
      <g transform="translate(24.760264 59.341278) scale(0.14 -0.14)">
       <defs>
        <path id="HFBR17-34" d="M 134 1152 
L 1984 1152 
L 1984 0 
L 2387 0 
L 2387 1152 
L 3117 1152 
L 3117 1493 
L 2387 1493 
L 2387 4254 
L 2042 4254 
C 1926 4254 1894 4261 1843 4164 
C 1587 3745 237 1649 192 1591 
C 141 1500 134 1507 134 1372 
L 134 1152 
z
M 2003 3896 
L 2003 1493 
L 550 1493 
C 595 1583 659 1666 717 1756 
C 1037 2251 1798 3427 1958 3794 
C 1978 3826 1984 3864 2003 3896 
z
" transform="scale(0.015625)"/>
       </defs>
       <use xlink:href="#HFBR17-34" transform="scale(0.996264)"/>
      </g>
     </g>
    </g>
    <g id="ytick_4">
     <g id="line2d_8">
      <g>
       <use xlink:href="#m1816112a3e" x="39.082734" y="18.935122" style="stroke: #000000; stroke-width: 0.8"/>
      </g>
     </g>
     <g id="text_9">
      <!-- $\mathdefault{6}$ -->
      <g transform="translate(24.760264 23.778068) scale(0.14 -0.14)">
       <defs>
        <path id="HFBR17-36" d="M 723 2088 
L 717 2088 
C 717 2673 819 3355 1318 3728 
C 1594 3928 1965 4030 2445 3915 
C 2547 3889 2643 3850 2739 3825 
L 2739 4050 
C 2739 4075 2746 4120 2726 4146 
C 2682 4204 2323 4262 2310 4262 
C 1754 4326 1389 4204 1050 3915 
C 640 3561 403 3041 326 2514 
C 256 2090 314 1408 397 1074 
C 531 579 787 142 1261 -25 
C 1542 -128 1888 -128 2157 1 
C 2374 105 2554 286 2694 480 
C 2918 790 2976 1166 2950 1547 
C 2938 1735 2912 1923 2835 2097 
C 2714 2376 2509 2667 2246 2796 
C 2125 2848 1997 2848 1869 2848 
C 1530 2848 1210 2700 973 2455 
C 870 2352 768 2222 723 2088 
z
M 1562 2529 
C 1805 2548 2061 2510 2246 2336 
C 2490 2105 2534 1777 2534 1460 
C 2534 1246 2541 1025 2477 823 
C 2438 719 2387 629 2330 544 
C 2189 356 2010 264 1715 225 
C 1427 225 1139 340 973 584 
C 870 725 819 899 787 1065 
C 749 1238 723 1417 736 1591 
C 768 2047 1088 2465 1562 2529 
z
" transform="scale(0.015625)"/>
       </defs>
       <use xlink:href="#HFBR17-36" transform="scale(0.996264)"/>
      </g>
     </g>
    </g>
    <g id="text_10">
     <!-- $V_{out}$ (volts) -->
     <g transform="translate(17.660772 105.982851) rotate(-90) scale(0.14 -0.14)">
      <defs>
       <path id="HFBRMI10-6f" d="M 1901 3020 
C 1197 2789 678 2109 563 1391 
C 499 968 595 494 928 205 
C 1120 32 1402 -64 1754 -64 
C 2618 19 3322 782 3437 1629 
C 3494 2071 3386 2552 3034 2847 
C 2765 3058 2368 3174 1901 3020 
z
M 2835 2572 
C 3053 2367 3085 2040 3046 1757 
C 2976 1161 2682 533 2080 327 
C 1824 250 1555 250 1331 366 
C 998 545 928 956 966 1302 
C 1018 1796 1210 2315 1645 2591 
C 1965 2803 2541 2867 2835 2572 
z
" transform="scale(0.015625)"/>
       <path id="HFBRMI10-75" d="M 1158 3008 
C 1126 2802 1075 2605 1030 2399 
C 986 2195 730 979 698 831 
C 659 634 608 358 704 192 
C 800 -13 1043 -64 1248 -64 
C 1613 -64 1971 70 2253 294 
C 2342 364 2419 448 2496 537 
L 2381 -19 
C 2515 -19 2662 -19 2778 0 
L 2803 70 
L 3424 3008 
L 3014 3008 
C 2989 2847 2650 1293 2630 1191 
C 2566 903 2509 743 2310 544 
C 2074 308 1760 211 1434 243 
C 1312 243 1158 262 1094 384 
C 1050 461 1062 564 1075 647 
C 1101 807 1139 967 1171 1128 
C 1197 1262 1562 2956 1568 3008 
L 1158 3008 
z
" transform="scale(0.015625)"/>
       <path id="HFBRMI10-74" d="M 762 3009 
L 698 2688 
L 1312 2688 
C 1261 2508 1235 2323 1197 2144 
L 934 908 
C 877 666 806 313 928 102 
C 1011 -32 1146 -64 1293 -64 
C 1530 -64 1766 -7 1984 77 
C 2042 96 2240 179 2272 218 
C 2285 236 2278 275 2278 300 
C 2278 377 2266 448 2266 525 
C 2214 499 2170 461 2118 428 
C 2054 390 1990 358 1920 332 
C 1811 294 1587 230 1453 275 
C 1293 326 1274 518 1280 666 
C 1293 813 1587 2182 1683 2598 
C 1702 2669 1696 2688 1786 2688 
L 2694 2688 
L 2758 3009 
L 1766 3009 
L 1952 3872 
C 1824 3872 1683 3872 1574 3852 
C 1478 3605 1472 3268 1376 3021 
L 1325 3009 
L 762 3009 
z
" transform="scale(0.015625)"/>
      </defs>
      <use xlink:href="#HFBRMI10-56" transform="scale(0.996264)"/>
      <use xlink:href="#HFBRMI10-6f" transform="translate(49.812623 -14.943915) scale(0.697382)"/>
      <use xlink:href="#HFBRMI10-75" transform="translate(91.324738 -14.943915) scale(0.697382)"/>
      <use xlink:href="#HFBRMI10-74" transform="translate(130.77198 -14.943915) scale(0.697382)"/>
      <use xlink:href="#HFBR17-28" transform="translate(194.550176 0) scale(0.996264)"/>
      <use xlink:href="#HFBR17-76" transform="translate(233.570385 0) scale(0.996264)"/>
      <use xlink:href="#HFBR17-6f" transform="translate(275.911423 0) scale(0.996264)"/>
      <use xlink:href="#HFBR17-6c" transform="translate(326.554641 0) scale(0.996264)"/>
      <use xlink:href="#HFBR17-74" transform="translate(345.6496 0) scale(0.996264)"/>
      <use xlink:href="#HFBR17-73" transform="translate(381.763987 0) scale(0.996264)"/>
      <use xlink:href="#HFBR17-29" transform="translate(420.203017 0) scale(0.996264)"/>
     </g>
    </g>
   </g>
   <g id="line2d_9">
    <path d="M 44.082734 34.938567 
L 270.362176 34.938567 
" clip-path="url(#p79e3c7a52e)" style="fill: none; stroke-dasharray: 3.7,1.6; stroke-dashoffset: 0; stroke: #4c4c4c"/>
   </g>
   <g id="line2d_10">
    <path d="M 44.082734 125.624752 
L 108.662887 49.673436 
L 112.796258 45.172609 
L 115.662464 42.364752 
L 118.121368 40.260423 
L 120.444503 38.56084 
L 122.812895 37.101877 
L 124.909751 36.048228 
L 125.920466 35.785611 
L 127.655275 35.611618 
L 131.924414 35.455922 
L 142.785827 35.310949 
L 175.29464 35.15376 
L 270.377262 34.983394 
L 270.377262 34.983394 
" clip-path="url(#p79e3c7a52e)" style="fill: none; stroke: #aa0000; stroke-linecap: square"/>
   </g>
   <g id="line2d_11">
    <path d="M 44.082734 125.624752 
L 175.867881 48.083654 
L 184.029026 43.555426 
L 189.625671 40.698971 
L 194.287028 38.569179 
L 198.616508 36.837073 
L 201.407288 35.918902 
L 202.900732 35.695725 
L 205.812194 35.529165 
L 212.97771 35.378359 
L 233.493712 35.223374 
L 270.377262 35.105803 
L 270.377262 35.105803 
" clip-path="url(#p79e3c7a52e)" style="fill: none; stroke: #0000dd; stroke-linecap: square"/>
   </g>
   <g id="patch_3">
    <path d="M 39.082734 125.624752 
L 39.082734 18.935122 
" style="fill: none; stroke: #000000; stroke-width: 0.8; stroke-linejoin: miter; stroke-linecap: square"/>
   </g>
   <g id="patch_4">
    <path d="M 44.082734 130.624752 
L 270.362176 130.624752 
" style="fill: none; stroke: #000000; stroke-width: 0.8; stroke-linejoin: miter; stroke-linecap: square"/>
   </g>
   <g id="text_11">
    <!-- $V_{Z} \,\, vs. \,\, V_{in}$ -->
    <g style="fill: #aa0000" transform="translate(123.989177 18.269603) scale(0.16 -0.16)">
     <defs>
      <path id="HFBRMI10-5a" d="M 1408 4429 
L 1344 4096 
L 4006 4096 
L 1357 1238 
C 1050 893 723 574 422 223 
C 403 153 384 77 371 0 
L 2957 0 
C 3219 0 3533 -39 3763 0 
C 3795 104 3814 223 3840 334 
L 1043 334 
L 3718 3221 
C 4013 3554 4333 3867 4621 4206 
C 4640 4276 4659 4352 4672 4429 
L 1408 4429 
z
" transform="scale(0.015625)"/>
      <path id="HFBRMI10-76" d="M 736 3040 
C 890 2016 1062 1017 1222 0 
C 1382 0 1549 0 1690 20 
L 1747 97 
L 3475 3040 
C 3341 3040 3206 3040 3085 3040 
L 3034 2976 
L 1549 435 
C 1434 1323 1280 2172 1146 3040 
L 736 3040 
z
" transform="scale(0.015625)"/>
      <path id="HFBRMI10-73" d="M 384 648 
L 237 276 
C 358 202 480 133 614 79 
C 992 -64 1523 -64 1914 83 
C 2214 197 2438 426 2554 725 
C 2643 953 2637 1201 2522 1379 
C 2349 1666 2054 1741 1670 1812 
C 1478 1849 1261 1882 1139 2054 
C 1005 2238 1107 2479 1261 2619 
C 1427 2765 1690 2816 1984 2816 
C 2150 2816 2317 2789 2477 2728 
C 2586 2680 2682 2621 2784 2566 
L 2918 2916 
C 2662 3032 2490 3104 2150 3104 
C 1728 3136 1286 3053 1011 2805 
C 710 2531 544 2008 858 1697 
C 1069 1461 1395 1429 1690 1366 
C 1901 1321 2138 1258 2214 1028 
C 2240 939 2227 843 2195 760 
C 2093 455 1786 302 1382 302 
C 1133 302 890 353 666 462 
C 563 513 474 584 384 648 
z
" transform="scale(0.015625)"/>
      <path id="HFBRMI10-3a" d="M 685 500 
L 685 0 
L 1184 0 
L 1184 500 
L 685 500 
z
" transform="scale(0.015625)"/>
     </defs>
     <use xlink:href="#HFBRMI10-56" transform="scale(0.996264)"/>
     <use xlink:href="#HFBRMI10-5a" transform="translate(49.812623 -14.943915) scale(0.697382)"/>
     <use xlink:href="#HFBRMI10-76" transform="translate(136.527618 0) scale(0.996264)"/>
     <use xlink:href="#HFBRMI10-73" transform="translate(193.642128 0) scale(0.996264)"/>
     <use xlink:href="#HFBRMI10-3a" transform="translate(241.997751 0) scale(0.996264)"/>
     <use xlink:href="#HFBRMI10-56" transform="translate(304.264009 0) scale(0.996264)"/>
     <use xlink:href="#HFBRMI10-69" transform="translate(354.076632 -14.943915) scale(0.697382)"/>
     <use xlink:href="#HFBRMI10-6e" transform="translate(376.770035 -14.943915) scale(0.697382)"/>
    </g>
   </g>
   <g id="legend_1">
    <g id="line2d_12">
     <path d="M 186.221586 92.239696 
L 198.221586 92.239696 
L 210.221586 92.239696 
" style="fill: none; stroke: #aa0000; stroke-linecap: square"/>
    </g>
    <g id="text_12">
     <!-- No load -->
     <g transform="translate(219.821586 96.439696) scale(0.12 -0.12)">
      <defs>
       <path id="HFBR17-4e" d="M 525 4454 
L 525 0 
L 922 0 
L 922 4100 
L 928 4100 
L 2547 1161 
C 2765 773 2976 380 3200 0 
C 3373 -39 3622 0 3821 0 
L 3821 4454 
L 3424 4454 
L 3424 354 
L 1811 3268 
C 1587 3661 1382 4074 1146 4454 
C 973 4493 723 4454 525 4454 
z
" transform="scale(0.015625)"/>
       <path id="HFBR17-61" d="M 506 2497 
C 614 2551 704 2630 813 2683 
C 986 2762 1165 2816 1357 2816 
C 1446 2822 1549 2835 1638 2816 
C 1798 2790 1939 2693 2035 2557 
C 2131 2401 2170 2265 2170 2014 
L 2170 1729 
C 1862 1729 1555 1703 1261 1625 
C 890 1541 486 1352 352 1014 
C 218 690 358 261 646 66 
C 787 -32 954 -32 1120 -19 
C 1389 0 1658 65 1888 208 
C 1997 272 2106 357 2170 467 
L 2176 467 
L 2176 13 
L 2579 13 
L 2579 1721 
C 2579 1908 2598 2109 2560 2297 
C 2522 2555 2362 2769 2176 2918 
C 1958 3086 1709 3143 1376 3118 
C 1069 3118 832 3040 602 2929 
C 570 2916 506 2895 486 2857 
C 467 2830 480 2785 480 2752 
C 493 2667 499 2582 506 2497 
z
M 2170 1536 
L 2170 1048 
C 2170 900 2176 765 2093 637 
C 2022 534 1926 463 1824 412 
C 1459 225 902 283 742 592 
C 614 816 749 1080 934 1228 
C 1210 1440 1747 1536 2170 1536 
z
" transform="scale(0.015625)"/>
       <path id="HFBR17-64" d="M 2278 4460 
L 2278 2648 
C 2157 2783 2035 2911 1869 2988 
C 1299 3226 749 2918 467 2410 
C 141 1806 179 1009 570 443 
C 845 51 1299 -141 1779 32 
C 1965 103 2189 289 2266 456 
L 2272 456 
L 2272 0 
L 2682 0 
L 2682 4460 
L 2278 4460 
z
M 2253 2397 
C 2285 2339 2272 2262 2272 2198 
L 2272 874 
C 2272 726 2266 713 2182 598 
C 2067 424 1888 302 1677 283 
C 1370 257 1056 405 877 656 
C 774 803 717 983 685 1163 
C 672 1234 672 1298 666 1369 
C 627 1793 717 2294 1088 2564 
C 1152 2609 1222 2641 1293 2673 
C 1664 2815 2074 2776 2253 2397 
z
" transform="scale(0.015625)"/>
      </defs>
      <use xlink:href="#HFBR17-4e" transform="scale(0.996264)"/>
      <use xlink:href="#HFBR17-6f" transform="translate(67.662753 0) scale(0.996264)"/>
      <use xlink:href="#HFBR17-6c" transform="translate(149.771183 0) scale(0.996264)"/>
      <use xlink:href="#HFBR17-6f" transform="translate(168.866142 0) scale(0.996264)"/>
      <use xlink:href="#HFBR17-61" transform="translate(219.509359 0) scale(0.996264)"/>
      <use xlink:href="#HFBR17-64" transform="translate(266.001442 0) scale(0.996264)"/>
     </g>
    </g>
    <g id="line2d_13">
     <path d="M 186.221586 108.632224 
L 198.221586 108.632224 
L 210.221586 108.632224 
" style="fill: none; stroke: #0000dd; stroke-linecap: square"/>
    </g>
    <g id="text_13">
     <!-- Load -->
     <g transform="translate(219.821586 112.832224) scale(0.12 -0.12)">
      <defs>
       <path id="HFBR17-4c" d="M 512 4448 
L 512 0 
L 3168 0 
L 3168 341 
L 960 341 
L 960 4448 
L 512 4448 
z
" transform="scale(0.015625)"/>
      </defs>
      <use xlink:href="#HFBR17-4c" transform="scale(0.996264)"/>
      <use xlink:href="#HFBR17-6f" transform="translate(52.926328 0) scale(0.996264)"/>
      <use xlink:href="#HFBR17-61" transform="translate(103.569546 0) scale(0.996264)"/>
      <use xlink:href="#HFBR17-64" transform="translate(150.061628 0) scale(0.996264)"/>
     </g>
    </g>
   </g>
  </g>
  <g id="axes_2">
   <g id="patch_5">
    <path d="M 325.367381 125.624752 
L 551.646823 125.624752 
L 551.646823 18.935122 
L 325.367381 18.935122 
z
" style="fill: #ffffff"/>
   </g>
   <g id="matplotlib.axis_3">
    <g id="xtick_5">
     <g id="line2d_14">
      <g>
       <use xlink:href="#m459407f890" x="325.367381" y="130.624752" style="stroke: #000000; stroke-width: 0.8"/>
      </g>
     </g>
     <g id="text_14">
      <!-- $\mathdefault{10^{2}}$ -->
      <g transform="translate(315.414204 147.310644) scale(0.14 -0.14)">
       <use xlink:href="#HFBR17-31" transform="scale(0.996264)"/>
       <use xlink:href="#HFBR17-30" transform="translate(50.643218 0) scale(0.996264)"/>
       <use xlink:href="#HFBR17-32" transform="translate(101.286436 36.153639) scale(0.697382)"/>
      </g>
     </g>
    </g>
    <g id="xtick_6">
     <g id="line2d_15">
      <g>
       <use xlink:href="#m459407f890" x="438.507102" y="130.624752" style="stroke: #000000; stroke-width: 0.8"/>
      </g>
     </g>
     <g id="text_15">
      <!-- $\mathdefault{10^{3}}$ -->
      <g transform="translate(428.553925 147.310644) scale(0.14 -0.14)">
       <defs>
        <path id="HFBR17-33" d="M 518 3246 
C 570 3323 608 3407 666 3484 
C 800 3664 986 3805 1197 3889 
C 1530 4024 2016 4024 2278 3726 
C 2509 3461 2413 3047 2202 2802 
C 2010 2576 1760 2466 1389 2466 
C 1280 2466 1178 2434 1069 2434 
L 1069 2112 
L 1510 2112 
C 1882 2112 2125 2055 2330 1836 
C 2682 1463 2650 801 2259 461 
C 2061 294 1786 242 1530 261 
C 1030 300 589 564 294 975 
C 262 911 262 821 250 750 
C 230 647 230 647 294 564 
C 480 313 845 82 1133 -2 
C 1645 -156 2240 -86 2637 306 
C 2714 384 2784 467 2842 557 
C 3078 930 3085 1418 2822 1778 
C 2714 1926 2573 2042 2413 2132 
C 2304 2196 2176 2260 2048 2273 
C 2419 2447 2765 2741 2829 3223 
C 2886 3672 2624 3948 2355 4108 
C 1939 4352 1395 4352 966 4139 
C 768 4043 589 3902 454 3728 
C 429 3696 333 3587 333 3535 
C 333 3503 358 3471 378 3445 
L 518 3246 
z
" transform="scale(0.015625)"/>
       </defs>
       <use xlink:href="#HFBR17-31" transform="scale(0.996264)"/>
       <use xlink:href="#HFBR17-30" transform="translate(50.643218 0) scale(0.996264)"/>
       <use xlink:href="#HFBR17-33" transform="translate(101.286436 36.153639) scale(0.697382)"/>
      </g>
     </g>
    </g>
    <g id="xtick_7">
     <g id="line2d_16">
      <g>
       <use xlink:href="#m459407f890" x="551.646823" y="130.624752" style="stroke: #000000; stroke-width: 0.8"/>
      </g>
     </g>
     <g id="text_16">
      <!-- $\mathdefault{10^{4}}$ -->
      <g transform="translate(541.693646 147.310644) scale(0.14 -0.14)">
       <use xlink:href="#HFBR17-31" transform="scale(0.996264)"/>
       <use xlink:href="#HFBR17-30" transform="translate(50.643218 0) scale(0.996264)"/>
       <use xlink:href="#HFBR17-34" transform="translate(101.286436 36.153639) scale(0.697382)"/>
      </g>
     </g>
    </g>
    <g id="xtick_8">
     <g id="line2d_17">
      <defs>
       <path id="m14aad0b645" d="M 0 0 
L 0 2 
" style="stroke: #000000; stroke-width: 0.6"/>
      </defs>
      <g>
       <use xlink:href="#m14aad0b645" x="359.425831" y="130.624752" style="stroke: #000000; stroke-width: 0.6"/>
      </g>
     </g>
    </g>
    <g id="xtick_9">
     <g id="line2d_18">
      <g>
       <use xlink:href="#m14aad0b645" x="379.348747" y="130.624752" style="stroke: #000000; stroke-width: 0.6"/>
      </g>
     </g>
    </g>
    <g id="xtick_10">
     <g id="line2d_19">
      <g>
       <use xlink:href="#m14aad0b645" x="393.48428" y="130.624752" style="stroke: #000000; stroke-width: 0.6"/>
      </g>
     </g>
    </g>
    <g id="xtick_11">
     <g id="line2d_20">
      <g>
       <use xlink:href="#m14aad0b645" x="404.448652" y="130.624752" style="stroke: #000000; stroke-width: 0.6"/>
      </g>
     </g>
    </g>
    <g id="xtick_12">
     <g id="line2d_21">
      <g>
       <use xlink:href="#m14aad0b645" x="413.407196" y="130.624752" style="stroke: #000000; stroke-width: 0.6"/>
      </g>
     </g>
    </g>
    <g id="xtick_13">
     <g id="line2d_22">
      <g>
       <use xlink:href="#m14aad0b645" x="420.981537" y="130.624752" style="stroke: #000000; stroke-width: 0.6"/>
      </g>
     </g>
    </g>
    <g id="xtick_14">
     <g id="line2d_23">
      <g>
       <use xlink:href="#m14aad0b645" x="427.54273" y="130.624752" style="stroke: #000000; stroke-width: 0.6"/>
      </g>
     </g>
    </g>
    <g id="xtick_15">
     <g id="line2d_24">
      <g>
       <use xlink:href="#m14aad0b645" x="433.330112" y="130.624752" style="stroke: #000000; stroke-width: 0.6"/>
      </g>
     </g>
    </g>
    <g id="xtick_16">
     <g id="line2d_25">
      <g>
       <use xlink:href="#m14aad0b645" x="472.565552" y="130.624752" style="stroke: #000000; stroke-width: 0.6"/>
      </g>
     </g>
    </g>
    <g id="xtick_17">
     <g id="line2d_26">
      <g>
       <use xlink:href="#m14aad0b645" x="492.488468" y="130.624752" style="stroke: #000000; stroke-width: 0.6"/>
      </g>
     </g>
    </g>
    <g id="xtick_18">
     <g id="line2d_27">
      <g>
       <use xlink:href="#m14aad0b645" x="506.624001" y="130.624752" style="stroke: #000000; stroke-width: 0.6"/>
      </g>
     </g>
    </g>
    <g id="xtick_19">
     <g id="line2d_28">
      <g>
       <use xlink:href="#m14aad0b645" x="517.588373" y="130.624752" style="stroke: #000000; stroke-width: 0.6"/>
      </g>
     </g>
    </g>
    <g id="xtick_20">
     <g id="line2d_29">
      <g>
       <use xlink:href="#m14aad0b645" x="526.546917" y="130.624752" style="stroke: #000000; stroke-width: 0.6"/>
      </g>
     </g>
    </g>
    <g id="xtick_21">
     <g id="line2d_30">
      <g>
       <use xlink:href="#m14aad0b645" x="534.121258" y="130.624752" style="stroke: #000000; stroke-width: 0.6"/>
      </g>
     </g>
    </g>
    <g id="xtick_22">
     <g id="line2d_31">
      <g>
       <use xlink:href="#m14aad0b645" x="540.682451" y="130.624752" style="stroke: #000000; stroke-width: 0.6"/>
      </g>
     </g>
    </g>
    <g id="xtick_23">
     <g id="line2d_32">
      <g>
       <use xlink:href="#m14aad0b645" x="546.469833" y="130.624752" style="stroke: #000000; stroke-width: 0.6"/>
      </g>
     </g>
    </g>
    <g id="text_17">
     <!-- $R_{L}$ ($\Omega$) -->
     <g transform="translate(416.70935 164.096027) scale(0.14 -0.14)">
      <defs>
       <path id="HFBRMI10-52" d="M 1568 4416 
L 627 -32 
C 774 -32 934 -32 1062 -13 
L 1082 32 
L 1504 2048 
L 2400 2048 
C 2509 2048 2630 2048 2714 2023 
C 2797 1875 2861 1715 2931 1553 
C 3181 1040 3392 488 3661 -13 
C 3795 -32 3949 -32 4102 -32 
L 3123 2093 
C 3264 2112 3398 2157 3533 2209 
C 3853 2324 4166 2519 4384 2789 
C 4595 3048 4691 3396 4570 3712 
C 4538 3784 4499 3854 4454 3919 
C 4186 4255 3776 4416 3245 4416 
C 3110 4416 2982 4416 2848 4416 
L 1568 4416 
z
M 1574 2375 
L 1939 4083 
L 2899 4083 
C 3206 4083 3533 4083 3814 3947 
C 4006 3851 4134 3722 4192 3477 
C 4262 3071 3949 2710 3610 2542 
C 3347 2419 3066 2375 2778 2375 
C 2662 2375 2554 2375 2438 2375 
L 1574 2375 
z
" transform="scale(0.015625)"/>
       <path id="HFBRMI10-4c" d="M 1568 4448 
L 627 0 
C 1523 0 2470 0 3328 0 
C 3373 100 3386 226 3411 346 
L 1146 346 
L 1306 1095 
C 1536 2214 1792 3322 2016 4448 
L 1568 4448 
z
" transform="scale(0.015625)"/>
       <path id="HFBR17-a" d="M 1465 358 
L 249 358 
L 249 0 
L 1829 0 
C 1829 787 1273 1421 972 2112 
C 799 2496 677 2957 850 3360 
C 882 3437 921 3514 972 3584 
C 1292 4032 1855 4198 2385 4198 
C 2673 4198 2916 4147 3133 4064 
C 3485 3923 3799 3661 3927 3290 
C 4061 2829 3908 2413 3741 2035 
C 3434 1376 2916 762 2916 0 
L 4497 0 
L 4497 358 
L 3281 358 
C 3325 627 3492 928 3607 1120 
L 3793 1421 
C 4119 1926 4509 2509 4413 3142 
C 4247 4243 2641 4883 1330 4307 
C 889 4109 479 3757 351 3238 
C 210 2643 537 2067 844 1587 
C 901 1504 953 1414 1010 1331 
C 1177 1050 1401 717 1465 358 
z
" transform="scale(0.015625)"/>
      </defs>
      <use xlink:href="#HFBRMI10-52" transform="scale(0.996264)"/>
      <use xlink:href="#HFBRMI10-4c" transform="translate(72.924653 -14.943915) scale(0.697382)"/>
      <use xlink:href="#HFBR17-28" transform="translate(148.473954 0) scale(0.996264)"/>
      <use xlink:href="#HFBR17-a" transform="translate(187.494163 0) scale(0.996264)"/>
      <use xlink:href="#HFBR17-29" transform="translate(261.383459 0) scale(0.996264)"/>
     </g>
    </g>
   </g>
   <g id="matplotlib.axis_4">
    <g id="ytick_5">
     <g id="line2d_33">
      <g>
       <use xlink:href="#m1816112a3e" x="320.367381" y="125.624752" style="stroke: #000000; stroke-width: 0.8"/>
      </g>
     </g>
     <g id="text_18">
      <!-- $\mathdefault{0}$ -->
      <g transform="translate(306.04491 130.467698) scale(0.14 -0.14)">
       <use xlink:href="#HFBR17-30" transform="scale(0.996264)"/>
      </g>
     </g>
    </g>
    <g id="ytick_6">
     <g id="line2d_34">
      <g>
       <use xlink:href="#m1816112a3e" x="320.367381" y="90.061542" style="stroke: #000000; stroke-width: 0.8"/>
      </g>
     </g>
     <g id="text_19">
      <!-- $\mathdefault{2}$ -->
      <g transform="translate(306.04491 94.904488) scale(0.14 -0.14)">
       <use xlink:href="#HFBR17-32" transform="scale(0.996264)"/>
      </g>
     </g>
    </g>
    <g id="ytick_7">
     <g id="line2d_35">
      <g>
       <use xlink:href="#m1816112a3e" x="320.367381" y="54.498332" style="stroke: #000000; stroke-width: 0.8"/>
      </g>
     </g>
     <g id="text_20">
      <!-- $\mathdefault{4}$ -->
      <g transform="translate(306.04491 59.341278) scale(0.14 -0.14)">
       <use xlink:href="#HFBR17-34" transform="scale(0.996264)"/>
      </g>
     </g>
    </g>
    <g id="ytick_8">
     <g id="line2d_36">
      <g>
       <use xlink:href="#m1816112a3e" x="320.367381" y="18.935122" style="stroke: #000000; stroke-width: 0.8"/>
      </g>
     </g>
     <g id="text_21">
      <!-- $\mathdefault{6}$ -->
      <g transform="translate(306.04491 23.778068) scale(0.14 -0.14)">
       <use xlink:href="#HFBR17-36" transform="scale(0.996264)"/>
      </g>
     </g>
    </g>
    <g id="text_22">
     <!-- $V_{Z}$ (volts) -->
     <g transform="translate(298.945419 101.697469) rotate(-90) scale(0.14 -0.14)">
      <use xlink:href="#HFBRMI10-56" transform="scale(0.996264)"/>
      <use xlink:href="#HFBRMI10-5a" transform="translate(49.812623 -14.943915) scale(0.697382)"/>
      <use xlink:href="#HFBR17-28" transform="translate(134.784019 0) scale(0.996264)"/>
      <use xlink:href="#HFBR17-76" transform="translate(173.804228 0) scale(0.996264)"/>
      <use xlink:href="#HFBR17-6f" transform="translate(216.145266 0) scale(0.996264)"/>
      <use xlink:href="#HFBR17-6c" transform="translate(266.788484 0) scale(0.996264)"/>
      <use xlink:href="#HFBR17-74" transform="translate(285.883442 0) scale(0.996264)"/>
      <use xlink:href="#HFBR17-73" transform="translate(321.99783 0) scale(0.996264)"/>
      <use xlink:href="#HFBR17-29" transform="translate(360.43686 0) scale(0.996264)"/>
     </g>
    </g>
   </g>
   <g id="line2d_37">
    <path d="M 325.367381 34.938567 
L 551.646823 34.938567 
" clip-path="url(#pb608a09f3d)" style="fill: none; stroke-dasharray: 3.7,1.6; stroke-dashoffset: 0; stroke: #cccccc"/>
   </g>
   <g id="line2d_38">
    <path d="M 325.367381 109.459657 
L 347.995325 101.29829 
L 370.623269 89.926402 
L 393.251213 74.992201 
L 415.879158 56.844882 
L 438.507102 38.294062 
L 461.135046 35.281805 
L 483.76299 35.190994 
L 506.390935 35.152675 
L 529.018879 35.132457 
L 551.646823 35.120881 
" clip-path="url(#pb608a09f3d)" style="fill: none; stroke: #aa0000; stroke-linecap: square"/>
   </g>
   <g id="patch_6">
    <path d="M 320.367381 125.624752 
L 320.367381 18.935122 
" style="fill: none; stroke: #000000; stroke-width: 0.8; stroke-linejoin: miter; stroke-linecap: square"/>
   </g>
   <g id="patch_7">
    <path d="M 325.367381 130.624752 
L 551.646823 130.624752 
" style="fill: none; stroke: #000000; stroke-width: 0.8; stroke-linejoin: miter; stroke-linecap: square"/>
   </g>
   <g id="text_23">
    <!-- $V_{Z} \,\, vs. \,\, R_{L}$ -->
    <g style="fill: #aa0000" transform="translate(404.635942 18.269603) scale(0.16 -0.16)">
     <use xlink:href="#HFBRMI10-56" transform="scale(0.996264)"/>
     <use xlink:href="#HFBRMI10-5a" transform="translate(49.812623 -14.943915) scale(0.697382)"/>
     <use xlink:href="#HFBRMI10-76" transform="translate(136.527618 0) scale(0.996264)"/>
     <use xlink:href="#HFBRMI10-73" transform="translate(193.642128 0) scale(0.996264)"/>
     <use xlink:href="#HFBRMI10-3a" transform="translate(241.997751 0) scale(0.996264)"/>
     <use xlink:href="#HFBRMI10-52" transform="translate(304.264009 0) scale(0.996264)"/>
     <use xlink:href="#HFBRMI10-4c" transform="translate(377.188661 -14.943915) scale(0.697382)"/>
    </g>
   </g>
  </g>
 </g>
 <defs>
  <clipPath id="p79e3c7a52e">
   <rect x="44.082734" y="18.935122" width="226.279442" height="106.68963"/>
  </clipPath>
  <clipPath id="pb608a09f3d">
   <rect x="325.367381" y="18.935122" width="226.279442" height="106.68963"/>
  </clipPath>
 </defs>
</svg>
