<?xml version="1.0" encoding="utf-8" standalone="no"?>
<!DOCTYPE svg PUBLIC "-//W3C//DTD SVG 1.1//EN"
  "http://www.w3.org/Graphics/SVG/1.1/DTD/svg11.dtd">
<svg xmlns:xlink="http://www.w3.org/1999/xlink" width="568.8pt" height="280.8pt" viewBox="0 0 568.8 280.8" xmlns="http://www.w3.org/2000/svg" version="1.1">
 <metadata>
  <rdf:RDF xmlns:dc="http://purl.org/dc/elements/1.1/" xmlns:cc="http://creativecommons.org/ns#" xmlns:rdf="http://www.w3.org/1999/02/22-rdf-syntax-ns#">
   <cc:Work>
    <dc:type rdf:resource="http://purl.org/dc/dcmitype/StillImage"/>
    <dc:date>2025-07-04T13:48:17.319619</dc:date>
    <dc:format>image/svg+xml</dc:format>
    <dc:creator>
     <cc:Agent>
      <dc:title>Matplotlib v3.10.3, https://matplotlib.org/</dc:title>
     </cc:Agent>
    </dc:creator>
   </cc:Work>
  </rdf:RDF>
 </metadata>
 <defs>
  <style type="text/css">*{stroke-linejoin: round; stroke-linecap: butt}</style>
 </defs>
 <g id="figure_1">
  <g id="patch_1">
   <path d="M 0 280.8 
L 568.8 280.8 
L 568.8 0 
L 0 0 
z
" style="fill: #ffffff"/>
  </g>
  <g id="axes_1">
   <g id="patch_2">
    <path d="M 32.370706 78.106239 
L 134.422423 78.106239 
L 134.422423 21.502195 
L 32.370706 21.502195 
z
" style="fill: #ffffff"/>
   </g>
   <g id="matplotlib.axis_1">
    <g id="xtick_1">
     <g id="line2d_1">
      <defs>
       <path id="m5e5fe2036f" d="M 0 0 
L 0 3.5 
" style="stroke: #000000; stroke-width: 0.8"/>
      </defs>
      <g>
       <use xlink:href="#m5e5fe2036f" x="61.528339" y="80.106239" style="stroke: #000000; stroke-width: 0.8"/>
      </g>
     </g>
     <g id="text_1">
      <!-- $\mathdefault{0}$ -->
      <g transform="translate(57.867104 96.792131) scale(0.14 -0.14)">
       <defs>
        <path id="HFBR17-30" d="M 947 4087 
C 762 3959 634 3785 538 3586 
C 307 3136 282 2609 282 2037 
C 282 1317 410 656 768 276 
C 1107 -77 1645 -167 2099 19 
C 2381 129 2586 366 2714 623 
C 2944 1080 2970 1626 2970 2191 
C 2970 2371 2963 2551 2944 2731 
C 2899 3162 2752 3637 2515 3901 
C 2125 4332 1427 4428 947 4087 
z
M 2234 3721 
C 2534 3400 2560 2783 2560 2198 
L 2560 1851 
C 2560 1555 2509 1170 2445 951 
C 2355 649 2208 431 1914 296 
C 1555 167 1184 289 979 572 
C 704 938 691 1587 691 2159 
C 691 2699 698 3297 960 3650 
C 1248 4036 1869 4100 2234 3721 
z
" transform="scale(0.015625)"/>
       </defs>
       <use xlink:href="#HFBR17-30" transform="scale(0.996264)"/>
      </g>
     </g>
    </g>
    <g id="xtick_2">
     <g id="line2d_2">
      <g>
       <use xlink:href="#m5e5fe2036f" x="134.422423" y="80.106239" style="stroke: #000000; stroke-width: 0.8"/>
      </g>
     </g>
     <g id="text_2">
      <!-- $\mathdefault{5}$ -->
      <g transform="translate(130.761188 96.792131) scale(0.14 -0.14)">
       <defs>
        <path id="HFBR17-35" d="M 538 4245 
L 538 1949 
L 781 1949 
C 813 1949 858 1943 883 1956 
C 915 1975 934 2020 954 2046 
C 998 2103 1050 2148 1101 2193 
C 1331 2386 1773 2463 2067 2315 
C 2470 2123 2547 1614 2515 1216 
C 2496 964 2419 733 2272 585 
C 1933 224 1363 224 947 435 
C 742 538 570 699 442 891 
L 435 891 
C 416 859 269 634 269 595 
C 269 569 288 550 301 531 
C 493 306 742 132 1030 36 
C 1600 -144 2240 -3 2643 460 
C 3123 1019 3059 1930 2502 2417 
C 2336 2572 2106 2681 1830 2706 
C 1459 2758 1126 2578 928 2411 
L 928 3904 
L 2746 3904 
L 2746 4245 
L 538 4245 
z
" transform="scale(0.015625)"/>
       </defs>
       <use xlink:href="#HFBR17-35" transform="scale(0.996264)"/>
      </g>
     </g>
    </g>
   </g>
   <g id="matplotlib.axis_2"/>
   <g id="line2d_3">
    <path d="M -1 75.533328 
L 61.528339 75.533328 
L 61.528339 24.075106 
" clip-path="url(#pa2b1d6527a)" style="fill: none; stroke: #aa0000; stroke-linecap: square"/>
   </g>
   <g id="line2d_4">
    <path d="M 61.528339 78.106239 
L 61.528339 21.502195 
" clip-path="url(#pa2b1d6527a)" style="fill: none; stroke-dasharray: 3.7,1.6; stroke-dashoffset: 0; stroke: #777777"/>
   </g>
   <g id="patch_3">
    <path d="M 32.370706 80.106239 
L 134.422423 80.106239 
" style="fill: none; stroke: #000000; stroke-width: 0.8; stroke-linejoin: miter; stroke-linecap: square"/>
   </g>
   <g id="text_3">
    <!-- Diode Model 1 -->
    <g style="fill: #aa0000" transform="translate(45.822813 15.502195) scale(0.12 -0.12)">
     <defs>
      <path id="HFBR17-44" d="M 512 4480 
L 512 0 
L 1805 0 
C 2010 0 2214 0 2413 19 
C 2925 71 3366 321 3661 629 
C 4486 1483 4480 2952 3667 3819 
C 3373 4133 2976 4384 2477 4448 
C 2234 4480 1984 4480 1741 4480 
L 512 4480 
z
M 954 340 
L 954 4132 
L 1779 4132 
C 1952 4132 2125 4132 2298 4119 
C 2586 4087 2867 3991 3104 3823 
C 3622 3464 3840 2827 3840 2217 
C 3840 1703 3699 1176 3322 809 
C 3066 572 2720 398 2304 353 
C 2138 340 1965 340 1798 340 
L 954 340 
z
" transform="scale(0.015625)"/>
      <path id="HFBR17-69" d="M 410 4480 
L 410 4075 
L 813 4075 
L 813 4480 
L 410 4480 
z
M 410 3033 
L 410 0 
L 813 0 
L 813 3033 
L 410 3033 
z
" transform="scale(0.015625)"/>
      <path id="HFBR17-6f" d="M 685 2693 
C 115 2127 51 1144 544 508 
C 614 411 698 328 794 257 
C 1030 64 1376 -77 1779 -32 
C 2419 45 2861 566 2995 1112 
C 3174 1877 2797 2731 2093 3001 
C 1542 3226 992 3001 685 2693 
z
M 2285 2519 
C 2592 2242 2650 1799 2624 1407 
C 2605 1105 2522 790 2310 565 
C 1965 192 1325 192 954 552 
C 762 758 646 1053 627 1407 
C 595 1927 723 2480 1235 2686 
C 1613 2853 2048 2731 2285 2519 
z
" transform="scale(0.015625)"/>
      <path id="HFBR17-64" d="M 2278 4460 
L 2278 2648 
C 2157 2783 2035 2911 1869 2988 
C 1299 3226 749 2918 467 2410 
C 141 1806 179 1009 570 443 
C 845 51 1299 -141 1779 32 
C 1965 103 2189 289 2266 456 
L 2272 456 
L 2272 0 
L 2682 0 
L 2682 4460 
L 2278 4460 
z
M 2253 2397 
C 2285 2339 2272 2262 2272 2198 
L 2272 874 
C 2272 726 2266 713 2182 598 
C 2067 424 1888 302 1677 283 
C 1370 257 1056 405 877 656 
C 774 803 717 983 685 1163 
C 672 1234 672 1298 666 1369 
C 627 1793 717 2294 1088 2564 
C 1152 2609 1222 2641 1293 2673 
C 1664 2815 2074 2776 2253 2397 
z
" transform="scale(0.015625)"/>
      <path id="HFBR17-65" d="M 2675 700 
C 2528 591 2483 533 2298 436 
C 1907 224 1446 224 1114 459 
C 794 689 608 1065 608 1600 
L 2720 1600 
C 2720 2075 2611 2487 2342 2776 
C 2048 3065 1587 3155 1197 3033 
C 1050 2988 915 2911 794 2814 
C 390 2487 218 1966 224 1458 
C 237 790 691 122 1363 -20 
C 1715 -91 2086 -13 2400 147 
C 2458 179 2669 295 2694 353 
C 2714 385 2675 700 2675 700 
z
M 2381 1850 
L 640 1850 
C 717 2319 1101 2814 1619 2756 
C 2042 2718 2266 2416 2349 2037 
C 2362 1972 2368 1915 2381 1850 
z
" transform="scale(0.015625)"/>
      <path id="HFBR17-4d" d="M 538 4454 
L 538 0 
L 934 0 
L 934 4049 
L 941 4049 
C 966 3940 1056 3721 1082 3650 
L 1363 2943 
C 1638 2269 2464 263 2502 161 
C 2522 90 2554 77 2637 77 
L 2810 77 
C 2835 77 2867 71 2899 77 
C 2931 84 2938 116 2950 141 
C 2970 199 2995 251 3021 308 
C 3315 1028 4480 3875 4525 4049 
L 4531 4049 
L 4531 0 
L 4928 0 
L 4928 4454 
C 4736 4454 4506 4486 4339 4454 
L 4294 4358 
C 3770 3071 3232 1801 2733 488 
C 2624 779 2509 1061 2394 1345 
C 1965 2374 1568 3437 1120 4454 
C 960 4493 723 4454 538 4454 
z
" transform="scale(0.015625)"/>
      <path id="HFBR17-6c" d="M 410 4460 
L 410 0 
L 813 0 
L 813 4460 
L 410 4460 
z
" transform="scale(0.015625)"/>
      <path id="HFBR17-31" d="M 621 3841 
L 621 3520 
C 973 3520 1216 3584 1498 3706 
L 1498 321 
L 659 321 
L 659 0 
L 2752 0 
L 2752 321 
L 1914 321 
L 1914 4288 
C 1760 4288 1786 4247 1664 4152 
C 1402 3950 1037 3841 621 3841 
z
" transform="scale(0.015625)"/>
     </defs>
     <use xlink:href="#HFBR17-44" transform="scale(0.996264)"/>
     <use xlink:href="#HFBR17-69" transform="translate(71.606187 0) scale(0.996264)"/>
     <use xlink:href="#HFBR17-6f" transform="translate(90.701146 0) scale(0.996264)"/>
     <use xlink:href="#HFBR17-64" transform="translate(141.344364 0) scale(0.996264)"/>
     <use xlink:href="#HFBR17-65" transform="translate(189.496861 0) scale(0.996264)"/>
     <use xlink:href="#HFBR17-4d" transform="translate(265.79374 0) scale(0.996264)"/>
     <use xlink:href="#HFBR17-6f" transform="translate(350.891037 0) scale(0.996264)"/>
     <use xlink:href="#HFBR17-64" transform="translate(401.534255 0) scale(0.996264)"/>
     <use xlink:href="#HFBR17-65" transform="translate(449.686752 0) scale(0.996264)"/>
     <use xlink:href="#HFBR17-6c" transform="translate(494.51842 0) scale(0.996264)"/>
     <use xlink:href="#HFBR17-31" transform="translate(545.07859 0) scale(0.996264)"/>
    </g>
   </g>
  </g>
  <g id="axes_2">
   <g id="patch_4">
    <path d="M 148.883658 78.106239 
L 250.935376 78.106239 
L 250.935376 21.502195 
L 148.883658 21.502195 
z
" style="fill: #ffffff"/>
   </g>
   <g id="matplotlib.axis_3">
    <g id="xtick_3">
     <g id="line2d_5">
      <g>
       <use xlink:href="#m5e5fe2036f" x="178.041292" y="80.106239" style="stroke: #000000; stroke-width: 0.8"/>
      </g>
     </g>
     <g id="text_4">
      <!-- $\mathdefault{0}$ -->
      <g transform="translate(174.380057 96.792131) scale(0.14 -0.14)">
       <use xlink:href="#HFBR17-30" transform="scale(0.996264)"/>
      </g>
     </g>
    </g>
    <g id="xtick_4">
     <g id="line2d_6">
      <g>
       <use xlink:href="#m5e5fe2036f" x="250.935376" y="80.106239" style="stroke: #000000; stroke-width: 0.8"/>
      </g>
     </g>
     <g id="text_5">
      <!-- $\mathdefault{5}$ -->
      <g transform="translate(247.27414 96.792131) scale(0.14 -0.14)">
       <use xlink:href="#HFBR17-35" transform="scale(0.996264)"/>
      </g>
     </g>
    </g>
   </g>
   <g id="matplotlib.axis_4"/>
   <g id="line2d_7">
    <path d="M 105.147208 75.533328 
L 188.246464 75.533328 
L 188.246464 24.075106 
" clip-path="url(#p6d11753d59)" style="fill: none; stroke: #aa0000; stroke-linecap: square"/>
   </g>
   <g id="line2d_8">
    <path d="M 178.041292 78.106239 
L 178.041292 21.502195 
" clip-path="url(#p6d11753d59)" style="fill: none; stroke-dasharray: 3.7,1.6; stroke-dashoffset: 0; stroke: #777777"/>
   </g>
   <g id="patch_5">
    <path d="M 148.883658 80.106239 
L 250.935376 80.106239 
" style="fill: none; stroke: #444444; stroke-width: 0.8; stroke-linejoin: miter; stroke-linecap: square"/>
   </g>
   <g id="text_6">
    <!-- Diode Model 2 -->
    <g style="fill: #aa0000" transform="translate(162.335765 15.502195) scale(0.12 -0.12)">
     <defs>
      <path id="HFBR17-32" d="M 467 2942 
C 557 3302 710 3711 1075 3872 
C 1229 3936 1395 3949 1562 3936 
C 1875 3910 2182 3782 2374 3526 
C 2515 3333 2566 3096 2541 2866 
C 2464 2198 1811 1718 1389 1359 
C 1146 1154 454 500 454 500 
L 346 397 
C 288 340 282 340 282 224 
L 282 0 
L 2970 0 
L 2970 360 
L 653 360 
C 858 559 1709 1313 1824 1403 
C 2195 1706 2611 2008 2835 2446 
C 3085 2948 2976 3580 2554 3953 
C 2298 4179 1946 4288 1606 4288 
C 1293 4288 973 4224 723 4026 
C 531 3865 371 3628 282 3384 
C 262 3346 230 3282 237 3237 
C 243 3199 282 3167 301 3141 
C 352 3077 403 3000 467 2942 
z
" transform="scale(0.015625)"/>
     </defs>
     <use xlink:href="#HFBR17-44" transform="scale(0.996264)"/>
     <use xlink:href="#HFBR17-69" transform="translate(71.606187 0) scale(0.996264)"/>
     <use xlink:href="#HFBR17-6f" transform="translate(90.701146 0) scale(0.996264)"/>
     <use xlink:href="#HFBR17-64" transform="translate(141.344364 0) scale(0.996264)"/>
     <use xlink:href="#HFBR17-65" transform="translate(189.496861 0) scale(0.996264)"/>
     <use xlink:href="#HFBR17-4d" transform="translate(265.79374 0) scale(0.996264)"/>
     <use xlink:href="#HFBR17-6f" transform="translate(350.891037 0) scale(0.996264)"/>
     <use xlink:href="#HFBR17-64" transform="translate(401.534255 0) scale(0.996264)"/>
     <use xlink:href="#HFBR17-65" transform="translate(449.686752 0) scale(0.996264)"/>
     <use xlink:href="#HFBR17-6c" transform="translate(494.51842 0) scale(0.996264)"/>
     <use xlink:href="#HFBR17-32" transform="translate(545.07859 0) scale(0.996264)"/>
    </g>
   </g>
  </g>
  <g id="axes_3">
   <g id="patch_6">
    <path d="M 265.396611 78.106239 
L 367.448328 78.106239 
L 367.448328 21.502195 
L 265.396611 21.502195 
z
" style="fill: #ffffff"/>
   </g>
   <g id="matplotlib.axis_5">
    <g id="xtick_5">
     <g id="line2d_9">
      <g>
       <use xlink:href="#m5e5fe2036f" x="294.554244" y="80.106239" style="stroke: #000000; stroke-width: 0.8"/>
      </g>
     </g>
     <g id="text_7">
      <!-- $\mathdefault{0}$ -->
      <g transform="translate(290.893009 96.792131) scale(0.14 -0.14)">
       <use xlink:href="#HFBR17-30" transform="scale(0.996264)"/>
      </g>
     </g>
    </g>
    <g id="xtick_6">
     <g id="line2d_10">
      <g>
       <use xlink:href="#m5e5fe2036f" x="367.448328" y="80.106239" style="stroke: #000000; stroke-width: 0.8"/>
      </g>
     </g>
     <g id="text_8">
      <!-- $\mathdefault{5}$ -->
      <g transform="translate(363.787093 96.792131) scale(0.14 -0.14)">
       <use xlink:href="#HFBR17-35" transform="scale(0.996264)"/>
      </g>
     </g>
    </g>
   </g>
   <g id="matplotlib.axis_6"/>
   <g id="line2d_11">
    <path d="M 221.660161 75.533328 
L 304.759416 75.533328 
L 367.448328 24.075106 
" clip-path="url(#pbd350bdf36)" style="fill: none; stroke: #aa0000; stroke-linecap: square"/>
   </g>
   <g id="line2d_12">
    <path d="M 294.554244 78.106239 
L 294.554244 21.502195 
" clip-path="url(#pbd350bdf36)" style="fill: none; stroke-dasharray: 3.7,1.6; stroke-dashoffset: 0; stroke: #777777"/>
   </g>
   <g id="patch_7">
    <path d="M 265.396611 80.106239 
L 367.448328 80.106239 
" style="fill: none; stroke: #444444; stroke-width: 0.8; stroke-linejoin: miter; stroke-linecap: square"/>
   </g>
   <g id="text_9">
    <!-- Diode Model 3 -->
    <g style="fill: #aa0000" transform="translate(278.848718 15.502195) scale(0.12 -0.12)">
     <defs>
      <path id="HFBR17-33" d="M 518 3246 
C 570 3323 608 3407 666 3484 
C 800 3664 986 3805 1197 3889 
C 1530 4024 2016 4024 2278 3726 
C 2509 3461 2413 3047 2202 2802 
C 2010 2576 1760 2466 1389 2466 
C 1280 2466 1178 2434 1069 2434 
L 1069 2112 
L 1510 2112 
C 1882 2112 2125 2055 2330 1836 
C 2682 1463 2650 801 2259 461 
C 2061 294 1786 242 1530 261 
C 1030 300 589 564 294 975 
C 262 911 262 821 250 750 
C 230 647 230 647 294 564 
C 480 313 845 82 1133 -2 
C 1645 -156 2240 -86 2637 306 
C 2714 384 2784 467 2842 557 
C 3078 930 3085 1418 2822 1778 
C 2714 1926 2573 2042 2413 2132 
C 2304 2196 2176 2260 2048 2273 
C 2419 2447 2765 2741 2829 3223 
C 2886 3672 2624 3948 2355 4108 
C 1939 4352 1395 4352 966 4139 
C 768 4043 589 3902 454 3728 
C 429 3696 333 3587 333 3535 
C 333 3503 358 3471 378 3445 
L 518 3246 
z
" transform="scale(0.015625)"/>
     </defs>
     <use xlink:href="#HFBR17-44" transform="scale(0.996264)"/>
     <use xlink:href="#HFBR17-69" transform="translate(71.606187 0) scale(0.996264)"/>
     <use xlink:href="#HFBR17-6f" transform="translate(90.701146 0) scale(0.996264)"/>
     <use xlink:href="#HFBR17-64" transform="translate(141.344364 0) scale(0.996264)"/>
     <use xlink:href="#HFBR17-65" transform="translate(189.496861 0) scale(0.996264)"/>
     <use xlink:href="#HFBR17-4d" transform="translate(265.79374 0) scale(0.996264)"/>
     <use xlink:href="#HFBR17-6f" transform="translate(350.891037 0) scale(0.996264)"/>
     <use xlink:href="#HFBR17-64" transform="translate(401.534255 0) scale(0.996264)"/>
     <use xlink:href="#HFBR17-65" transform="translate(449.686752 0) scale(0.996264)"/>
     <use xlink:href="#HFBR17-6c" transform="translate(494.51842 0) scale(0.996264)"/>
     <use xlink:href="#HFBR17-33" transform="translate(545.07859 0) scale(0.996264)"/>
    </g>
   </g>
  </g>
  <g id="axes_4">
   <g id="patch_8">
    <path d="M 381.909563 78.106239 
L 483.961281 78.106239 
L 483.961281 21.502195 
L 381.909563 21.502195 
z
" style="fill: #ffffff"/>
   </g>
   <g id="matplotlib.axis_7">
    <g id="xtick_7">
     <g id="line2d_13">
      <g>
       <use xlink:href="#m5e5fe2036f" x="411.067197" y="80.106239" style="stroke: #000000; stroke-width: 0.8"/>
      </g>
     </g>
     <g id="text_10">
      <!-- $\mathdefault{0}$ -->
      <g transform="translate(407.405962 96.792131) scale(0.14 -0.14)">
       <use xlink:href="#HFBR17-30" transform="scale(0.996264)"/>
      </g>
     </g>
    </g>
    <g id="xtick_8">
     <g id="line2d_14">
      <g>
       <use xlink:href="#m5e5fe2036f" x="483.961281" y="80.106239" style="stroke: #000000; stroke-width: 0.8"/>
      </g>
     </g>
     <g id="text_11">
      <!-- $\mathdefault{5}$ -->
      <g transform="translate(480.300046 96.792131) scale(0.14 -0.14)">
       <use xlink:href="#HFBR17-35" transform="scale(0.996264)"/>
      </g>
     </g>
    </g>
   </g>
   <g id="matplotlib.axis_8"/>
   <g id="line2d_15">
    <path d="M 338.173113 76.996356 
L 423.167615 76.886567 
L 423.750768 76.688341 
L 424.188132 76.328653 
L 424.479708 75.877972 
L 424.771285 75.123095 
L 425.062861 73.858696 
L 425.354437 71.740865 
L 425.646014 68.193557 
L 425.93759 62.251917 
L 426.229166 52.299839 
L 426.520743 35.630389 
L 426.874608 -1 
L 426.874608 -1 
" clip-path="url(#pffc7d6b7b3)" style="fill: none; stroke: #aa0000; stroke-linecap: square"/>
   </g>
   <g id="line2d_16">
    <path d="M 411.067197 78.106239 
L 411.067197 21.502195 
" clip-path="url(#pffc7d6b7b3)" style="fill: none; stroke-dasharray: 3.7,1.6; stroke-dashoffset: 0; stroke: #777777"/>
   </g>
   <g id="patch_9">
    <path d="M 381.909563 80.106239 
L 483.961281 80.106239 
" style="fill: none; stroke: #444444; stroke-width: 0.8; stroke-linejoin: miter; stroke-linecap: square"/>
   </g>
   <g id="text_12">
    <!-- Diode Model 4 -->
    <g style="fill: #aa0000" transform="translate(395.361671 15.502195) scale(0.12 -0.12)">
     <defs>
      <path id="HFBR17-34" d="M 134 1152 
L 1984 1152 
L 1984 0 
L 2387 0 
L 2387 1152 
L 3117 1152 
L 3117 1493 
L 2387 1493 
L 2387 4254 
L 2042 4254 
C 1926 4254 1894 4261 1843 4164 
C 1587 3745 237 1649 192 1591 
C 141 1500 134 1507 134 1372 
L 134 1152 
z
M 2003 3896 
L 2003 1493 
L 550 1493 
C 595 1583 659 1666 717 1756 
C 1037 2251 1798 3427 1958 3794 
C 1978 3826 1984 3864 2003 3896 
z
" transform="scale(0.015625)"/>
     </defs>
     <use xlink:href="#HFBR17-44" transform="scale(0.996264)"/>
     <use xlink:href="#HFBR17-69" transform="translate(71.606187 0) scale(0.996264)"/>
     <use xlink:href="#HFBR17-6f" transform="translate(90.701146 0) scale(0.996264)"/>
     <use xlink:href="#HFBR17-64" transform="translate(141.344364 0) scale(0.996264)"/>
     <use xlink:href="#HFBR17-65" transform="translate(189.496861 0) scale(0.996264)"/>
     <use xlink:href="#HFBR17-4d" transform="translate(265.79374 0) scale(0.996264)"/>
     <use xlink:href="#HFBR17-6f" transform="translate(350.891037 0) scale(0.996264)"/>
     <use xlink:href="#HFBR17-64" transform="translate(401.534255 0) scale(0.996264)"/>
     <use xlink:href="#HFBR17-65" transform="translate(449.686752 0) scale(0.996264)"/>
     <use xlink:href="#HFBR17-6c" transform="translate(494.51842 0) scale(0.996264)"/>
     <use xlink:href="#HFBR17-34" transform="translate(545.07859 0) scale(0.996264)"/>
    </g>
   </g>
  </g>
  <g id="axes_5">
   <g id="patch_10">
    <path d="M 32.370706 242.102543 
L 483.961281 242.102543 
L 483.961281 128.894455 
L 32.370706 128.894455 
z
" style="fill: #ffffff"/>
   </g>
   <g id="matplotlib.axis_9">
    <g id="xtick_9">
     <g id="line2d_17">
      <g>
       <use xlink:href="#m5e5fe2036f" x="32.370706" y="247.102543" style="stroke: #000000; stroke-width: 0.8"/>
      </g>
     </g>
    </g>
    <g id="xtick_10">
     <g id="line2d_18">
      <g>
       <use xlink:href="#m5e5fe2036f" x="88.819528" y="247.102543" style="stroke: #000000; stroke-width: 0.8"/>
      </g>
     </g>
    </g>
    <g id="xtick_11">
     <g id="line2d_19">
      <g>
       <use xlink:href="#m5e5fe2036f" x="145.268349" y="247.102543" style="stroke: #000000; stroke-width: 0.8"/>
      </g>
     </g>
    </g>
    <g id="xtick_12">
     <g id="line2d_20">
      <g>
       <use xlink:href="#m5e5fe2036f" x="201.717171" y="247.102543" style="stroke: #000000; stroke-width: 0.8"/>
      </g>
     </g>
    </g>
    <g id="xtick_13">
     <g id="line2d_21">
      <g>
       <use xlink:href="#m5e5fe2036f" x="258.165993" y="247.102543" style="stroke: #000000; stroke-width: 0.8"/>
      </g>
     </g>
    </g>
    <g id="xtick_14">
     <g id="line2d_22">
      <g>
       <use xlink:href="#m5e5fe2036f" x="314.614815" y="247.102543" style="stroke: #000000; stroke-width: 0.8"/>
      </g>
     </g>
    </g>
    <g id="xtick_15">
     <g id="line2d_23">
      <g>
       <use xlink:href="#m5e5fe2036f" x="371.063637" y="247.102543" style="stroke: #000000; stroke-width: 0.8"/>
      </g>
     </g>
    </g>
    <g id="xtick_16">
     <g id="line2d_24">
      <g>
       <use xlink:href="#m5e5fe2036f" x="427.512459" y="247.102543" style="stroke: #000000; stroke-width: 0.8"/>
      </g>
     </g>
    </g>
    <g id="xtick_17">
     <g id="line2d_25">
      <g>
       <use xlink:href="#m5e5fe2036f" x="483.961281" y="247.102543" style="stroke: #000000; stroke-width: 0.8"/>
      </g>
     </g>
    </g>
    <g id="text_13">
     <!-- Time (sec) -->
     <g transform="translate(220.627092 270.057711) scale(0.16 -0.16)">
      <defs>
       <path id="HFBR17-54" d="M 192 4437 
L 192 4096 
L 2016 4096 
L 2016 0 
L 2464 0 
L 2464 4096 
L 4288 4096 
L 4288 4437 
L 192 4437 
z
" transform="scale(0.015625)"/>
       <path id="HFBR17-6d" d="M 806 2391 
L 800 2391 
L 800 3033 
L 410 3033 
L 410 0 
L 819 0 
L 819 1411 
C 819 1725 800 2040 941 2328 
C 1062 2578 1274 2777 1651 2738 
C 1843 2738 2035 2687 2157 2525 
C 2272 2377 2278 2185 2278 2004 
L 2278 0 
L 2688 0 
L 2688 1411 
C 2688 1725 2669 2040 2810 2328 
C 2931 2578 3142 2777 3520 2738 
C 3712 2738 3904 2687 4026 2525 
C 4141 2377 4147 2185 4147 2004 
L 4147 0 
L 4557 0 
L 4557 1700 
C 4557 2008 4595 2354 4461 2636 
C 4326 2899 4109 3040 3757 3040 
C 3552 3059 3347 3028 3162 2934 
C 2938 2811 2771 2608 2669 2385 
C 2624 2597 2573 2741 2432 2880 
C 2285 3012 2086 3072 1894 3072 
C 1427 3110 1133 2916 934 2624 
C 883 2552 832 2475 806 2391 
z
" transform="scale(0.015625)"/>
       <path id="HFBR17-28" d="M 2189 -1408 
C 2138 -1350 2074 -1298 2016 -1247 
C 1965 -1202 1920 -1151 1875 -1099 
C 1235 -392 902 739 954 1941 
C 979 2596 1107 3264 1414 3856 
C 1555 4119 1798 4492 2016 4678 
C 2074 4730 2138 4781 2189 4839 
L 1978 4839 
C 1946 4839 1901 4845 1869 4833 
C 1792 4794 1600 4601 1574 4575 
C 960 3959 595 3027 544 1941 
C 512 1163 640 372 986 -322 
C 1139 -630 1344 -913 1587 -1157 
C 1651 -1221 1792 -1363 1869 -1401 
C 1901 -1414 1946 -1408 1978 -1408 
L 2189 -1408 
z
" transform="scale(0.015625)"/>
       <path id="HFBR17-73" d="M 198 617 
C 186 527 166 444 154 354 
C 141 283 122 251 186 219 
C 448 65 762 -19 1133 -51 
C 1549 -90 2074 7 2278 418 
C 2336 534 2368 662 2374 791 
C 2400 1253 2035 1549 1722 1658 
C 1370 1793 890 1748 646 2018 
C 518 2166 512 2385 634 2539 
C 890 2899 1715 2744 2042 2584 
C 2093 2558 2138 2526 2195 2513 
L 2253 2860 
C 1952 2995 1690 3072 1274 3072 
C 915 3072 589 2989 384 2783 
C 179 2571 109 2217 230 1948 
C 346 1690 589 1523 851 1440 
C 1229 1305 1658 1369 1907 1061 
C 2048 881 2022 611 1862 450 
C 1555 167 902 270 544 424 
C 422 476 314 553 198 617 
z
" transform="scale(0.015625)"/>
       <path id="HFBR17-63" d="M 2714 720 
C 2592 630 2483 533 2349 456 
C 2048 296 1587 219 1242 379 
C 742 636 608 1260 678 1774 
C 691 1877 710 1979 742 2076 
C 883 2494 1235 2821 1811 2757 
C 2118 2731 2272 2680 2515 2545 
C 2560 2519 2598 2487 2650 2474 
C 2656 2551 2675 2635 2688 2712 
C 2707 2815 2707 2828 2611 2873 
C 2541 2905 2470 2943 2394 2969 
C 2099 3098 1613 3136 1280 3040 
C 826 2911 486 2519 339 2082 
C 269 1883 250 1671 250 1459 
C 256 784 717 122 1389 -13 
C 1760 -90 2189 19 2445 154 
C 2509 186 2701 302 2733 360 
C 2752 392 2714 720 2714 720 
z
" transform="scale(0.015625)"/>
       <path id="HFBR17-29" d="M 320 4839 
C 371 4781 435 4730 493 4678 
C 544 4633 589 4582 634 4530 
C 1190 3888 1510 3014 1555 1941 
C 1587 1144 1466 315 1101 -405 
C 979 -656 819 -894 634 -1099 
C 589 -1151 544 -1202 493 -1247 
C 435 -1298 371 -1350 320 -1408 
L 531 -1408 
C 563 -1408 608 -1414 640 -1401 
C 717 -1363 909 -1170 934 -1144 
C 1549 -527 1914 405 1965 1491 
C 1997 2268 1869 3059 1523 3753 
C 1370 4061 1165 4344 922 4588 
C 858 4653 717 4794 640 4833 
C 608 4845 563 4839 531 4839 
L 320 4839 
z
" transform="scale(0.015625)"/>
      </defs>
      <use xlink:href="#HFBR17-54" transform="scale(0.996264)"/>
      <use xlink:href="#HFBR17-69" transform="translate(69.738177 0) scale(0.996264)"/>
      <use xlink:href="#HFBR17-6d" transform="translate(88.833136 0) scale(0.996264)"/>
      <use xlink:href="#HFBR17-65" transform="translate(166.043262 0) scale(0.996264)"/>
      <use xlink:href="#HFBR17-28" transform="translate(242.340141 0) scale(0.996264)"/>
      <use xlink:href="#HFBR17-73" transform="translate(281.36035 0) scale(0.996264)"/>
      <use xlink:href="#HFBR17-65" transform="translate(319.799379 0) scale(0.996264)"/>
      <use xlink:href="#HFBR17-63" transform="translate(364.631047 0) scale(0.996264)"/>
      <use xlink:href="#HFBR17-29" transform="translate(409.462714 0) scale(0.996264)"/>
     </g>
    </g>
   </g>
   <g id="matplotlib.axis_10">
    <g id="ytick_1">
     <g id="line2d_26">
      <defs>
       <path id="m2b71ccaa18" d="M 0 0 
L -3.5 0 
" style="stroke: #000000; stroke-width: 0.8"/>
      </defs>
      <g>
       <use xlink:href="#m2b71ccaa18" x="32.370706" y="236.956721" style="stroke: #000000; stroke-width: 0.8"/>
      </g>
     </g>
     <g id="text_14">
      <!-- $\mathdefault{−2}$ -->
      <g transform="translate(7.2 241.799667) scale(0.14 -0.14)">
       <defs>
        <path id="HFBRSY10-0" d="M 627 1797 
C 512 1759 499 1586 627 1554 
C 659 1541 698 1548 736 1548 
L 4141 1548 
C 4218 1548 4339 1522 4403 1586 
C 4474 1656 4435 1784 4333 1804 
C 4256 1816 4166 1804 4090 1804 
L 730 1804 
C 698 1804 659 1810 627 1797 
z
" transform="scale(0.015625)"/>
       </defs>
       <use xlink:href="#HFBRSY10-0" transform="scale(0.996264)"/>
       <use xlink:href="#HFBR17-32" transform="translate(77.487468 0) scale(0.996264)"/>
      </g>
     </g>
    </g>
    <g id="ytick_2">
     <g id="line2d_27">
      <g>
       <use xlink:href="#m2b71ccaa18" x="32.370706" y="185.498499" style="stroke: #000000; stroke-width: 0.8"/>
      </g>
     </g>
     <g id="text_15">
      <!-- $\mathdefault{0}$ -->
      <g transform="translate(18.048235 190.341445) scale(0.14 -0.14)">
       <use xlink:href="#HFBR17-30" transform="scale(0.996264)"/>
      </g>
     </g>
    </g>
    <g id="ytick_3">
     <g id="line2d_28">
      <g>
       <use xlink:href="#m2b71ccaa18" x="32.370706" y="134.040277" style="stroke: #000000; stroke-width: 0.8"/>
      </g>
     </g>
     <g id="text_16">
      <!-- $\mathdefault{2}$ -->
      <g transform="translate(18.048235 138.883223) scale(0.14 -0.14)">
       <use xlink:href="#HFBR17-32" transform="scale(0.996264)"/>
      </g>
     </g>
    </g>
   </g>
   <g id="line2d_29">
    <path d="M 32.370706 185.498499 
L 42.531494 171.142113 
L 47.950581 163.881634 
L 52.466486 158.199337 
L 56.305006 153.704542 
L 59.917731 149.804333 
L 63.30466 146.474543 
L 66.465794 143.678702 
L 69.401133 141.371702 
L 72.110676 139.503008 
L 74.82022 137.895671 
L 77.529763 136.558822 
L 80.013511 135.577509 
L 82.49726 134.834569 
L 84.981008 134.333548 
L 87.464756 134.076839 
L 89.722709 134.056528 
L 91.980662 134.239234 
L 94.46441 134.673813 
L 96.948158 135.351079 
L 99.431906 136.267798 
L 101.915654 137.419593 
L 104.625198 138.937708 
L 107.334741 140.72039 
L 110.27008 142.938403 
L 113.205419 145.440213 
L 116.366553 148.432677 
L 119.753482 151.956294 
L 123.366207 156.042159 
L 127.430522 160.992128 
L 131.946427 166.856453 
L 137.365514 174.273236 
L 145.71994 186.145125 
L 155.429137 199.854885 
L 160.848224 207.115363 
L 165.36413 212.797661 
L 169.20265 217.292456 
L 172.815375 221.192665 
L 176.202304 224.522455 
L 179.363438 227.318296 
L 182.298777 229.625296 
L 185.00832 231.493989 
L 187.717864 233.101327 
L 190.427407 234.438176 
L 192.911155 235.419489 
L 195.394903 236.162429 
L 197.878651 236.66345 
L 200.3624 236.920158 
L 202.620353 236.94047 
L 204.878305 236.757763 
L 207.362054 236.323185 
L 209.845802 235.645919 
L 212.32955 234.7292 
L 214.813298 233.577405 
L 217.522841 232.05929 
L 220.232385 230.276608 
L 223.167724 228.058595 
L 226.103062 225.556785 
L 229.264196 222.56432 
L 232.651126 219.040703 
L 236.26385 214.954838 
L 240.328166 210.00487 
L 244.844071 204.140545 
L 250.263158 196.723762 
L 258.617584 184.851873 
L 268.326781 171.142113 
L 273.745868 163.881634 
L 278.261774 158.199337 
L 282.100294 153.704542 
L 285.713018 149.804333 
L 289.099948 146.474543 
L 292.261082 143.678702 
L 295.19642 141.371702 
L 297.905964 139.503008 
L 300.615507 137.895671 
L 303.325051 136.558822 
L 305.808799 135.577509 
L 308.292547 134.834569 
L 310.776295 134.333548 
L 313.260043 134.076839 
L 315.517996 134.056528 
L 317.775949 134.239234 
L 320.259697 134.673813 
L 322.743445 135.351079 
L 325.227194 136.267798 
L 327.710942 137.419593 
L 330.420485 138.937708 
L 333.130029 140.72039 
L 336.065367 142.938403 
L 339.000706 145.440213 
L 342.16184 148.432677 
L 345.54877 151.956294 
L 349.161494 156.042159 
L 353.225809 160.992128 
L 357.741715 166.856453 
L 363.160802 174.273236 
L 371.515228 186.145125 
L 381.224425 199.854885 
L 386.643512 207.115363 
L 391.159418 212.797661 
L 394.997938 217.292456 
L 398.610662 221.192665 
L 401.997591 224.522455 
L 405.158725 227.318296 
L 408.094064 229.625296 
L 410.803608 231.493989 
L 413.513151 233.101327 
L 416.222695 234.438176 
L 418.706443 235.419489 
L 421.190191 236.162429 
L 423.673939 236.66345 
L 426.157687 236.920158 
L 428.41564 236.94047 
L 430.673593 236.757763 
L 433.157341 236.323185 
L 435.641089 235.645919 
L 438.124837 234.7292 
L 440.608586 233.577405 
L 443.318129 232.05929 
L 446.027673 230.276608 
L 448.963011 228.058595 
L 451.89835 225.556785 
L 455.059484 222.56432 
L 458.446413 219.040703 
L 462.059138 214.954838 
L 466.123453 210.00487 
L 470.639359 204.140545 
L 476.058446 196.723762 
L 484.187076 185.175179 
L 484.187076 185.175179 
" clip-path="url(#p3f2fdff069)" style="fill: none; stroke: #888888; stroke-linecap: square"/>
   </g>
   <g id="line2d_30">
    <path d="M 32.370706 185.498499 
L 42.531494 171.142113 
L 47.950581 163.881634 
L 52.466486 158.199337 
L 56.305006 153.704542 
L 59.917731 149.804333 
L 63.30466 146.474543 
L 66.465794 143.678702 
L 69.401133 141.371702 
L 72.110676 139.503008 
L 74.82022 137.895671 
L 77.529763 136.558822 
L 80.013511 135.577509 
L 82.49726 134.834569 
L 84.981008 134.333548 
L 87.464756 134.076839 
L 89.722709 134.056528 
L 91.980662 134.239234 
L 94.46441 134.673813 
L 96.948158 135.351079 
L 99.431906 136.267798 
L 101.915654 137.419593 
L 104.625198 138.937708 
L 107.334741 140.72039 
L 110.27008 142.938403 
L 113.205419 145.440213 
L 116.366553 148.432677 
L 119.753482 151.956294 
L 123.366207 156.042159 
L 127.430522 160.992128 
L 131.946427 166.856453 
L 137.365514 174.273236 
L 145.494145 185.498499 
L 258.165993 185.498499 
L 268.326781 171.142113 
L 273.745868 163.881634 
L 278.261774 158.199337 
L 282.100294 153.704542 
L 285.713018 149.804333 
L 289.099948 146.474543 
L 292.261082 143.678702 
L 295.19642 141.371702 
L 297.905964 139.503008 
L 300.615507 137.895671 
L 303.325051 136.558822 
L 305.808799 135.577509 
L 308.292547 134.834569 
L 310.776295 134.333548 
L 313.260043 134.076839 
L 315.517996 134.056528 
L 317.775949 134.239234 
L 320.259697 134.673813 
L 322.743445 135.351079 
L 325.227194 136.267798 
L 327.710942 137.419593 
L 330.420485 138.937708 
L 333.130029 140.72039 
L 336.065367 142.938403 
L 339.000706 145.440213 
L 342.16184 148.432677 
L 345.54877 151.956294 
L 349.161494 156.042159 
L 353.225809 160.992128 
L 357.741715 166.856453 
L 363.160802 174.273236 
L 371.289432 185.498499 
L 483.961281 185.498499 
L 484.187076 185.175179 
L 484.187076 185.175179 
" clip-path="url(#p3f2fdff069)" style="fill: none; stroke: #aa0000; stroke-linecap: square"/>
   </g>
   <g id="line2d_31">
    <path d="M 32.370706 185.498499 
L 45.241037 185.471004 
L 50.208533 179.002505 
L 54.498644 173.788012 
L 58.337164 169.478944 
L 61.724093 165.997447 
L 64.885227 163.047872 
L 67.820566 160.588683 
L 70.755905 158.415693 
L 73.465448 156.676441 
L 76.174991 155.203301 
L 78.65874 154.093871 
L 81.142488 153.220397 
L 83.626236 152.587049 
L 86.109984 152.196853 
L 88.593732 152.05167 
L 90.851685 152.132908 
L 93.335433 152.456418 
L 95.819181 153.023703 
L 98.30293 153.832054 
L 100.786678 154.877611 
L 103.270426 156.155382 
L 105.979969 157.806954 
L 108.689513 159.718214 
L 111.624852 162.069165 
L 114.785986 164.909495 
L 117.94712 168.048305 
L 121.334049 171.714919 
L 125.172569 176.209714 
L 129.462679 181.599031 
L 132.398018 185.471004 
L 133.526995 185.498499 
L 271.036325 185.471004 
L 276.003821 179.002505 
L 280.293931 173.788012 
L 284.132451 169.478944 
L 287.519381 165.997447 
L 290.680515 163.047872 
L 293.615853 160.588683 
L 296.551192 158.415693 
L 299.260736 156.676441 
L 301.970279 155.203301 
L 304.454027 154.093871 
L 306.937775 153.220397 
L 309.421524 152.587049 
L 311.905272 152.196853 
L 314.38902 152.05167 
L 316.646973 152.132908 
L 319.130721 152.456418 
L 321.614469 153.023703 
L 324.098217 153.832054 
L 326.581965 154.877611 
L 329.065714 156.155382 
L 331.775257 157.806954 
L 334.4848 159.718214 
L 337.420139 162.069165 
L 340.581273 164.909495 
L 343.742407 168.048305 
L 347.129337 171.714919 
L 350.967856 176.209714 
L 355.257967 181.599031 
L 358.193306 185.471004 
L 359.322282 185.498499 
L 484.187076 185.498499 
L 484.187076 185.498499 
" clip-path="url(#p3f2fdff069)" style="fill: none; stroke: #0000aa; stroke-linecap: square"/>
   </g>
   <g id="line2d_32">
    <path d="M 32.370706 185.498499 
L 45.241037 185.473503 
L 50.208533 179.59305 
L 54.498644 174.852602 
L 58.337164 170.935267 
L 61.949888 167.569736 
L 65.336818 164.728538 
L 68.497952 162.373739 
L 71.43329 160.46027 
L 74.368629 158.822938 
L 77.078173 157.56612 
L 79.787716 156.561054 
L 82.271464 155.865804 
L 84.755212 155.390232 
L 87.238961 155.136607 
L 89.722709 155.106141 
L 92.206457 155.29898 
L 94.690205 155.714202 
L 97.173953 156.349825 
L 99.657701 157.202813 
L 102.367245 158.376438 
L 105.076788 159.79721 
L 108.012127 161.605884 
L 110.947466 163.683055 
L 114.1086 166.204355 
L 117.495529 169.21125 
L 121.108254 172.737431 
L 124.946774 176.805484 
L 129.236884 181.687969 
L 132.398018 185.473503 
L 133.526995 185.498499 
L 271.036325 185.473503 
L 276.003821 179.59305 
L 280.293931 174.852602 
L 284.132451 170.935267 
L 287.745176 167.569736 
L 291.132105 164.728538 
L 294.293239 162.373739 
L 297.228578 160.46027 
L 300.163917 158.822938 
L 302.87346 157.56612 
L 305.583004 156.561054 
L 308.066752 155.865804 
L 310.5505 155.390232 
L 313.034248 155.136607 
L 315.517996 155.106141 
L 318.001744 155.29898 
L 320.485493 155.714202 
L 322.969241 156.349825 
L 325.452989 157.202813 
L 328.162532 158.376438 
L 330.872076 159.79721 
L 333.807415 161.605884 
L 336.742753 163.683055 
L 339.903887 166.204355 
L 343.290817 169.21125 
L 346.903541 172.737431 
L 350.742061 176.805484 
L 355.032172 181.687969 
L 358.193306 185.473503 
L 359.322282 185.498499 
L 484.187076 185.498499 
L 484.187076 185.498499 
" clip-path="url(#p3f2fdff069)" style="fill: none; stroke: #00aa00; stroke-linecap: square"/>
   </g>
   <g id="line2d_33">
    <path d="M 32.370706 185.498499 
L 44.789446 185.407546 
L 45.918423 185.171616 
L 46.821604 184.772006 
L 47.950581 184.010085 
L 49.531148 182.631721 
L 52.240691 179.92042 
L 59.917731 172.123306 
L 63.530455 168.804653 
L 66.917385 166.000231 
L 69.852723 163.842266 
L 72.788062 161.959201 
L 75.497606 160.479509 
L 78.207149 159.259047 
L 80.690897 158.375373 
L 83.174645 157.72186 
L 85.658394 157.30224 
L 88.142142 157.11889 
L 90.62589 157.172844 
L 93.109638 157.463798 
L 95.593386 157.990109 
L 98.077134 158.748785 
L 100.560883 159.735473 
L 103.270426 161.065108 
L 105.979969 162.649782 
L 108.915308 164.64075 
L 111.850647 166.899206 
L 115.011781 169.604783 
L 118.624506 172.99853 
L 123.140411 177.574352 
L 128.559498 183.050383 
L 130.140065 184.344616 
L 131.269042 184.997631 
L 132.172223 185.2961 
L 133.526995 185.460205 
L 136.913924 185.498126 
L 270.133143 185.447141 
L 271.487915 185.23968 
L 272.391096 184.89118 
L 273.520073 184.1817 
L 275.10064 182.842974 
L 277.584388 180.385898 
L 286.390404 171.478021 
L 290.003129 168.218468 
L 293.164263 165.651117 
L 296.099602 163.534212 
L 299.03494 161.695011 
L 301.744484 160.25784 
L 304.454027 159.081471 
L 306.937775 158.239305 
L 309.421524 157.62808 
L 311.905272 157.251281 
L 314.38902 157.11104 
L 316.872768 157.208147 
L 319.356516 157.542054 
L 321.840264 158.110876 
L 324.324013 158.911373 
L 326.807761 159.938941 
L 329.517304 161.311795 
L 332.226848 162.937906 
L 335.162186 164.9713 
L 338.32332 167.456117 
L 341.71025 170.425279 
L 345.54877 174.114457 
L 350.967856 179.686751 
L 354.354786 183.050383 
L 355.935353 184.344616 
L 357.064329 184.997631 
L 357.96751 185.2961 
L 359.322282 185.460205 
L 362.709211 185.498126 
L 484.187076 185.498499 
L 484.187076 185.498499 
" clip-path="url(#p3f2fdff069)" style="fill: none; stroke: #000000; stroke-linecap: square"/>
   </g>
   <g id="patch_11">
    <path d="M 32.370706 242.102543 
L 32.370706 128.894455 
" style="fill: none; stroke: #000000; stroke-width: 0.8; stroke-linejoin: miter; stroke-linecap: square"/>
   </g>
   <g id="patch_12">
    <path d="M 32.370706 247.102543 
L 483.961281 247.102543 
" style="fill: none; stroke: #444444; stroke-width: 0.8; stroke-linejoin: miter; stroke-linecap: square"/>
   </g>
   <g id="text_17">
    <!-- Input voltage and the voltage across the load resistance for the four diode models -->
    <g style="fill: #aa0000" transform="translate(49.6897 122.894455) scale(0.12 -0.12)">
     <defs>
      <path id="HFBR17-49" d="M 512 4460 
L 512 0 
L 960 0 
L 960 4460 
L 512 4460 
z
" transform="scale(0.015625)"/>
      <path id="HFBR17-6e" d="M 806 2386 
L 800 2386 
L 800 3033 
L 410 3033 
L 410 0 
L 819 0 
L 819 1404 
C 819 1718 800 2040 941 2334 
C 1011 2482 1120 2610 1267 2687 
C 1389 2745 1517 2745 1651 2732 
C 1843 2732 2029 2681 2150 2520 
C 2266 2372 2272 2180 2272 2000 
L 2272 0 
L 2682 0 
L 2682 1719 
C 2682 2040 2714 2392 2560 2681 
C 2438 2912 2202 3021 1952 3053 
C 1824 3072 1690 3072 1562 3047 
C 1229 2976 922 2707 806 2386 
z
" transform="scale(0.015625)"/>
      <path id="HFBR17-70" d="M 813 2594 
L 813 3018 
L 410 3018 
L 410 -1088 
L 819 -1088 
L 819 390 
C 909 261 1011 146 1146 69 
C 1600 -208 2176 11 2490 422 
C 2906 958 2950 1760 2662 2367 
C 2496 2716 2182 3040 1779 3072 
C 1427 3072 1158 2932 966 2760 
C 909 2709 864 2652 813 2594 
z
M 1402 2744 
C 1664 2763 1920 2641 2099 2449 
C 2208 2326 2291 2185 2342 2031 
C 2566 1427 2362 591 1715 341 
C 1344 199 979 328 838 675 
C 806 739 819 823 819 893 
L 819 2217 
C 819 2365 832 2378 928 2487 
C 1043 2628 1216 2725 1402 2744 
z
" transform="scale(0.015625)"/>
      <path id="HFBR17-75" d="M 410 3008 
L 410 830 
C 410 643 416 457 493 283 
C 614 33 870 -64 1133 -64 
C 1485 -64 1837 52 2093 303 
C 2163 373 2227 444 2272 534 
L 2278 534 
L 2278 -25 
L 2682 -25 
L 2682 3008 
L 2272 3008 
L 2272 1466 
C 2272 1196 2310 900 2170 656 
C 2067 476 1888 335 1690 271 
C 1555 232 1414 232 1274 245 
C 1139 258 992 271 902 386 
C 774 541 819 907 819 1132 
L 819 3008 
L 410 3008 
z
" transform="scale(0.015625)"/>
      <path id="HFBR17-74" d="M 691 3872 
L 691 3009 
L 70 3009 
L 70 2688 
L 685 2688 
L 685 961 
C 685 677 666 335 851 97 
C 960 -45 1107 -83 1331 -64 
C 1517 -64 1702 -25 1875 42 
C 1933 68 2144 161 2170 207 
C 2182 233 2099 518 2099 518 
L 1946 401 
C 1747 278 1350 149 1184 382 
C 1037 582 1075 880 1075 1112 
L 1075 2688 
L 2067 2688 
L 2067 3009 
L 1075 3009 
L 1075 3872 
L 691 3872 
z
" transform="scale(0.015625)"/>
      <path id="HFBR17-76" d="M 45 3040 
C 77 2912 269 2405 282 2373 
C 346 2194 1107 39 1126 19 
C 1146 -13 1203 0 1235 0 
L 1459 0 
C 1542 0 1594 -19 1613 58 
C 1818 597 2566 2733 2675 3040 
L 2278 3040 
C 1971 2175 1658 1308 1370 423 
L 704 2317 
C 608 2547 550 2809 442 3021 
C 326 3040 179 3040 45 3040 
z
" transform="scale(0.015625)"/>
      <path id="HFBR17-61" d="M 506 2497 
C 614 2551 704 2630 813 2683 
C 986 2762 1165 2816 1357 2816 
C 1446 2822 1549 2835 1638 2816 
C 1798 2790 1939 2693 2035 2557 
C 2131 2401 2170 2265 2170 2014 
L 2170 1729 
C 1862 1729 1555 1703 1261 1625 
C 890 1541 486 1352 352 1014 
C 218 690 358 261 646 66 
C 787 -32 954 -32 1120 -19 
C 1389 0 1658 65 1888 208 
C 1997 272 2106 357 2170 467 
L 2176 467 
L 2176 13 
L 2579 13 
L 2579 1721 
C 2579 1908 2598 2109 2560 2297 
C 2522 2555 2362 2769 2176 2918 
C 1958 3086 1709 3143 1376 3118 
C 1069 3118 832 3040 602 2929 
C 570 2916 506 2895 486 2857 
C 467 2830 480 2785 480 2752 
C 493 2667 499 2582 506 2497 
z
M 2170 1536 
L 2170 1048 
C 2170 900 2176 765 2093 637 
C 2022 534 1926 463 1824 412 
C 1459 225 902 283 742 592 
C 614 816 749 1080 934 1228 
C 1210 1440 1747 1536 2170 1536 
z
" transform="scale(0.015625)"/>
      <path id="HFBR17-67" d="M 2266 767 
L 2272 767 
L 2272 170 
C 2272 -10 2272 -183 2214 -356 
C 2118 -588 1952 -800 1677 -838 
C 1600 -845 1517 -838 1440 -832 
C 1024 -832 749 -707 416 -555 
L 416 -799 
C 416 -922 435 -928 557 -967 
C 883 -1102 1472 -1236 1875 -1134 
C 2323 -1018 2650 -594 2682 -78 
C 2688 12 2682 109 2682 200 
L 2682 3072 
L 2278 3072 
L 2278 2559 
C 2182 2719 2080 2867 1914 2970 
C 1466 3240 858 2944 608 2597 
C 198 2089 122 1302 448 735 
C 512 626 589 523 678 433 
C 986 131 1510 -30 1888 240 
C 2042 343 2221 581 2266 767 
z
M 1632 2752 
C 1690 2752 1754 2752 1811 2739 
C 2042 2694 2170 2488 2246 2282 
C 2291 2141 2278 1987 2278 1839 
C 2278 1518 2272 1184 2163 881 
C 2086 657 1926 457 1677 432 
C 1594 425 1510 438 1427 457 
C 1037 547 768 881 685 1267 
C 570 1826 845 2507 1408 2700 
C 1478 2726 1555 2745 1632 2752 
z
" transform="scale(0.015625)"/>
      <path id="HFBR17-68" d="M 410 4460 
L 410 0 
L 819 0 
L 819 1407 
C 819 1722 800 2044 941 2339 
C 1011 2487 1120 2616 1267 2693 
C 1389 2751 1517 2751 1651 2738 
C 1843 2738 2029 2687 2150 2525 
C 2266 2377 2272 2185 2272 2004 
L 2272 0 
L 2682 0 
L 2682 1742 
C 2682 2063 2714 2416 2554 2706 
C 2426 2924 2202 3027 1965 3059 
C 1837 3072 1709 3072 1581 3053 
C 1350 3009 1152 2882 998 2710 
C 928 2627 845 2526 819 2417 
L 813 2417 
L 813 4460 
L 410 4460 
z
" transform="scale(0.015625)"/>
      <path id="HFBR17-72" d="M 800 2224 
L 794 2224 
L 794 3033 
L 410 3033 
L 410 0 
L 813 0 
L 813 1465 
C 813 1562 813 1658 826 1754 
C 915 2301 1389 2706 2010 2706 
L 2010 3072 
C 1600 3072 1222 2873 979 2545 
C 909 2449 832 2339 800 2224 
z
" transform="scale(0.015625)"/>
      <path id="HFBR17-66" d="M 678 3009 
L 128 3009 
L 128 2688 
L 678 2688 
L 678 -32 
L 1082 -32 
L 1082 2688 
L 1875 2688 
L 1875 3009 
L 1075 3009 
L 1075 3570 
C 1075 3660 1056 3771 1094 3861 
C 1229 4144 1683 4196 2054 4132 
C 2131 4119 2202 4093 2278 4080 
L 2278 4441 
C 1843 4512 1363 4512 1005 4219 
C 947 4168 896 4118 851 4053 
C 717 3888 678 3704 678 3417 
L 678 3009 
z
" transform="scale(0.015625)"/>
     </defs>
     <use xlink:href="#HFBR17-49" transform="scale(0.996264)"/>
     <use xlink:href="#HFBR17-6e" transform="translate(22.830979 0) scale(0.996264)"/>
     <use xlink:href="#HFBR17-70" transform="translate(70.983476 0) scale(0.996264)"/>
     <use xlink:href="#HFBR17-75" transform="translate(119.135973 0) scale(0.996264)"/>
     <use xlink:href="#HFBR17-74" transform="translate(167.28847 0) scale(0.996264)"/>
     <use xlink:href="#HFBR17-76" transform="translate(234.86807 0) scale(0.996264)"/>
     <use xlink:href="#HFBR17-6f" transform="translate(277.209108 0) scale(0.996264)"/>
     <use xlink:href="#HFBR17-6c" transform="translate(327.852326 0) scale(0.996264)"/>
     <use xlink:href="#HFBR17-74" transform="translate(346.947284 0) scale(0.996264)"/>
     <use xlink:href="#HFBR17-61" transform="translate(383.061672 0) scale(0.996264)"/>
     <use xlink:href="#HFBR17-67" transform="translate(429.553755 0) scale(0.996264)"/>
     <use xlink:href="#HFBR17-65" transform="translate(477.706252 0) scale(0.996264)"/>
     <use xlink:href="#HFBR17-61" transform="translate(554.003131 0) scale(0.996264)"/>
     <use xlink:href="#HFBR17-6e" transform="translate(600.495213 0) scale(0.996264)"/>
     <use xlink:href="#HFBR17-64" transform="translate(648.64771 0) scale(0.996264)"/>
     <use xlink:href="#HFBR17-74" transform="translate(728.265419 0) scale(0.996264)"/>
     <use xlink:href="#HFBR17-68" transform="translate(764.379807 0) scale(0.996264)"/>
     <use xlink:href="#HFBR17-65" transform="translate(812.532304 0) scale(0.996264)"/>
     <use xlink:href="#HFBR17-76" transform="translate(888.829183 0) scale(0.996264)"/>
     <use xlink:href="#HFBR17-6f" transform="translate(931.170221 0) scale(0.996264)"/>
     <use xlink:href="#HFBR17-6c" transform="translate(981.813439 0) scale(0.996264)"/>
     <use xlink:href="#HFBR17-74" transform="translate(1000.908398 0) scale(0.996264)"/>
     <use xlink:href="#HFBR17-61" transform="translate(1037.022786 0) scale(0.996264)"/>
     <use xlink:href="#HFBR17-67" transform="translate(1083.514868 0) scale(0.996264)"/>
     <use xlink:href="#HFBR17-65" transform="translate(1131.667365 0) scale(0.996264)"/>
     <use xlink:href="#HFBR17-61" transform="translate(1207.964244 0) scale(0.996264)"/>
     <use xlink:href="#HFBR17-63" transform="translate(1254.456326 0) scale(0.996264)"/>
     <use xlink:href="#HFBR17-72" transform="translate(1299.287994 0) scale(0.996264)"/>
     <use xlink:href="#HFBR17-6f" transform="translate(1331.251353 0) scale(0.996264)"/>
     <use xlink:href="#HFBR17-73" transform="translate(1381.894571 0) scale(0.996264)"/>
     <use xlink:href="#HFBR17-73" transform="translate(1420.3336 0) scale(0.996264)"/>
     <use xlink:href="#HFBR17-74" transform="translate(1490.237841 0) scale(0.996264)"/>
     <use xlink:href="#HFBR17-68" transform="translate(1526.352229 0) scale(0.996264)"/>
     <use xlink:href="#HFBR17-65" transform="translate(1574.504726 0) scale(0.996264)"/>
     <use xlink:href="#HFBR17-6c" transform="translate(1650.801605 0) scale(0.996264)"/>
     <use xlink:href="#HFBR17-6f" transform="translate(1669.896564 0) scale(0.996264)"/>
     <use xlink:href="#HFBR17-61" transform="translate(1720.539782 0) scale(0.996264)"/>
     <use xlink:href="#HFBR17-64" transform="translate(1767.031864 0) scale(0.996264)"/>
     <use xlink:href="#HFBR17-72" transform="translate(1846.649573 0) scale(0.996264)"/>
     <use xlink:href="#HFBR17-65" transform="translate(1878.612932 0) scale(0.996264)"/>
     <use xlink:href="#HFBR17-73" transform="translate(1923.444599 0) scale(0.996264)"/>
     <use xlink:href="#HFBR17-69" transform="translate(1961.883629 0) scale(0.996264)"/>
     <use xlink:href="#HFBR17-73" transform="translate(1980.978587 0) scale(0.996264)"/>
     <use xlink:href="#HFBR17-74" transform="translate(2019.417617 0) scale(0.996264)"/>
     <use xlink:href="#HFBR17-61" transform="translate(2055.532005 0) scale(0.996264)"/>
     <use xlink:href="#HFBR17-6e" transform="translate(2102.024087 0) scale(0.996264)"/>
     <use xlink:href="#HFBR17-63" transform="translate(2150.176584 0) scale(0.996264)"/>
     <use xlink:href="#HFBR17-65" transform="translate(2195.008252 0) scale(0.996264)"/>
     <use xlink:href="#HFBR17-66" transform="translate(2271.305131 0) scale(0.996264)"/>
     <use xlink:href="#HFBR17-6f" transform="translate(2301.608075 0) scale(0.996264)"/>
     <use xlink:href="#HFBR17-72" transform="translate(2349.345563 0) scale(0.996264)"/>
     <use xlink:href="#HFBR17-74" transform="translate(2412.774134 0) scale(0.996264)"/>
     <use xlink:href="#HFBR17-68" transform="translate(2448.888522 0) scale(0.996264)"/>
     <use xlink:href="#HFBR17-65" transform="translate(2497.041019 0) scale(0.996264)"/>
     <use xlink:href="#HFBR17-66" transform="translate(2573.337898 0) scale(0.996264)"/>
     <use xlink:href="#HFBR17-6f" transform="translate(2603.640842 0) scale(0.996264)"/>
     <use xlink:href="#HFBR17-75" transform="translate(2654.28406 0) scale(0.996264)"/>
     <use xlink:href="#HFBR17-72" transform="translate(2702.436557 0) scale(0.996264)"/>
     <use xlink:href="#HFBR17-64" transform="translate(2765.865127 0) scale(0.996264)"/>
     <use xlink:href="#HFBR17-69" transform="translate(2814.017624 0) scale(0.996264)"/>
     <use xlink:href="#HFBR17-6f" transform="translate(2833.112583 0) scale(0.996264)"/>
     <use xlink:href="#HFBR17-64" transform="translate(2883.755801 0) scale(0.996264)"/>
     <use xlink:href="#HFBR17-65" transform="translate(2931.908298 0) scale(0.996264)"/>
     <use xlink:href="#HFBR17-6d" transform="translate(3008.205177 0) scale(0.996264)"/>
     <use xlink:href="#HFBR17-6f" transform="translate(3085.415304 0) scale(0.996264)"/>
     <use xlink:href="#HFBR17-64" transform="translate(3136.058521 0) scale(0.996264)"/>
     <use xlink:href="#HFBR17-65" transform="translate(3184.211018 0) scale(0.996264)"/>
     <use xlink:href="#HFBR17-6c" transform="translate(3229.042686 0) scale(0.996264)"/>
     <use xlink:href="#HFBR17-73" transform="translate(3248.137645 0) scale(0.996264)"/>
    </g>
   </g>
   <g id="legend_1">
    <g id="line2d_34">
     <path d="M 494.761281 115.244735 
L 506.761281 115.244735 
L 518.761281 115.244735 
" style="fill: none; stroke: #888888; stroke-linecap: square"/>
    </g>
    <g id="text_18">
     <!-- $v_{in}(t)$ -->
     <g transform="translate(528.361281 119.444735) scale(0.12 -0.12)">
      <defs>
       <path id="HFBRMI10-76" d="M 736 3040 
C 890 2016 1062 1017 1222 0 
C 1382 0 1549 0 1690 20 
L 1747 97 
L 3475 3040 
C 3341 3040 3206 3040 3085 3040 
L 3034 2976 
L 1549 435 
C 1434 1323 1280 2172 1146 3040 
L 736 3040 
z
" transform="scale(0.015625)"/>
       <path id="HFBRMI10-69" d="M 1370 4032 
L 1773 4032 
L 1856 4436 
C 1722 4436 1574 4436 1459 4416 
C 1414 4303 1395 4165 1370 4032 
z
M 1152 3010 
L 512 -32 
C 646 -32 794 -32 909 -13 
L 934 57 
L 1555 3010 
L 1152 3010 
z
" transform="scale(0.015625)"/>
       <path id="HFBRMI10-6e" d="M 1427 2398 
L 1421 2398 
L 1549 3027 
L 1158 3027 
L 518 0 
L 806 0 
C 864 0 941 -19 941 64 
C 954 109 960 154 973 199 
C 1056 572 1286 1742 1344 1935 
C 1466 2295 1734 2713 2163 2764 
C 2445 2764 2701 2693 2797 2502 
C 2893 2310 2816 2087 2778 1889 
L 2374 0 
L 2675 0 
C 2739 0 2797 -13 2797 71 
C 2835 199 2925 673 2925 673 
L 3213 2026 
C 3264 2270 3322 2565 3187 2796 
C 3072 2988 2854 3052 2643 3071 
C 2541 3084 2438 3084 2336 3065 
C 2054 3014 1792 2847 1606 2635 
C 1542 2565 1466 2488 1427 2398 
z
M 1414 2398 
C 1414 2398 1421 2398 1421 2398 
C 1421 2392 1414 2385 1414 2398 
z
" transform="scale(0.015625)"/>
       <path id="HFBRMI10-74" d="M 762 3009 
L 698 2688 
L 1312 2688 
C 1261 2508 1235 2323 1197 2144 
L 934 908 
C 877 666 806 313 928 102 
C 1011 -32 1146 -64 1293 -64 
C 1530 -64 1766 -7 1984 77 
C 2042 96 2240 179 2272 218 
C 2285 236 2278 275 2278 300 
C 2278 377 2266 448 2266 525 
C 2214 499 2170 461 2118 428 
C 2054 390 1990 358 1920 332 
C 1811 294 1587 230 1453 275 
C 1293 326 1274 518 1280 666 
C 1293 813 1587 2182 1683 2598 
C 1702 2669 1696 2688 1786 2688 
L 2694 2688 
L 2758 3009 
L 1766 3009 
L 1952 3872 
C 1824 3872 1683 3872 1574 3852 
C 1478 3605 1472 3268 1376 3021 
L 1325 3009 
L 762 3009 
z
" transform="scale(0.015625)"/>
      </defs>
      <use xlink:href="#HFBRMI10-76" transform="scale(0.996264)"/>
      <use xlink:href="#HFBRMI10-69" transform="translate(45.661776 -14.943915) scale(0.697382)"/>
      <use xlink:href="#HFBRMI10-6e" transform="translate(68.355179 -14.943915) scale(0.697382)"/>
      <use xlink:href="#HFBR17-28" transform="translate(106.653501 0) scale(0.996264)"/>
      <use xlink:href="#HFBRMI10-74" transform="translate(145.67371 0) scale(0.996264)"/>
      <use xlink:href="#HFBR17-29" transform="translate(191.12371 0) scale(0.996264)"/>
     </g>
    </g>
    <g id="line2d_35">
     <path d="M 494.761281 132.867821 
L 506.761281 132.867821 
L 518.761281 132.867821 
" style="fill: none; stroke: #aa0000; stroke-linecap: square"/>
    </g>
    <g id="text_19">
     <!-- $v_{1}(t)$ -->
     <g transform="translate(528.361281 137.067821) scale(0.12 -0.12)">
      <use xlink:href="#HFBRMI10-76" transform="scale(0.996264)"/>
      <use xlink:href="#HFBR17-31" transform="translate(45.661776 -14.943915) scale(0.697382)"/>
      <use xlink:href="#HFBR17-28" transform="translate(81.609993 0) scale(0.996264)"/>
      <use xlink:href="#HFBRMI10-74" transform="translate(120.630202 0) scale(0.996264)"/>
      <use xlink:href="#HFBR17-29" transform="translate(166.080202 0) scale(0.996264)"/>
     </g>
    </g>
    <g id="line2d_36">
     <path d="M 494.761281 150.490906 
L 506.761281 150.490906 
L 518.761281 150.490906 
" style="fill: none; stroke: #0000aa; stroke-linecap: square"/>
    </g>
    <g id="text_20">
     <!-- $v_{2}(t)$ -->
     <g transform="translate(528.361281 154.690906) scale(0.12 -0.12)">
      <use xlink:href="#HFBRMI10-76" transform="scale(0.996264)"/>
      <use xlink:href="#HFBR17-32" transform="translate(45.661776 -14.943915) scale(0.697382)"/>
      <use xlink:href="#HFBR17-28" transform="translate(81.609993 0) scale(0.996264)"/>
      <use xlink:href="#HFBRMI10-74" transform="translate(120.630202 0) scale(0.996264)"/>
      <use xlink:href="#HFBR17-29" transform="translate(166.080202 0) scale(0.996264)"/>
     </g>
    </g>
    <g id="line2d_37">
     <path d="M 494.761281 168.113991 
L 506.761281 168.113991 
L 518.761281 168.113991 
" style="fill: none; stroke: #00aa00; stroke-linecap: square"/>
    </g>
    <g id="text_21">
     <!-- $v_{3}(t)$ -->
     <g transform="translate(528.361281 172.313991) scale(0.12 -0.12)">
      <use xlink:href="#HFBRMI10-76" transform="scale(0.996264)"/>
      <use xlink:href="#HFBR17-33" transform="translate(45.661776 -14.943915) scale(0.697382)"/>
      <use xlink:href="#HFBR17-28" transform="translate(81.609993 0) scale(0.996264)"/>
      <use xlink:href="#HFBRMI10-74" transform="translate(120.630202 0) scale(0.996264)"/>
      <use xlink:href="#HFBR17-29" transform="translate(166.080202 0) scale(0.996264)"/>
     </g>
    </g>
    <g id="line2d_38">
     <path d="M 494.761281 185.737076 
L 506.761281 185.737076 
L 518.761281 185.737076 
" style="fill: none; stroke: #000000; stroke-linecap: square"/>
    </g>
    <g id="text_22">
     <!-- $v_{4}(t)$ -->
     <g transform="translate(528.361281 189.937076) scale(0.12 -0.12)">
      <use xlink:href="#HFBRMI10-76" transform="scale(0.996264)"/>
      <use xlink:href="#HFBR17-34" transform="translate(45.661776 -14.943915) scale(0.697382)"/>
      <use xlink:href="#HFBR17-28" transform="translate(81.609993 0) scale(0.996264)"/>
      <use xlink:href="#HFBRMI10-74" transform="translate(120.630202 0) scale(0.996264)"/>
      <use xlink:href="#HFBR17-29" transform="translate(166.080202 0) scale(0.996264)"/>
     </g>
    </g>
   </g>
  </g>
 </g>
 <defs>
  <clipPath id="pa2b1d6527a">
   <rect x="32.370706" y="21.502195" width="102.051717" height="56.604044"/>
  </clipPath>
  <clipPath id="p6d11753d59">
   <rect x="148.883658" y="21.502195" width="102.051717" height="56.604044"/>
  </clipPath>
  <clipPath id="pbd350bdf36">
   <rect x="265.396611" y="21.502195" width="102.051717" height="56.604044"/>
  </clipPath>
  <clipPath id="pffc7d6b7b3">
   <rect x="381.909563" y="21.502195" width="102.051717" height="56.604044"/>
  </clipPath>
  <clipPath id="p3f2fdff069">
   <rect x="32.370706" y="128.894455" width="451.590575" height="113.208088"/>
  </clipPath>
 </defs>
</svg>
