<?xml version="1.0" encoding="utf-8" standalone="no"?>
<!DOCTYPE svg PUBLIC "-//W3C//DTD SVG 1.1//EN"
  "http://www.w3.org/Graphics/SVG/1.1/DTD/svg11.dtd">
<svg xmlns:xlink="http://www.w3.org/1999/xlink" width="568.8pt" height="208.8pt" viewBox="0 0 568.8 208.8" xmlns="http://www.w3.org/2000/svg" version="1.1">
 <metadata>
  <rdf:RDF xmlns:dc="http://purl.org/dc/elements/1.1/" xmlns:cc="http://creativecommons.org/ns#" xmlns:rdf="http://www.w3.org/1999/02/22-rdf-syntax-ns#">
   <cc:Work>
    <dc:type rdf:resource="http://purl.org/dc/dcmitype/StillImage"/>
    <dc:date>2025-07-04T13:47:13.957255</dc:date>
    <dc:format>image/svg+xml</dc:format>
    <dc:creator>
     <cc:Agent>
      <dc:title>Matplotlib v3.10.3, https://matplotlib.org/</dc:title>
     </cc:Agent>
    </dc:creator>
   </cc:Work>
  </rdf:RDF>
 </metadata>
 <defs>
  <style type="text/css">*{stroke-linejoin: round; stroke-linecap: butt}</style>
 </defs>
 <g id="figure_1">
  <g id="patch_1">
   <path d="M 0 208.8 
L 568.8 208.8 
L 568.8 0 
L 0 0 
z
" style="fill: #ffffff"/>
  </g>
  <g id="axes_1">
   <g id="patch_2">
    <path d="M 36.926313 171.873687 
L 279 171.873687 
L 279 24.269603 
L 36.926313 24.269603 
z
" style="fill: #ffffff"/>
   </g>
   <g id="FillBetweenPolyCollection_1">
    <path d="M 36.926313 171.873687 
L 36.926313 171.873687 
L 39.952234 171.873687 
L 42.978155 171.873687 
L 46.004076 171.873687 
L 49.029997 171.873687 
L 52.055918 171.873687 
L 55.081839 171.873687 
L 58.10776 171.873687 
L 61.133681 171.873687 
L 64.159602 171.873687 
L 67.185524 171.873687 
L 70.211445 171.873687 
L 73.237366 171.873687 
L 76.263287 171.873687 
L 79.289208 171.873687 
L 82.315129 171.873687 
L 85.34105 171.873687 
L 88.366971 171.873687 
L 91.392892 171.873687 
L 94.418813 171.873687 
L 97.444734 171.873687 
L 100.470656 171.873687 
L 103.496577 171.873687 
L 106.522498 171.873687 
L 109.548419 171.873687 
L 112.57434 171.873687 
L 115.600261 171.873687 
L 118.626182 171.873687 
L 121.652103 171.873687 
L 124.678024 171.873687 
L 127.703945 171.873687 
L 130.729866 171.873687 
L 133.755788 171.873687 
L 136.781709 171.873687 
L 139.80763 171.873687 
L 142.833551 171.873687 
L 145.859472 171.873687 
L 148.885393 171.873687 
L 151.911314 171.873687 
L 154.937235 171.873687 
L 157.963156 171.873687 
L 160.989077 171.873687 
L 164.014998 171.873687 
L 167.04092 171.873687 
L 170.066841 171.873687 
L 173.092762 171.873687 
L 176.118683 171.873687 
L 179.144604 171.873687 
L 182.170525 171.873687 
L 185.196446 171.873687 
L 188.222367 171.873687 
L 191.248288 171.873687 
L 194.274209 171.873687 
L 197.30013 171.873687 
L 200.326052 171.873687 
L 203.351973 171.873687 
L 206.377894 171.873687 
L 209.403815 171.873687 
L 212.429736 171.873687 
L 215.455657 171.873687 
L 218.481578 171.873687 
L 221.507499 171.873687 
L 224.53342 171.873687 
L 227.559341 171.873687 
L 230.585263 171.873687 
L 233.611184 171.873687 
L 236.637105 171.873687 
L 239.663026 171.873687 
L 242.688947 171.873687 
L 245.714868 171.873687 
L 248.740789 171.873687 
L 251.76671 171.873687 
L 254.792631 171.873687 
L 257.818552 171.873687 
L 260.844473 171.873687 
L 263.870395 171.873687 
L 266.896316 171.873687 
L 269.922237 171.873687 
L 272.948158 171.873687 
L 275.974079 171.873687 
L 275.974079 -442.257704 
L 275.974079 -442.257704 
L 272.948158 -426.808477 
L 269.922237 -411.556055 
L 266.896316 -396.500438 
L 263.870395 -381.641627 
L 260.844473 -366.979622 
L 257.818552 -352.514421 
L 254.792631 -338.246027 
L 251.76671 -324.174437 
L 248.740789 -310.299653 
L 245.714868 -296.621675 
L 242.688947 -283.140502 
L 239.663026 -269.856134 
L 236.637105 -256.768572 
L 233.611184 -243.877816 
L 230.585263 -231.183864 
L 227.559341 -218.686719 
L 224.53342 -206.386378 
L 221.507499 -194.282843 
L 218.481578 -182.376114 
L 215.455657 -170.66619 
L 212.429736 -159.153071 
L 209.403815 -147.836758 
L 206.377894 -136.717251 
L 203.351973 -125.794549 
L 200.326052 -115.068652 
L 197.30013 -104.53956 
L 194.274209 -94.207275 
L 191.248288 -84.071794 
L 188.222367 -74.133119 
L 185.196446 -64.39125 
L 182.170525 -54.846185 
L 179.144604 -45.497927 
L 176.118683 -36.346474 
L 173.092762 -27.391826 
L 170.066841 -18.633984 
L 167.04092 -10.072947 
L 164.014998 -1.708715 
L 160.989077 6.458711 
L 157.963156 14.429331 
L 154.937235 22.203146 
L 151.911314 29.780156 
L 148.885393 37.16036 
L 145.859472 44.343759 
L 142.833551 51.330352 
L 139.80763 58.12014 
L 136.781709 64.713122 
L 133.755788 71.109299 
L 130.729866 77.308671 
L 127.703945 83.311237 
L 124.678024 89.116998 
L 121.652103 94.725953 
L 118.626182 100.138103 
L 115.600261 105.353447 
L 112.57434 110.371986 
L 109.548419 115.193719 
L 106.522498 119.818647 
L 103.496577 124.24677 
L 100.470656 128.478087 
L 97.444734 132.512598 
L 94.418813 136.350305 
L 91.392892 139.991205 
L 88.366971 143.435301 
L 85.34105 146.68259 
L 82.315129 149.733075 
L 79.289208 152.586754 
L 76.263287 155.243627 
L 73.237366 157.703695 
L 70.211445 159.966958 
L 67.185524 162.033415 
L 64.159602 163.903067 
L 61.133681 165.575913 
L 58.10776 167.051954 
L 55.081839 168.331189 
L 52.055918 169.413619 
L 49.029997 170.299244 
L 46.004076 170.988063 
L 42.978155 171.480077 
L 39.952234 171.775285 
L 36.926313 171.873687 
z
" clip-path="url(#pe8be8353d7)" style="fill: #eeeeee; fill-opacity: 0.5; stroke: #eeeeee; stroke-opacity: 0.5"/>
   </g>
   <g id="matplotlib.axis_1">
    <g id="xtick_1">
     <g id="line2d_1">
      <defs>
       <path id="m3a1a75bb08" d="M 0 0 
L 0 3.5 
" style="stroke: #000000; stroke-width: 0.8"/>
      </defs>
      <g>
       <use xlink:href="#m3a1a75bb08" x="36.926313" y="176.873687" style="stroke: #000000; stroke-width: 0.8"/>
      </g>
     </g>
    </g>
    <g id="xtick_2">
     <g id="line2d_2">
      <g>
       <use xlink:href="#m3a1a75bb08" x="97.444734" y="176.873687" style="stroke: #000000; stroke-width: 0.8"/>
      </g>
     </g>
    </g>
    <g id="xtick_3">
     <g id="line2d_3">
      <g>
       <use xlink:href="#m3a1a75bb08" x="157.963156" y="176.873687" style="stroke: #000000; stroke-width: 0.8"/>
      </g>
     </g>
    </g>
    <g id="xtick_4">
     <g id="line2d_4">
      <g>
       <use xlink:href="#m3a1a75bb08" x="218.481578" y="176.873687" style="stroke: #000000; stroke-width: 0.8"/>
      </g>
     </g>
    </g>
    <g id="xtick_5">
     <g id="line2d_5">
      <g>
       <use xlink:href="#m3a1a75bb08" x="279" y="176.873687" style="stroke: #000000; stroke-width: 0.8"/>
      </g>
     </g>
    </g>
    <g id="text_1">
     <!-- $v_{DS}$ -->
     <g transform="translate(146.23204 198.943291) scale(0.16 -0.16)">
      <defs>
       <path id="HFBRMI10-76" d="M 736 3040 
C 890 2016 1062 1017 1222 0 
C 1382 0 1549 0 1690 20 
L 1747 97 
L 3475 3040 
C 3341 3040 3206 3040 3085 3040 
L 3034 2976 
L 1549 435 
C 1434 1323 1280 2172 1146 3040 
L 736 3040 
z
" transform="scale(0.015625)"/>
       <path id="HFBRMI10-44" d="M 1568 4449 
L 627 0 
L 1792 0 
C 2074 0 2362 0 2643 38 
C 3565 185 4282 850 4634 1553 
C 4986 2256 5062 3183 4563 3842 
C 4320 4161 3955 4397 3469 4449 
C 3283 4449 3098 4449 2912 4449 
L 1568 4449 
z
M 1139 346 
L 1939 4096 
L 2829 4096 
C 2950 4096 3072 4096 3194 4096 
C 3558 4096 3942 3955 4147 3704 
C 4576 3224 4531 2506 4352 1929 
C 4102 1142 3488 520 2650 385 
C 2438 346 2221 346 2003 346 
L 1139 346 
z
" transform="scale(0.015625)"/>
       <path id="HFBRMI10-53" d="M 544 766 
L 371 316 
C 499 228 634 140 774 73 
C 1357 -192 2106 -192 2701 108 
C 3245 388 3738 973 3616 1615 
C 3533 1978 3328 2213 3008 2360 
C 2893 2411 2771 2436 2650 2468 
C 2490 2512 2003 2627 1894 2678 
C 1702 2767 1536 2926 1491 3136 
C 1421 3474 1677 3778 1946 3951 
C 2234 4135 2573 4192 2912 4192 
C 3226 4192 3443 4093 3661 3940 
C 3725 3894 3776 3834 3840 3787 
L 4013 4237 
C 3846 4327 3686 4416 3507 4468 
C 2854 4647 2131 4525 1658 4166 
C 1280 3883 966 3414 1082 2919 
C 1120 2759 1190 2636 1286 2527 
C 1581 2199 2029 2142 2432 2039 
C 2547 2007 2662 1981 2771 1936 
C 2970 1839 3136 1672 3194 1454 
C 3296 1030 2976 632 2630 426 
C 2112 125 1434 202 922 484 
C 832 535 749 593 666 657 
C 621 696 589 734 544 766 
z
" transform="scale(0.015625)"/>
      </defs>
      <use xlink:href="#HFBRMI10-76" transform="scale(0.996264)"/>
      <use xlink:href="#HFBRMI10-44" transform="translate(45.661776 -14.943915) scale(0.697382)"/>
      <use xlink:href="#HFBRMI10-53" transform="translate(102.845986 -14.943915) scale(0.697382)"/>
     </g>
    </g>
   </g>
   <g id="matplotlib.axis_2">
    <g id="ytick_1">
     <g id="line2d_6">
      <defs>
       <path id="m98103a8a0c" d="M 0 0 
L -3.5 0 
" style="stroke: #000000; stroke-width: 0.8"/>
      </defs>
      <g>
       <use xlink:href="#m98103a8a0c" x="31.926313" y="171.873687" style="stroke: #000000; stroke-width: 0.8"/>
      </g>
     </g>
    </g>
    <g id="ytick_2">
     <g id="line2d_7">
      <g>
       <use xlink:href="#m98103a8a0c" x="31.926313" y="132.512598" style="stroke: #000000; stroke-width: 0.8"/>
      </g>
     </g>
    </g>
    <g id="ytick_3">
     <g id="line2d_8">
      <g>
       <use xlink:href="#m98103a8a0c" x="31.926313" y="93.151509" style="stroke: #000000; stroke-width: 0.8"/>
      </g>
     </g>
    </g>
    <g id="ytick_4">
     <g id="line2d_9">
      <g>
       <use xlink:href="#m98103a8a0c" x="31.926313" y="53.79042" style="stroke: #000000; stroke-width: 0.8"/>
      </g>
     </g>
    </g>
    <g id="text_2">
     <!-- $i_D$ -->
     <g transform="translate(18.269603 104.276914) rotate(-90) scale(0.16 -0.16)">
      <defs>
       <path id="HFBRMI10-69" d="M 1370 4032 
L 1773 4032 
L 1856 4436 
C 1722 4436 1574 4436 1459 4416 
C 1414 4303 1395 4165 1370 4032 
z
M 1152 3010 
L 512 -32 
C 646 -32 794 -32 909 -13 
L 934 57 
L 1555 3010 
L 1152 3010 
z
" transform="scale(0.015625)"/>
      </defs>
      <use xlink:href="#HFBRMI10-69" transform="scale(0.996264)"/>
      <use xlink:href="#HFBRMI10-44" transform="translate(22.415788 -14.943915) scale(0.697382)"/>
     </g>
    </g>
   </g>
   <g id="line2d_10">
    <path d="M 36.926313 171.873687 
L 39.952234 171.873687 
L 42.978155 171.873687 
L 46.004076 171.873687 
L 49.029997 171.873687 
L 52.055918 171.873687 
L 55.081839 171.873687 
L 58.10776 171.873687 
L 61.133681 171.873687 
L 64.159602 171.873687 
L 67.185524 171.873687 
L 70.211445 171.873687 
L 73.237366 171.873687 
L 76.263287 171.873687 
L 79.289208 171.873687 
L 82.315129 171.873687 
L 85.34105 171.873687 
L 88.366971 171.873687 
L 91.392892 171.873687 
L 94.418813 171.873687 
L 97.444734 171.873687 
L 100.470656 171.873687 
L 103.496577 171.873687 
L 106.522498 171.873687 
L 109.548419 171.873687 
L 112.57434 171.873687 
L 115.600261 171.873687 
L 118.626182 171.873687 
L 121.652103 171.873687 
L 124.678024 171.873687 
L 127.703945 171.873687 
L 130.729866 171.873687 
L 133.755788 171.873687 
L 136.781709 171.873687 
L 139.80763 171.873687 
L 142.833551 171.873687 
L 145.859472 171.873687 
L 148.885393 171.873687 
L 151.911314 171.873687 
L 154.937235 171.873687 
L 157.963156 171.873687 
L 160.989077 171.873687 
L 164.014998 171.873687 
L 167.04092 171.873687 
L 170.066841 171.873687 
L 173.092762 171.873687 
L 176.118683 171.873687 
L 179.144604 171.873687 
L 182.170525 171.873687 
L 185.196446 171.873687 
L 188.222367 171.873687 
L 191.248288 171.873687 
L 194.274209 171.873687 
L 197.30013 171.873687 
L 200.326052 171.873687 
L 203.351973 171.873687 
L 206.377894 171.873687 
L 209.403815 171.873687 
L 212.429736 171.873687 
L 215.455657 171.873687 
L 218.481578 171.873687 
L 221.507499 171.873687 
L 224.53342 171.873687 
L 227.559341 171.873687 
L 230.585263 171.873687 
L 233.611184 171.873687 
L 236.637105 171.873687 
L 239.663026 171.873687 
L 242.688947 171.873687 
L 245.714868 171.873687 
L 248.740789 171.873687 
L 251.76671 171.873687 
L 254.792631 171.873687 
L 257.818552 171.873687 
L 260.844473 171.873687 
L 263.870395 171.873687 
L 266.896316 171.873687 
L 269.922237 171.873687 
L 272.948158 171.873687 
L 275.974079 171.873687 
" clip-path="url(#pe8be8353d7)" style="fill: none; stroke: #aa0000; stroke-linecap: square"/>
   </g>
   <g id="line2d_11">
    <path d="M 36.926313 171.873687 
L 39.952234 170.988063 
L 42.978155 170.299244 
L 46.004076 169.80723 
L 49.029997 169.512022 
L 52.055918 169.413619 
L 55.081839 169.413619 
L 58.10776 169.413619 
L 61.133681 169.413619 
L 64.159602 169.413619 
L 67.185524 169.413619 
L 70.211445 169.413619 
L 73.237366 169.413619 
L 76.263287 169.413619 
L 79.289208 169.413619 
L 82.315129 169.413619 
L 85.34105 169.413619 
L 88.366971 169.413619 
L 91.392892 169.413619 
L 94.418813 169.413619 
L 97.444734 169.413619 
L 100.470656 169.413619 
L 103.496577 169.413619 
L 106.522498 169.413619 
L 109.548419 169.413619 
L 112.57434 169.413619 
L 115.600261 169.413619 
L 118.626182 169.413619 
L 121.652103 169.413619 
L 124.678024 169.413619 
L 127.703945 169.413619 
L 130.729866 169.413619 
L 133.755788 169.413619 
L 136.781709 169.413619 
L 139.80763 169.413619 
L 142.833551 169.413619 
L 145.859472 169.413619 
L 148.885393 169.413619 
L 151.911314 169.413619 
L 154.937235 169.413619 
L 157.963156 169.413619 
L 160.989077 169.413619 
L 164.014998 169.413619 
L 167.04092 169.413619 
L 170.066841 169.413619 
L 173.092762 169.413619 
L 176.118683 169.413619 
L 179.144604 169.413619 
L 182.170525 169.413619 
L 185.196446 169.413619 
L 188.222367 169.413619 
L 191.248288 169.413619 
L 194.274209 169.413619 
L 197.30013 169.413619 
L 200.326052 169.413619 
L 203.351973 169.413619 
L 206.377894 169.413619 
L 209.403815 169.413619 
L 212.429736 169.413619 
L 215.455657 169.413619 
L 218.481578 169.413619 
L 221.507499 169.413619 
L 224.53342 169.413619 
L 227.559341 169.413619 
L 230.585263 169.413619 
L 233.611184 169.413619 
L 236.637105 169.413619 
L 239.663026 169.413619 
L 242.688947 169.413619 
L 245.714868 169.413619 
L 248.740789 169.413619 
L 251.76671 169.413619 
L 254.792631 169.413619 
L 257.818552 169.413619 
L 260.844473 169.413619 
L 263.870395 169.413619 
L 266.896316 169.413619 
L 269.922237 169.413619 
L 272.948158 169.413619 
L 275.974079 169.413619 
" clip-path="url(#pe8be8353d7)" style="fill: none; stroke: #aa0000; stroke-linecap: square"/>
   </g>
   <g id="line2d_12">
    <path d="M 36.926313 171.873687 
L 39.952234 169.020008 
L 42.978155 166.363135 
L 46.004076 163.903067 
L 49.029997 161.639804 
L 52.055918 159.573347 
L 55.081839 157.703695 
L 58.10776 156.030849 
L 61.133681 154.554808 
L 64.159602 153.275573 
L 67.185524 152.193143 
L 70.211445 151.307518 
L 73.237366 150.618699 
L 76.263287 150.126686 
L 79.289208 149.831478 
L 82.315129 149.733075 
L 85.34105 149.733075 
L 88.366971 149.733075 
L 91.392892 149.733075 
L 94.418813 149.733075 
L 97.444734 149.733075 
L 100.470656 149.733075 
L 103.496577 149.733075 
L 106.522498 149.733075 
L 109.548419 149.733075 
L 112.57434 149.733075 
L 115.600261 149.733075 
L 118.626182 149.733075 
L 121.652103 149.733075 
L 124.678024 149.733075 
L 127.703945 149.733075 
L 130.729866 149.733075 
L 133.755788 149.733075 
L 136.781709 149.733075 
L 139.80763 149.733075 
L 142.833551 149.733075 
L 145.859472 149.733075 
L 148.885393 149.733075 
L 151.911314 149.733075 
L 154.937235 149.733075 
L 157.963156 149.733075 
L 160.989077 149.733075 
L 164.014998 149.733075 
L 167.04092 149.733075 
L 170.066841 149.733075 
L 173.092762 149.733075 
L 176.118683 149.733075 
L 179.144604 149.733075 
L 182.170525 149.733075 
L 185.196446 149.733075 
L 188.222367 149.733075 
L 191.248288 149.733075 
L 194.274209 149.733075 
L 197.30013 149.733075 
L 200.326052 149.733075 
L 203.351973 149.733075 
L 206.377894 149.733075 
L 209.403815 149.733075 
L 212.429736 149.733075 
L 215.455657 149.733075 
L 218.481578 149.733075 
L 221.507499 149.733075 
L 224.53342 149.733075 
L 227.559341 149.733075 
L 230.585263 149.733075 
L 233.611184 149.733075 
L 236.637105 149.733075 
L 239.663026 149.733075 
L 242.688947 149.733075 
L 245.714868 149.733075 
L 248.740789 149.733075 
L 251.76671 149.733075 
L 254.792631 149.733075 
L 257.818552 149.733075 
L 260.844473 149.733075 
L 263.870395 149.733075 
L 266.896316 149.733075 
L 269.922237 149.733075 
L 272.948158 149.733075 
L 275.974079 149.733075 
" clip-path="url(#pe8be8353d7)" style="fill: none; stroke: #aa0000; stroke-linecap: square"/>
   </g>
   <g id="line2d_13">
    <path d="M 36.926313 171.873687 
L 39.952234 167.051954 
L 42.978155 162.427026 
L 46.004076 157.998904 
L 49.029997 153.767586 
L 52.055918 149.733075 
L 55.081839 145.895369 
L 58.10776 142.254468 
L 61.133681 138.810373 
L 64.159602 135.563083 
L 67.185524 132.512598 
L 70.211445 129.658919 
L 73.237366 127.002046 
L 76.263287 124.541978 
L 79.289208 122.278715 
L 82.315129 120.212258 
L 85.34105 118.342606 
L 88.366971 116.66976 
L 91.392892 115.193719 
L 94.418813 113.914484 
L 97.444734 112.832054 
L 100.470656 111.946429 
L 103.496577 111.25761 
L 106.522498 110.765597 
L 109.548419 110.470389 
L 112.57434 110.371986 
L 115.600261 110.371986 
L 118.626182 110.371986 
L 121.652103 110.371986 
L 124.678024 110.371986 
L 127.703945 110.371986 
L 130.729866 110.371986 
L 133.755788 110.371986 
L 136.781709 110.371986 
L 139.80763 110.371986 
L 142.833551 110.371986 
L 145.859472 110.371986 
L 148.885393 110.371986 
L 151.911314 110.371986 
L 154.937235 110.371986 
L 157.963156 110.371986 
L 160.989077 110.371986 
L 164.014998 110.371986 
L 167.04092 110.371986 
L 170.066841 110.371986 
L 173.092762 110.371986 
L 176.118683 110.371986 
L 179.144604 110.371986 
L 182.170525 110.371986 
L 185.196446 110.371986 
L 188.222367 110.371986 
L 191.248288 110.371986 
L 194.274209 110.371986 
L 197.30013 110.371986 
L 200.326052 110.371986 
L 203.351973 110.371986 
L 206.377894 110.371986 
L 209.403815 110.371986 
L 212.429736 110.371986 
L 215.455657 110.371986 
L 218.481578 110.371986 
L 221.507499 110.371986 
L 224.53342 110.371986 
L 227.559341 110.371986 
L 230.585263 110.371986 
L 233.611184 110.371986 
L 236.637105 110.371986 
L 239.663026 110.371986 
L 242.688947 110.371986 
L 245.714868 110.371986 
L 248.740789 110.371986 
L 251.76671 110.371986 
L 254.792631 110.371986 
L 257.818552 110.371986 
L 260.844473 110.371986 
L 263.870395 110.371986 
L 266.896316 110.371986 
L 269.922237 110.371986 
L 272.948158 110.371986 
L 275.974079 110.371986 
" clip-path="url(#pe8be8353d7)" style="fill: none; stroke: #aa0000; stroke-linecap: square"/>
   </g>
   <g id="line2d_14">
    <path d="M 36.926313 171.873687 
L 39.952234 165.0839 
L 42.978155 158.490917 
L 46.004076 152.09474 
L 49.029997 145.895369 
L 52.055918 139.892803 
L 55.081839 134.087042 
L 58.10776 128.478087 
L 61.133681 123.065937 
L 64.159602 117.850593 
L 67.185524 112.832054 
L 70.211445 108.01032 
L 73.237366 103.385392 
L 76.263287 98.95727 
L 79.289208 94.725953 
L 82.315129 90.691441 
L 85.34105 86.853735 
L 88.366971 83.212834 
L 91.392892 79.768739 
L 94.418813 76.521449 
L 97.444734 73.470965 
L 100.470656 70.617286 
L 103.496577 67.960412 
L 106.522498 65.500344 
L 109.548419 63.237082 
L 112.57434 61.170624 
L 115.600261 59.300973 
L 118.626182 57.628126 
L 121.652103 56.152086 
L 124.678024 54.87285 
L 127.703945 53.79042 
L 130.729866 52.904796 
L 133.755788 52.215977 
L 136.781709 51.723963 
L 139.80763 51.428755 
L 142.833551 51.330352 
L 145.859472 51.330352 
L 148.885393 51.330352 
L 151.911314 51.330352 
L 154.937235 51.330352 
L 157.963156 51.330352 
L 160.989077 51.330352 
L 164.014998 51.330352 
L 167.04092 51.330352 
L 170.066841 51.330352 
L 173.092762 51.330352 
L 176.118683 51.330352 
L 179.144604 51.330352 
L 182.170525 51.330352 
L 185.196446 51.330352 
L 188.222367 51.330352 
L 191.248288 51.330352 
L 194.274209 51.330352 
L 197.30013 51.330352 
L 200.326052 51.330352 
L 203.351973 51.330352 
L 206.377894 51.330352 
L 209.403815 51.330352 
L 212.429736 51.330352 
L 215.455657 51.330352 
L 218.481578 51.330352 
L 221.507499 51.330352 
L 224.53342 51.330352 
L 227.559341 51.330352 
L 230.585263 51.330352 
L 233.611184 51.330352 
L 236.637105 51.330352 
L 239.663026 51.330352 
L 242.688947 51.330352 
L 245.714868 51.330352 
L 248.740789 51.330352 
L 251.76671 51.330352 
L 254.792631 51.330352 
L 257.818552 51.330352 
L 260.844473 51.330352 
L 263.870395 51.330352 
L 266.896316 51.330352 
L 269.922237 51.330352 
L 272.948158 51.330352 
L 275.974079 51.330352 
" clip-path="url(#pe8be8353d7)" style="fill: none; stroke: #aa0000; stroke-linecap: square"/>
   </g>
   <g id="line2d_15">
    <path d="M 36.926313 171.873687 
L 39.952234 171.775285 
L 42.978155 171.480077 
L 46.004076 170.988063 
L 49.029997 170.299244 
L 52.055918 169.413619 
L 55.081839 168.331189 
L 58.10776 167.051954 
L 61.133681 165.575913 
L 64.159602 163.903067 
L 67.185524 162.033415 
L 70.211445 159.966958 
L 73.237366 157.703695 
L 76.263287 155.243627 
L 79.289208 152.586754 
L 82.315129 149.733075 
L 85.34105 146.68259 
L 88.366971 143.435301 
L 91.392892 139.991205 
L 94.418813 136.350305 
L 97.444734 132.512598 
L 100.470656 128.478087 
L 103.496577 124.24677 
L 106.522498 119.818647 
L 109.548419 115.193719 
L 112.57434 110.371986 
L 115.600261 105.353447 
L 118.626182 100.138103 
L 121.652103 94.725953 
L 124.678024 89.116998 
L 127.703945 83.311237 
L 130.729866 77.308671 
L 133.755788 71.109299 
L 136.781709 64.713122 
L 139.80763 58.12014 
L 142.833551 51.330352 
L 145.859472 44.343759 
L 148.885393 37.16036 
L 151.911314 29.780156 
L 154.937235 22.203146 
L 157.963156 14.429331 
L 160.989077 6.458711 
L 163.752429 -1 
" clip-path="url(#pe8be8353d7)" style="fill: none; stroke-dasharray: 5,2.5; stroke-dashoffset: 0; stroke: #000000; stroke-width: 0.5"/>
   </g>
   <g id="patch_3">
    <path d="M 31.926313 171.873687 
L 31.926313 24.269603 
" style="fill: none; stroke: #000000; stroke-width: 0.8; stroke-linejoin: miter; stroke-linecap: square"/>
   </g>
   <g id="patch_4">
    <path d="M 36.926313 176.873687 
L 279 176.873687 
" style="fill: none; stroke: #000000; stroke-width: 0.8; stroke-linejoin: miter; stroke-linecap: square"/>
   </g>
   <g id="text_3">
    <!-- Triode -->
    <g style="fill: #0000cc" transform="translate(75.792775 39.030012) scale(0.16 -0.16)">
     <defs>
      <path id="HFBR17-54" d="M 192 4437 
L 192 4096 
L 2016 4096 
L 2016 0 
L 2464 0 
L 2464 4096 
L 4288 4096 
L 4288 4437 
L 192 4437 
z
" transform="scale(0.015625)"/>
      <path id="HFBR17-72" d="M 800 2224 
L 794 2224 
L 794 3033 
L 410 3033 
L 410 0 
L 813 0 
L 813 1465 
C 813 1562 813 1658 826 1754 
C 915 2301 1389 2706 2010 2706 
L 2010 3072 
C 1600 3072 1222 2873 979 2545 
C 909 2449 832 2339 800 2224 
z
" transform="scale(0.015625)"/>
      <path id="HFBR17-69" d="M 410 4480 
L 410 4075 
L 813 4075 
L 813 4480 
L 410 4480 
z
M 410 3033 
L 410 0 
L 813 0 
L 813 3033 
L 410 3033 
z
" transform="scale(0.015625)"/>
      <path id="HFBR17-6f" d="M 685 2693 
C 115 2127 51 1144 544 508 
C 614 411 698 328 794 257 
C 1030 64 1376 -77 1779 -32 
C 2419 45 2861 566 2995 1112 
C 3174 1877 2797 2731 2093 3001 
C 1542 3226 992 3001 685 2693 
z
M 2285 2519 
C 2592 2242 2650 1799 2624 1407 
C 2605 1105 2522 790 2310 565 
C 1965 192 1325 192 954 552 
C 762 758 646 1053 627 1407 
C 595 1927 723 2480 1235 2686 
C 1613 2853 2048 2731 2285 2519 
z
" transform="scale(0.015625)"/>
      <path id="HFBR17-64" d="M 2278 4460 
L 2278 2648 
C 2157 2783 2035 2911 1869 2988 
C 1299 3226 749 2918 467 2410 
C 141 1806 179 1009 570 443 
C 845 51 1299 -141 1779 32 
C 1965 103 2189 289 2266 456 
L 2272 456 
L 2272 0 
L 2682 0 
L 2682 4460 
L 2278 4460 
z
M 2253 2397 
C 2285 2339 2272 2262 2272 2198 
L 2272 874 
C 2272 726 2266 713 2182 598 
C 2067 424 1888 302 1677 283 
C 1370 257 1056 405 877 656 
C 774 803 717 983 685 1163 
C 672 1234 672 1298 666 1369 
C 627 1793 717 2294 1088 2564 
C 1152 2609 1222 2641 1293 2673 
C 1664 2815 2074 2776 2253 2397 
z
" transform="scale(0.015625)"/>
      <path id="HFBR17-65" d="M 2675 700 
C 2528 591 2483 533 2298 436 
C 1907 224 1446 224 1114 459 
C 794 689 608 1065 608 1600 
L 2720 1600 
C 2720 2075 2611 2487 2342 2776 
C 2048 3065 1587 3155 1197 3033 
C 1050 2988 915 2911 794 2814 
C 390 2487 218 1966 224 1458 
C 237 790 691 122 1363 -20 
C 1715 -91 2086 -13 2400 147 
C 2458 179 2669 295 2694 353 
C 2714 385 2675 700 2675 700 
z
M 2381 1850 
L 640 1850 
C 717 2319 1101 2814 1619 2756 
C 2042 2718 2266 2416 2349 2037 
C 2362 1972 2368 1915 2381 1850 
z
" transform="scale(0.015625)"/>
     </defs>
     <use xlink:href="#HFBR17-54" transform="scale(0.996264)"/>
     <use xlink:href="#HFBR17-72" transform="translate(61.020897 0) scale(0.996264)"/>
     <use xlink:href="#HFBR17-69" transform="translate(92.984256 0) scale(0.996264)"/>
     <use xlink:href="#HFBR17-6f" transform="translate(112.079215 0) scale(0.996264)"/>
     <use xlink:href="#HFBR17-64" transform="translate(162.722432 0) scale(0.996264)"/>
     <use xlink:href="#HFBR17-65" transform="translate(210.874929 0) scale(0.996264)"/>
    </g>
   </g>
   <g id="text_4">
    <!-- Saturation -->
    <g style="fill: #0000cc" transform="translate(167.852056 39.030012) scale(0.16 -0.16)">
     <defs>
      <path id="HFBR17-53" d="M 326 833 
C 314 729 288 619 275 515 
C 262 418 230 391 314 340 
C 531 217 717 132 986 48 
C 1587 -128 2278 -128 2803 265 
C 2886 329 2963 399 3034 482 
C 3194 697 3341 958 3302 1314 
C 3258 1771 2950 2152 2534 2343 
C 1965 2597 1037 2597 781 3160 
C 582 3596 934 3979 1331 4120 
C 1722 4268 2234 4210 2566 4056 
C 2720 3985 2848 3882 2989 3792 
C 3002 3902 3027 4005 3046 4114 
C 3059 4184 3078 4249 3002 4274 
L 2880 4339 
C 2707 4416 2528 4474 2342 4512 
C 1766 4621 1101 4557 666 4127 
C 448 3908 262 3612 339 3169 
C 429 2713 787 2424 1158 2282 
C 1376 2199 1619 2154 1850 2096 
C 1984 2070 2125 2038 2259 1993 
C 2605 1864 2906 1607 2906 1132 
C 2867 723 2509 424 2131 333 
C 1645 209 1069 385 736 560 
C 589 638 461 742 326 833 
z
" transform="scale(0.015625)"/>
      <path id="HFBR17-61" d="M 506 2497 
C 614 2551 704 2630 813 2683 
C 986 2762 1165 2816 1357 2816 
C 1446 2822 1549 2835 1638 2816 
C 1798 2790 1939 2693 2035 2557 
C 2131 2401 2170 2265 2170 2014 
L 2170 1729 
C 1862 1729 1555 1703 1261 1625 
C 890 1541 486 1352 352 1014 
C 218 690 358 261 646 66 
C 787 -32 954 -32 1120 -19 
C 1389 0 1658 65 1888 208 
C 1997 272 2106 357 2170 467 
L 2176 467 
L 2176 13 
L 2579 13 
L 2579 1721 
C 2579 1908 2598 2109 2560 2297 
C 2522 2555 2362 2769 2176 2918 
C 1958 3086 1709 3143 1376 3118 
C 1069 3118 832 3040 602 2929 
C 570 2916 506 2895 486 2857 
C 467 2830 480 2785 480 2752 
C 493 2667 499 2582 506 2497 
z
M 2170 1536 
L 2170 1048 
C 2170 900 2176 765 2093 637 
C 2022 534 1926 463 1824 412 
C 1459 225 902 283 742 592 
C 614 816 749 1080 934 1228 
C 1210 1440 1747 1536 2170 1536 
z
" transform="scale(0.015625)"/>
      <path id="HFBR17-74" d="M 691 3872 
L 691 3009 
L 70 3009 
L 70 2688 
L 685 2688 
L 685 961 
C 685 677 666 335 851 97 
C 960 -45 1107 -83 1331 -64 
C 1517 -64 1702 -25 1875 42 
C 1933 68 2144 161 2170 207 
C 2182 233 2099 518 2099 518 
L 1946 401 
C 1747 278 1350 149 1184 382 
C 1037 582 1075 880 1075 1112 
L 1075 2688 
L 2067 2688 
L 2067 3009 
L 1075 3009 
L 1075 3872 
L 691 3872 
z
" transform="scale(0.015625)"/>
      <path id="HFBR17-75" d="M 410 3008 
L 410 830 
C 410 643 416 457 493 283 
C 614 33 870 -64 1133 -64 
C 1485 -64 1837 52 2093 303 
C 2163 373 2227 444 2272 534 
L 2278 534 
L 2278 -25 
L 2682 -25 
L 2682 3008 
L 2272 3008 
L 2272 1466 
C 2272 1196 2310 900 2170 656 
C 2067 476 1888 335 1690 271 
C 1555 232 1414 232 1274 245 
C 1139 258 992 271 902 386 
C 774 541 819 907 819 1132 
L 819 3008 
L 410 3008 
z
" transform="scale(0.015625)"/>
      <path id="HFBR17-6e" d="M 806 2386 
L 800 2386 
L 800 3033 
L 410 3033 
L 410 0 
L 819 0 
L 819 1404 
C 819 1718 800 2040 941 2334 
C 1011 2482 1120 2610 1267 2687 
C 1389 2745 1517 2745 1651 2732 
C 1843 2732 2029 2681 2150 2520 
C 2266 2372 2272 2180 2272 2000 
L 2272 0 
L 2682 0 
L 2682 1719 
C 2682 2040 2714 2392 2560 2681 
C 2438 2912 2202 3021 1952 3053 
C 1824 3072 1690 3072 1562 3047 
C 1229 2976 922 2707 806 2386 
z
" transform="scale(0.015625)"/>
     </defs>
     <use xlink:href="#HFBR17-53" transform="scale(0.996264)"/>
     <use xlink:href="#HFBR17-61" transform="translate(56.454753 0) scale(0.996264)"/>
     <use xlink:href="#HFBR17-74" transform="translate(102.946835 0) scale(0.996264)"/>
     <use xlink:href="#HFBR17-75" transform="translate(139.061223 0) scale(0.996264)"/>
     <use xlink:href="#HFBR17-72" transform="translate(187.21372 0) scale(0.996264)"/>
     <use xlink:href="#HFBR17-61" transform="translate(219.177079 0) scale(0.996264)"/>
     <use xlink:href="#HFBR17-74" transform="translate(265.669161 0) scale(0.996264)"/>
     <use xlink:href="#HFBR17-69" transform="translate(301.783549 0) scale(0.996264)"/>
     <use xlink:href="#HFBR17-6f" transform="translate(320.878508 0) scale(0.996264)"/>
     <use xlink:href="#HFBR17-6e" transform="translate(371.521726 0) scale(0.996264)"/>
    </g>
   </g>
   <g id="text_5">
    <!-- NMOS $i_{D}$ vs. $v_{DS}$ Characteristics -->
    <g style="fill: #aa0000" transform="translate(45.083697 18.269603) scale(0.16 -0.16)">
     <defs>
      <path id="HFBR17-4e" d="M 525 4454 
L 525 0 
L 922 0 
L 922 4100 
L 928 4100 
L 2547 1161 
C 2765 773 2976 380 3200 0 
C 3373 -39 3622 0 3821 0 
L 3821 4454 
L 3424 4454 
L 3424 354 
L 1811 3268 
C 1587 3661 1382 4074 1146 4454 
C 973 4493 723 4454 525 4454 
z
" transform="scale(0.015625)"/>
      <path id="HFBR17-4d" d="M 538 4454 
L 538 0 
L 934 0 
L 934 4049 
L 941 4049 
C 966 3940 1056 3721 1082 3650 
L 1363 2943 
C 1638 2269 2464 263 2502 161 
C 2522 90 2554 77 2637 77 
L 2810 77 
C 2835 77 2867 71 2899 77 
C 2931 84 2938 116 2950 141 
C 2970 199 2995 251 3021 308 
C 3315 1028 4480 3875 4525 4049 
L 4531 4049 
L 4531 0 
L 4928 0 
L 4928 4454 
C 4736 4454 4506 4486 4339 4454 
L 4294 4358 
C 3770 3071 3232 1801 2733 488 
C 2624 779 2509 1061 2394 1345 
C 1965 2374 1568 3437 1120 4454 
C 960 4493 723 4454 538 4454 
z
" transform="scale(0.015625)"/>
      <path id="HFBR17-4f" d="M 922 3843 
C 160 2982 115 1594 845 701 
C 1101 386 1440 135 1862 6 
C 2528 -206 3181 6 3603 315 
C 4326 842 4634 1774 4499 2641 
C 4358 3528 3699 4319 2803 4499 
C 1984 4666 1299 4280 922 3843 
z
M 3514 3772 
C 3949 3348 4109 2744 4077 2146 
C 4032 1292 3597 598 2938 353 
C 2323 103 1664 360 1286 784 
C 992 1112 806 1600 774 2146 
C 736 2808 941 3503 1498 3907 
C 1600 3978 1715 4042 1830 4094 
C 2458 4344 3149 4139 3514 3772 
z
" transform="scale(0.015625)"/>
      <path id="HFBR17-76" d="M 45 3040 
C 77 2912 269 2405 282 2373 
C 346 2194 1107 39 1126 19 
C 1146 -13 1203 0 1235 0 
L 1459 0 
C 1542 0 1594 -19 1613 58 
C 1818 597 2566 2733 2675 3040 
L 2278 3040 
C 1971 2175 1658 1308 1370 423 
L 704 2317 
C 608 2547 550 2809 442 3021 
C 326 3040 179 3040 45 3040 
z
" transform="scale(0.015625)"/>
      <path id="HFBR17-73" d="M 198 617 
C 186 527 166 444 154 354 
C 141 283 122 251 186 219 
C 448 65 762 -19 1133 -51 
C 1549 -90 2074 7 2278 418 
C 2336 534 2368 662 2374 791 
C 2400 1253 2035 1549 1722 1658 
C 1370 1793 890 1748 646 2018 
C 518 2166 512 2385 634 2539 
C 890 2899 1715 2744 2042 2584 
C 2093 2558 2138 2526 2195 2513 
L 2253 2860 
C 1952 2995 1690 3072 1274 3072 
C 915 3072 589 2989 384 2783 
C 179 2571 109 2217 230 1948 
C 346 1690 589 1523 851 1440 
C 1229 1305 1658 1369 1907 1061 
C 2048 881 2022 611 1862 450 
C 1555 167 902 270 544 424 
C 422 476 314 553 198 617 
z
" transform="scale(0.015625)"/>
      <path id="HFBR17-2e" d="M 634 501 
L 634 0 
L 1133 0 
L 1133 501 
L 634 501 
z
" transform="scale(0.015625)"/>
      <path id="HFBR17-43" d="M 3872 696 
C 3744 631 3629 541 3501 477 
C 3200 323 2816 265 2400 303 
C 2029 355 1722 535 1498 760 
C 781 1482 730 2750 1363 3542 
C 1632 3896 2042 4160 2643 4160 
C 2886 4160 3136 4115 3360 4025 
C 3494 3966 3622 3889 3750 3825 
L 3827 4276 
C 3686 4331 3539 4388 3392 4422 
C 3034 4520 2490 4520 2118 4430 
C 1466 4283 992 3829 723 3304 
C 352 2561 397 1633 845 934 
C 960 749 1107 583 1274 441 
C 1658 108 2131 -84 2790 -32 
C 3187 -32 3418 33 3725 205 
C 3757 224 3878 289 3898 316 
C 3910 348 3878 610 3872 696 
z
" transform="scale(0.015625)"/>
      <path id="HFBR17-68" d="M 410 4460 
L 410 0 
L 819 0 
L 819 1407 
C 819 1722 800 2044 941 2339 
C 1011 2487 1120 2616 1267 2693 
C 1389 2751 1517 2751 1651 2738 
C 1843 2738 2029 2687 2150 2525 
C 2266 2377 2272 2185 2272 2004 
L 2272 0 
L 2682 0 
L 2682 1742 
C 2682 2063 2714 2416 2554 2706 
C 2426 2924 2202 3027 1965 3059 
C 1837 3072 1709 3072 1581 3053 
C 1350 3009 1152 2882 998 2710 
C 928 2627 845 2526 819 2417 
L 813 2417 
L 813 4460 
L 410 4460 
z
" transform="scale(0.015625)"/>
      <path id="HFBR17-63" d="M 2714 720 
C 2592 630 2483 533 2349 456 
C 2048 296 1587 219 1242 379 
C 742 636 608 1260 678 1774 
C 691 1877 710 1979 742 2076 
C 883 2494 1235 2821 1811 2757 
C 2118 2731 2272 2680 2515 2545 
C 2560 2519 2598 2487 2650 2474 
C 2656 2551 2675 2635 2688 2712 
C 2707 2815 2707 2828 2611 2873 
C 2541 2905 2470 2943 2394 2969 
C 2099 3098 1613 3136 1280 3040 
C 826 2911 486 2519 339 2082 
C 269 1883 250 1671 250 1459 
C 256 784 717 122 1389 -13 
C 1760 -90 2189 19 2445 154 
C 2509 186 2701 302 2733 360 
C 2752 392 2714 720 2714 720 
z
" transform="scale(0.015625)"/>
     </defs>
     <use xlink:href="#HFBR17-4e" transform="scale(0.996264)"/>
     <use xlink:href="#HFBR17-4d" transform="translate(67.662753 0) scale(0.996264)"/>
     <use xlink:href="#HFBR17-4f" transform="translate(152.760051 0) scale(0.996264)"/>
     <use xlink:href="#HFBR17-53" transform="translate(228.309762 0) scale(0.996264)"/>
     <use xlink:href="#HFBRMI10-69" transform="translate(316.229727 0) scale(0.996264)"/>
     <use xlink:href="#HFBRMI10-44" transform="translate(338.645515 -14.943915) scale(0.697382)"/>
     <use xlink:href="#HFBR17-76" transform="translate(427.793069 0) scale(0.996264)"/>
     <use xlink:href="#HFBR17-73" transform="translate(470.134107 0) scale(0.996264)"/>
     <use xlink:href="#HFBR17-2e" transform="translate(508.573136 0) scale(0.996264)"/>
     <use xlink:href="#HFBRMI10-76" transform="translate(578.477377 0) scale(0.996264)"/>
     <use xlink:href="#HFBRMI10-44" transform="translate(624.139153 -14.943915) scale(0.697382)"/>
     <use xlink:href="#HFBRMI10-53" transform="translate(681.323364 -14.943915) scale(0.697382)"/>
     <use xlink:href="#HFBR17-43" transform="translate(760.192765 0) scale(0.996264)"/>
     <use xlink:href="#HFBR17-68" transform="translate(825.364797 0) scale(0.996264)"/>
     <use xlink:href="#HFBR17-61" transform="translate(873.517294 0) scale(0.996264)"/>
     <use xlink:href="#HFBR17-72" transform="translate(917.103647 0) scale(0.996264)"/>
     <use xlink:href="#HFBR17-61" transform="translate(949.067006 0) scale(0.996264)"/>
     <use xlink:href="#HFBR17-63" transform="translate(995.559088 0) scale(0.996264)"/>
     <use xlink:href="#HFBR17-74" transform="translate(1040.390756 0) scale(0.996264)"/>
     <use xlink:href="#HFBR17-65" transform="translate(1076.505144 0) scale(0.996264)"/>
     <use xlink:href="#HFBR17-72" transform="translate(1121.336811 0) scale(0.996264)"/>
     <use xlink:href="#HFBR17-69" transform="translate(1153.30017 0) scale(0.996264)"/>
     <use xlink:href="#HFBR17-73" transform="translate(1172.395129 0) scale(0.996264)"/>
     <use xlink:href="#HFBR17-74" transform="translate(1210.834158 0) scale(0.996264)"/>
     <use xlink:href="#HFBR17-69" transform="translate(1246.948546 0) scale(0.996264)"/>
     <use xlink:href="#HFBR17-63" transform="translate(1266.043505 0) scale(0.996264)"/>
     <use xlink:href="#HFBR17-73" transform="translate(1310.875173 0) scale(0.996264)"/>
    </g>
   </g>
  </g>
  <g id="axes_2">
   <g id="patch_5">
    <path d="M 319.526313 171.873687 
L 561.6 171.873687 
L 561.6 24.269603 
L 319.526313 24.269603 
z
" style="fill: #ffffff"/>
   </g>
   <g id="matplotlib.axis_3">
    <g id="xtick_6">
     <g id="line2d_16">
      <g>
       <use xlink:href="#m3a1a75bb08" x="319.526313" y="176.873687" style="stroke: #000000; stroke-width: 0.8"/>
      </g>
     </g>
    </g>
    <g id="xtick_7">
     <g id="line2d_17">
      <g>
       <use xlink:href="#m3a1a75bb08" x="388.690223" y="176.873687" style="stroke: #000000; stroke-width: 0.8"/>
      </g>
     </g>
    </g>
    <g id="xtick_8">
     <g id="line2d_18">
      <g>
       <use xlink:href="#m3a1a75bb08" x="457.854134" y="176.873687" style="stroke: #000000; stroke-width: 0.8"/>
      </g>
     </g>
    </g>
    <g id="xtick_9">
     <g id="line2d_19">
      <g>
       <use xlink:href="#m3a1a75bb08" x="527.018045" y="176.873687" style="stroke: #000000; stroke-width: 0.8"/>
      </g>
     </g>
    </g>
    <g id="text_6">
     <!-- $v_{GS}$ -->
     <g transform="translate(429.250461 198.943291) scale(0.16 -0.16)">
      <defs>
       <path id="HFBRMI10-47" d="M 4006 2132 
L 2701 2132 
L 2598 2119 
C 2560 2023 2541 1907 2522 1792 
L 3526 1792 
C 3494 1689 3475 1580 3456 1471 
C 3411 1260 3258 529 3251 509 
C 3226 464 3149 452 3104 439 
C 2598 291 1926 214 1485 541 
C 1318 657 1210 791 1107 984 
C 902 1369 890 1837 979 2252 
C 1178 3111 1837 3969 2739 4148 
C 3117 4225 3571 4148 3834 4020 
C 3974 3950 4090 3847 4218 3757 
L 4390 4205 
C 4230 4292 4064 4372 3891 4425 
C 3514 4544 3002 4544 2598 4441 
C 1638 4198 870 3391 589 2454 
C 442 1981 422 1449 608 981 
C 704 711 877 488 1082 315 
C 1587 -96 2266 -96 2874 40 
C 3002 72 3539 213 3610 284 
C 3635 316 3635 387 3648 432 
L 4006 2132 
z
" transform="scale(0.015625)"/>
      </defs>
      <use xlink:href="#HFBRMI10-76" transform="scale(0.996264)"/>
      <use xlink:href="#HFBRMI10-47" transform="translate(45.661776 -14.943915) scale(0.697382)"/>
      <use xlink:href="#HFBRMI10-53" transform="translate(97.615631 -14.943915) scale(0.697382)"/>
     </g>
    </g>
   </g>
   <g id="matplotlib.axis_4">
    <g id="ytick_5">
     <g id="line2d_20">
      <g>
       <use xlink:href="#m98103a8a0c" x="314.526313" y="170.426589" style="stroke: #000000; stroke-width: 0.8"/>
      </g>
     </g>
    </g>
    <g id="ytick_6">
     <g id="line2d_21">
      <g>
       <use xlink:href="#m98103a8a0c" x="314.526313" y="134.249117" style="stroke: #000000; stroke-width: 0.8"/>
      </g>
     </g>
    </g>
    <g id="ytick_7">
     <g id="line2d_22">
      <g>
       <use xlink:href="#m98103a8a0c" x="314.526313" y="98.071645" style="stroke: #000000; stroke-width: 0.8"/>
      </g>
     </g>
    </g>
    <g id="ytick_8">
     <g id="line2d_23">
      <g>
       <use xlink:href="#m98103a8a0c" x="314.526313" y="61.894174" style="stroke: #000000; stroke-width: 0.8"/>
      </g>
     </g>
    </g>
    <g id="ytick_9">
     <g id="line2d_24">
      <g>
       <use xlink:href="#m98103a8a0c" x="314.526313" y="25.716702" style="stroke: #000000; stroke-width: 0.8"/>
      </g>
     </g>
    </g>
    <g id="text_7">
     <!-- $i_D$ -->
     <g transform="translate(300.869603 104.276914) rotate(-90) scale(0.16 -0.16)">
      <use xlink:href="#HFBRMI10-69" transform="scale(0.996264)"/>
      <use xlink:href="#HFBRMI10-44" transform="translate(22.415788 -14.943915) scale(0.697382)"/>
     </g>
    </g>
   </g>
   <g id="line2d_25">
    <path d="M 319.526313 170.426589 
L 322.984508 170.426589 
L 326.442704 170.426589 
L 329.900899 170.426589 
L 333.359095 170.426589 
L 336.81729 170.426589 
L 340.275486 170.426589 
L 343.733681 170.426589 
L 347.191877 170.426589 
L 350.650072 170.426589 
L 354.108268 170.426589 
L 357.566463 170.426589 
L 361.024659 170.426589 
L 364.482855 170.426589 
L 367.94105 170.426589 
L 371.399246 170.426589 
L 374.857441 170.354234 
L 378.315637 170.137169 
L 381.773832 169.775394 
L 385.232028 169.268909 
L 388.690223 168.617715 
L 392.148419 167.821811 
L 395.606614 166.881196 
L 399.06481 165.795872 
L 402.523005 164.565838 
L 405.981201 163.191094 
L 409.439396 161.67164 
L 412.897592 160.007477 
L 416.355788 158.198603 
L 419.813983 156.24502 
L 423.272179 154.146726 
L 426.730374 151.903723 
L 430.18857 149.51601 
L 433.646765 146.983587 
L 437.104961 144.306454 
L 440.563156 141.484611 
L 444.021352 138.518059 
L 447.479547 135.406796 
L 450.937743 132.150824 
L 454.395938 128.750141 
L 457.854134 125.204749 
L 461.312329 121.514647 
L 464.770525 117.679835 
L 468.228721 113.700313 
L 471.686916 109.576081 
L 475.145112 105.30714 
L 478.603307 100.893488 
L 482.061503 96.335127 
L 485.519698 91.632056 
L 488.977894 86.784274 
L 492.436089 81.791783 
L 495.894285 76.654582 
L 499.35248 71.372671 
L 502.810676 65.946051 
L 506.268871 60.37472 
L 509.727067 54.65868 
L 513.185263 48.797929 
L 516.643458 42.792469 
L 520.101654 36.642299 
L 523.559849 30.347419 
L 527.018045 23.907829 
L 530.47624 17.323529 
L 533.934436 10.594519 
L 537.392631 3.7208 
L 539.718714 -1 
" clip-path="url(#p10805ac7a5)" style="fill: none; stroke: #aa0000; stroke-linecap: square"/>
   </g>
   <g id="line2d_26">
    <path d="M 371.399246 171.873687 
L 371.399246 24.269603 
" clip-path="url(#p10805ac7a5)" style="fill: none; stroke-dasharray: 5,2.5; stroke-dashoffset: 0; stroke: #000000; stroke-width: 0.5"/>
   </g>
   <g id="patch_6">
    <path d="M 314.526313 171.873687 
L 314.526313 24.269603 
" style="fill: none; stroke: #000000; stroke-width: 0.8; stroke-linejoin: miter; stroke-linecap: square"/>
   </g>
   <g id="patch_7">
    <path d="M 319.526313 176.873687 
L 561.6 176.873687 
" style="fill: none; stroke: #000000; stroke-width: 0.8; stroke-linejoin: miter; stroke-linecap: square"/>
   </g>
   <g id="text_8">
    <!-- $V_{t}$ -->
    <g transform="translate(374.857441 155.9556) scale(0.14 -0.14)">
     <defs>
      <path id="HFBRMI10-56" d="M 371 4416 
L 1235 -64 
C 1402 -64 1568 -64 1722 -64 
L 1786 19 
L 4499 4416 
C 4352 4416 4205 4416 4077 4403 
L 4013 4320 
L 2246 1447 
L 1830 761 
L 1606 376 
C 1581 473 1574 575 1555 678 
C 1472 1172 1056 3320 1056 3332 
L 864 4314 
C 864 4339 858 4384 838 4403 
C 819 4422 749 4416 717 4416 
L 371 4416 
z
" transform="scale(0.015625)"/>
      <path id="HFBRMI10-74" d="M 762 3009 
L 698 2688 
L 1312 2688 
C 1261 2508 1235 2323 1197 2144 
L 934 908 
C 877 666 806 313 928 102 
C 1011 -32 1146 -64 1293 -64 
C 1530 -64 1766 -7 1984 77 
C 2042 96 2240 179 2272 218 
C 2285 236 2278 275 2278 300 
C 2278 377 2266 448 2266 525 
C 2214 499 2170 461 2118 428 
C 2054 390 1990 358 1920 332 
C 1811 294 1587 230 1453 275 
C 1293 326 1274 518 1280 666 
C 1293 813 1587 2182 1683 2598 
C 1702 2669 1696 2688 1786 2688 
L 2694 2688 
L 2758 3009 
L 1766 3009 
L 1952 3872 
C 1824 3872 1683 3872 1574 3852 
C 1478 3605 1472 3268 1376 3021 
L 1325 3009 
L 762 3009 
z
" transform="scale(0.015625)"/>
     </defs>
     <use xlink:href="#HFBRMI10-56" transform="scale(0.996264)"/>
     <use xlink:href="#HFBRMI10-74" transform="translate(49.812623 -14.943915) scale(0.697382)"/>
    </g>
   </g>
   <g id="text_9">
    <!-- NMOS $i_{D}$ vs. $v_{GS}$ Characteristics -->
    <g style="fill: #aa0000" transform="translate(328.102118 18.269603) scale(0.16 -0.16)">
     <use xlink:href="#HFBR17-4e" transform="scale(0.996264)"/>
     <use xlink:href="#HFBR17-4d" transform="translate(67.662753 0) scale(0.996264)"/>
     <use xlink:href="#HFBR17-4f" transform="translate(152.760051 0) scale(0.996264)"/>
     <use xlink:href="#HFBR17-53" transform="translate(228.309762 0) scale(0.996264)"/>
     <use xlink:href="#HFBRMI10-69" transform="translate(316.229727 0) scale(0.996264)"/>
     <use xlink:href="#HFBRMI10-44" transform="translate(338.645515 -14.943915) scale(0.697382)"/>
     <use xlink:href="#HFBR17-76" transform="translate(427.793069 0) scale(0.996264)"/>
     <use xlink:href="#HFBR17-73" transform="translate(470.134107 0) scale(0.996264)"/>
     <use xlink:href="#HFBR17-2e" transform="translate(508.573136 0) scale(0.996264)"/>
     <use xlink:href="#HFBRMI10-76" transform="translate(578.477377 0) scale(0.996264)"/>
     <use xlink:href="#HFBRMI10-47" transform="translate(624.139153 -14.943915) scale(0.697382)"/>
     <use xlink:href="#HFBRMI10-53" transform="translate(676.093008 -14.943915) scale(0.697382)"/>
     <use xlink:href="#HFBR17-43" transform="translate(754.962409 0) scale(0.996264)"/>
     <use xlink:href="#HFBR17-68" transform="translate(820.134442 0) scale(0.996264)"/>
     <use xlink:href="#HFBR17-61" transform="translate(868.286939 0) scale(0.996264)"/>
     <use xlink:href="#HFBR17-72" transform="translate(911.873291 0) scale(0.996264)"/>
     <use xlink:href="#HFBR17-61" transform="translate(943.83665 0) scale(0.996264)"/>
     <use xlink:href="#HFBR17-63" transform="translate(990.328732 0) scale(0.996264)"/>
     <use xlink:href="#HFBR17-74" transform="translate(1035.1604 0) scale(0.996264)"/>
     <use xlink:href="#HFBR17-65" transform="translate(1071.274788 0) scale(0.996264)"/>
     <use xlink:href="#HFBR17-72" transform="translate(1116.106456 0) scale(0.996264)"/>
     <use xlink:href="#HFBR17-69" transform="translate(1148.069814 0) scale(0.996264)"/>
     <use xlink:href="#HFBR17-73" transform="translate(1167.164773 0) scale(0.996264)"/>
     <use xlink:href="#HFBR17-74" transform="translate(1205.603803 0) scale(0.996264)"/>
     <use xlink:href="#HFBR17-69" transform="translate(1241.718191 0) scale(0.996264)"/>
     <use xlink:href="#HFBR17-63" transform="translate(1260.813149 0) scale(0.996264)"/>
     <use xlink:href="#HFBR17-73" transform="translate(1305.644817 0) scale(0.996264)"/>
    </g>
   </g>
  </g>
 </g>
 <defs>
  <clipPath id="pe8be8353d7">
   <rect x="36.926313" y="24.269603" width="242.073687" height="147.604084"/>
  </clipPath>
  <clipPath id="p10805ac7a5">
   <rect x="319.526313" y="24.269603" width="242.073687" height="147.604084"/>
  </clipPath>
 </defs>
</svg>
