<?xml version="1.0" encoding="utf-8" standalone="no"?>
<!DOCTYPE svg PUBLIC "-//W3C//DTD SVG 1.1//EN"
  "http://www.w3.org/Graphics/SVG/1.1/DTD/svg11.dtd">
<svg xmlns:xlink="http://www.w3.org/1999/xlink" width="712.8pt" height="209.843033pt" viewBox="0 0 712.8 209.843033" xmlns="http://www.w3.org/2000/svg" version="1.1">
 <metadata>
  <rdf:RDF xmlns:dc="http://purl.org/dc/elements/1.1/" xmlns:cc="http://creativecommons.org/ns#" xmlns:rdf="http://www.w3.org/1999/02/22-rdf-syntax-ns#">
   <cc:Work>
    <dc:type rdf:resource="http://purl.org/dc/dcmitype/StillImage"/>
    <dc:date>2025-07-08T20:32:02.039874</dc:date>
    <dc:format>image/svg+xml</dc:format>
    <dc:creator>
     <cc:Agent>
      <dc:title>Matplotlib v3.10.3, https://matplotlib.org/</dc:title>
     </cc:Agent>
    </dc:creator>
   </cc:Work>
  </rdf:RDF>
 </metadata>
 <defs>
  <style type="text/css">*{stroke-linejoin: round; stroke-linecap: butt}</style>
 </defs>
 <g id="figure_1">
  <g id="patch_1">
   <path d="M 0 209.843033 
L 712.8 209.843033 
L 712.8 0 
L 0 0 
z
" style="fill: #ffffff"/>
  </g>
  <g id="axes_1">
   <g id="patch_2">
    <path d="M 51.405205 161.072267 
L 335.134645 161.072267 
L 335.134645 15.612925 
L 51.405205 15.612925 
z
" style="fill: #ffffff"/>
   </g>
   <g id="matplotlib.axis_1">
    <g id="xtick_1">
     <g id="line2d_1">
      <defs>
       <path id="m8a0f4317b8" d="M 0 0 
L 0 3.5 
" style="stroke: #000000; stroke-width: 0.8"/>
      </defs>
      <g>
       <use xlink:href="#m8a0f4317b8" x="64.301997" y="166.072267" style="stroke: #000000; stroke-width: 0.8"/>
      </g>
     </g>
     <g id="text_1">
      <!-- $\mathdefault{0}$ -->
      <g transform="translate(60.640762 182.758158) scale(0.14 -0.14)">
       <defs>
        <path id="HFBR17-30" d="M 947 4087 
C 762 3959 634 3785 538 3586 
C 307 3136 282 2609 282 2037 
C 282 1317 410 656 768 276 
C 1107 -77 1645 -167 2099 19 
C 2381 129 2586 366 2714 623 
C 2944 1080 2970 1626 2970 2191 
C 2970 2371 2963 2551 2944 2731 
C 2899 3162 2752 3637 2515 3901 
C 2125 4332 1427 4428 947 4087 
z
M 2234 3721 
C 2534 3400 2560 2783 2560 2198 
L 2560 1851 
C 2560 1555 2509 1170 2445 951 
C 2355 649 2208 431 1914 296 
C 1555 167 1184 289 979 572 
C 704 938 691 1587 691 2159 
C 691 2699 698 3297 960 3650 
C 1248 4036 1869 4100 2234 3721 
z
" transform="scale(0.015625)"/>
       </defs>
       <use xlink:href="#HFBR17-30" transform="scale(0.996264)"/>
      </g>
     </g>
    </g>
    <g id="xtick_2">
     <g id="line2d_2">
      <g>
       <use xlink:href="#m8a0f4317b8" x="150.280616" y="166.072267" style="stroke: #000000; stroke-width: 0.8"/>
      </g>
     </g>
     <g id="text_2">
      <!-- $\mathdefault{1}$ -->
      <g transform="translate(146.61938 182.758158) scale(0.14 -0.14)">
       <defs>
        <path id="HFBR17-31" d="M 621 3841 
L 621 3520 
C 973 3520 1216 3584 1498 3706 
L 1498 321 
L 659 321 
L 659 0 
L 2752 0 
L 2752 321 
L 1914 321 
L 1914 4288 
C 1760 4288 1786 4247 1664 4152 
C 1402 3950 1037 3841 621 3841 
z
" transform="scale(0.015625)"/>
       </defs>
       <use xlink:href="#HFBR17-31" transform="scale(0.996264)"/>
      </g>
     </g>
    </g>
    <g id="xtick_3">
     <g id="line2d_3">
      <g>
       <use xlink:href="#m8a0f4317b8" x="236.259234" y="166.072267" style="stroke: #000000; stroke-width: 0.8"/>
      </g>
     </g>
     <g id="text_3">
      <!-- $\mathdefault{2}$ -->
      <g transform="translate(232.597998 182.758158) scale(0.14 -0.14)">
       <defs>
        <path id="HFBR17-32" d="M 467 2942 
C 557 3302 710 3711 1075 3872 
C 1229 3936 1395 3949 1562 3936 
C 1875 3910 2182 3782 2374 3526 
C 2515 3333 2566 3096 2541 2866 
C 2464 2198 1811 1718 1389 1359 
C 1146 1154 454 500 454 500 
L 346 397 
C 288 340 282 340 282 224 
L 282 0 
L 2970 0 
L 2970 360 
L 653 360 
C 858 559 1709 1313 1824 1403 
C 2195 1706 2611 2008 2835 2446 
C 3085 2948 2976 3580 2554 3953 
C 2298 4179 1946 4288 1606 4288 
C 1293 4288 973 4224 723 4026 
C 531 3865 371 3628 282 3384 
C 262 3346 230 3282 237 3237 
C 243 3199 282 3167 301 3141 
C 352 3077 403 3000 467 2942 
z
" transform="scale(0.015625)"/>
       </defs>
       <use xlink:href="#HFBR17-32" transform="scale(0.996264)"/>
      </g>
     </g>
    </g>
    <g id="xtick_4">
     <g id="line2d_4">
      <g>
       <use xlink:href="#m8a0f4317b8" x="322.237852" y="166.072267" style="stroke: #000000; stroke-width: 0.8"/>
      </g>
     </g>
     <g id="text_4">
      <!-- $\mathdefault{3}$ -->
      <g transform="translate(318.576617 182.758158) scale(0.14 -0.14)">
       <defs>
        <path id="HFBR17-33" d="M 518 3246 
C 570 3323 608 3407 666 3484 
C 800 3664 986 3805 1197 3889 
C 1530 4024 2016 4024 2278 3726 
C 2509 3461 2413 3047 2202 2802 
C 2010 2576 1760 2466 1389 2466 
C 1280 2466 1178 2434 1069 2434 
L 1069 2112 
L 1510 2112 
C 1882 2112 2125 2055 2330 1836 
C 2682 1463 2650 801 2259 461 
C 2061 294 1786 242 1530 261 
C 1030 300 589 564 294 975 
C 262 911 262 821 250 750 
C 230 647 230 647 294 564 
C 480 313 845 82 1133 -2 
C 1645 -156 2240 -86 2637 306 
C 2714 384 2784 467 2842 557 
C 3078 930 3085 1418 2822 1778 
C 2714 1926 2573 2042 2413 2132 
C 2304 2196 2176 2260 2048 2273 
C 2419 2447 2765 2741 2829 3223 
C 2886 3672 2624 3948 2355 4108 
C 1939 4352 1395 4352 966 4139 
C 768 4043 589 3902 454 3728 
C 429 3696 333 3587 333 3535 
C 333 3503 358 3471 378 3445 
L 518 3246 
z
" transform="scale(0.015625)"/>
       </defs>
       <use xlink:href="#HFBR17-33" transform="scale(0.996264)"/>
      </g>
     </g>
    </g>
    <g id="text_5">
     <!-- $t$ (sec) -->
     <g transform="translate(172.758585 199.543541) scale(0.14 -0.14)">
      <defs>
       <path id="HFBRMI10-74" d="M 762 3009 
L 698 2688 
L 1312 2688 
C 1261 2508 1235 2323 1197 2144 
L 934 908 
C 877 666 806 313 928 102 
C 1011 -32 1146 -64 1293 -64 
C 1530 -64 1766 -7 1984 77 
C 2042 96 2240 179 2272 218 
C 2285 236 2278 275 2278 300 
C 2278 377 2266 448 2266 525 
C 2214 499 2170 461 2118 428 
C 2054 390 1990 358 1920 332 
C 1811 294 1587 230 1453 275 
C 1293 326 1274 518 1280 666 
C 1293 813 1587 2182 1683 2598 
C 1702 2669 1696 2688 1786 2688 
L 2694 2688 
L 2758 3009 
L 1766 3009 
L 1952 3872 
C 1824 3872 1683 3872 1574 3852 
C 1478 3605 1472 3268 1376 3021 
L 1325 3009 
L 762 3009 
z
" transform="scale(0.015625)"/>
       <path id="HFBR17-28" d="M 2189 -1408 
C 2138 -1350 2074 -1298 2016 -1247 
C 1965 -1202 1920 -1151 1875 -1099 
C 1235 -392 902 739 954 1941 
C 979 2596 1107 3264 1414 3856 
C 1555 4119 1798 4492 2016 4678 
C 2074 4730 2138 4781 2189 4839 
L 1978 4839 
C 1946 4839 1901 4845 1869 4833 
C 1792 4794 1600 4601 1574 4575 
C 960 3959 595 3027 544 1941 
C 512 1163 640 372 986 -322 
C 1139 -630 1344 -913 1587 -1157 
C 1651 -1221 1792 -1363 1869 -1401 
C 1901 -1414 1946 -1408 1978 -1408 
L 2189 -1408 
z
" transform="scale(0.015625)"/>
       <path id="HFBR17-73" d="M 198 617 
C 186 527 166 444 154 354 
C 141 283 122 251 186 219 
C 448 65 762 -19 1133 -51 
C 1549 -90 2074 7 2278 418 
C 2336 534 2368 662 2374 791 
C 2400 1253 2035 1549 1722 1658 
C 1370 1793 890 1748 646 2018 
C 518 2166 512 2385 634 2539 
C 890 2899 1715 2744 2042 2584 
C 2093 2558 2138 2526 2195 2513 
L 2253 2860 
C 1952 2995 1690 3072 1274 3072 
C 915 3072 589 2989 384 2783 
C 179 2571 109 2217 230 1948 
C 346 1690 589 1523 851 1440 
C 1229 1305 1658 1369 1907 1061 
C 2048 881 2022 611 1862 450 
C 1555 167 902 270 544 424 
C 422 476 314 553 198 617 
z
" transform="scale(0.015625)"/>
       <path id="HFBR17-65" d="M 2675 700 
C 2528 591 2483 533 2298 436 
C 1907 224 1446 224 1114 459 
C 794 689 608 1065 608 1600 
L 2720 1600 
C 2720 2075 2611 2487 2342 2776 
C 2048 3065 1587 3155 1197 3033 
C 1050 2988 915 2911 794 2814 
C 390 2487 218 1966 224 1458 
C 237 790 691 122 1363 -20 
C 1715 -91 2086 -13 2400 147 
C 2458 179 2669 295 2694 353 
C 2714 385 2675 700 2675 700 
z
M 2381 1850 
L 640 1850 
C 717 2319 1101 2814 1619 2756 
C 2042 2718 2266 2416 2349 2037 
C 2362 1972 2368 1915 2381 1850 
z
" transform="scale(0.015625)"/>
       <path id="HFBR17-63" d="M 2714 720 
C 2592 630 2483 533 2349 456 
C 2048 296 1587 219 1242 379 
C 742 636 608 1260 678 1774 
C 691 1877 710 1979 742 2076 
C 883 2494 1235 2821 1811 2757 
C 2118 2731 2272 2680 2515 2545 
C 2560 2519 2598 2487 2650 2474 
C 2656 2551 2675 2635 2688 2712 
C 2707 2815 2707 2828 2611 2873 
C 2541 2905 2470 2943 2394 2969 
C 2099 3098 1613 3136 1280 3040 
C 826 2911 486 2519 339 2082 
C 269 1883 250 1671 250 1459 
C 256 784 717 122 1389 -13 
C 1760 -90 2189 19 2445 154 
C 2509 186 2701 302 2733 360 
C 2752 392 2714 720 2714 720 
z
" transform="scale(0.015625)"/>
       <path id="HFBR17-29" d="M 320 4839 
C 371 4781 435 4730 493 4678 
C 544 4633 589 4582 634 4530 
C 1190 3888 1510 3014 1555 1941 
C 1587 1144 1466 315 1101 -405 
C 979 -656 819 -894 634 -1099 
C 589 -1151 544 -1202 493 -1247 
C 435 -1298 371 -1350 320 -1408 
L 531 -1408 
C 563 -1408 608 -1414 640 -1401 
C 717 -1363 909 -1170 934 -1144 
C 1549 -527 1914 405 1965 1491 
C 1997 2268 1869 3059 1523 3753 
C 1370 4061 1165 4344 922 4588 
C 858 4653 717 4794 640 4833 
C 608 4845 563 4839 531 4839 
L 320 4839 
z
" transform="scale(0.015625)"/>
      </defs>
      <use xlink:href="#HFBRMI10-74" transform="scale(0.996264)"/>
      <use xlink:href="#HFBR17-28" transform="translate(76.915212 0) scale(0.996264)"/>
      <use xlink:href="#HFBR17-73" transform="translate(115.93542 0) scale(0.996264)"/>
      <use xlink:href="#HFBR17-65" transform="translate(154.37445 0) scale(0.996264)"/>
      <use xlink:href="#HFBR17-63" transform="translate(199.206117 0) scale(0.996264)"/>
      <use xlink:href="#HFBR17-29" transform="translate(244.037785 0) scale(0.996264)"/>
     </g>
    </g>
   </g>
   <g id="matplotlib.axis_2">
    <g id="ytick_1">
     <g id="line2d_5">
      <defs>
       <path id="m1cefb8098c" d="M 0 0 
L -3.5 0 
" style="stroke: #000000; stroke-width: 0.8"/>
      </defs>
      <g>
       <use xlink:href="#m1cefb8098c" x="46.405205" y="154.559621" style="stroke: #000000; stroke-width: 0.8"/>
      </g>
     </g>
     <g id="text_6">
      <!-- $\mathdefault{0}$ -->
      <g transform="translate(32.082734 159.402567) scale(0.14 -0.14)">
       <use xlink:href="#HFBR17-30" transform="scale(0.996264)"/>
      </g>
     </g>
    </g>
    <g id="ytick_2">
     <g id="line2d_6">
      <g>
       <use xlink:href="#m1cefb8098c" x="46.405205" y="96.793839" style="stroke: #000000; stroke-width: 0.8"/>
      </g>
     </g>
     <g id="text_7">
      <!-- $\mathdefault{20}$ -->
      <g transform="translate(24.760264 101.636785) scale(0.14 -0.14)">
       <use xlink:href="#HFBR17-32" transform="scale(0.996264)"/>
       <use xlink:href="#HFBR17-30" transform="translate(50.643218 0) scale(0.996264)"/>
      </g>
     </g>
    </g>
    <g id="ytick_3">
     <g id="line2d_7">
      <g>
       <use xlink:href="#m1cefb8098c" x="46.405205" y="39.028057" style="stroke: #000000; stroke-width: 0.8"/>
      </g>
     </g>
     <g id="text_8">
      <!-- $\mathdefault{40}$ -->
      <g transform="translate(24.760264 43.871003) scale(0.14 -0.14)">
       <defs>
        <path id="HFBR17-34" d="M 134 1152 
L 1984 1152 
L 1984 0 
L 2387 0 
L 2387 1152 
L 3117 1152 
L 3117 1493 
L 2387 1493 
L 2387 4254 
L 2042 4254 
C 1926 4254 1894 4261 1843 4164 
C 1587 3745 237 1649 192 1591 
C 141 1500 134 1507 134 1372 
L 134 1152 
z
M 2003 3896 
L 2003 1493 
L 550 1493 
C 595 1583 659 1666 717 1756 
C 1037 2251 1798 3427 1958 3794 
C 1978 3826 1984 3864 2003 3896 
z
" transform="scale(0.015625)"/>
       </defs>
       <use xlink:href="#HFBR17-34" transform="scale(0.996264)"/>
       <use xlink:href="#HFBR17-30" transform="translate(50.643218 0) scale(0.996264)"/>
      </g>
     </g>
    </g>
    <g id="text_9">
     <!-- $v_{C}$ (volts) -->
     <g transform="translate(17.660772 117.253399) rotate(-90) scale(0.14 -0.14)">
      <defs>
       <path id="HFBRMI10-76" d="M 736 3040 
C 890 2016 1062 1017 1222 0 
C 1382 0 1549 0 1690 20 
L 1747 97 
L 3475 3040 
C 3341 3040 3206 3040 3085 3040 
L 3034 2976 
L 1549 435 
C 1434 1323 1280 2172 1146 3040 
L 736 3040 
z
" transform="scale(0.015625)"/>
       <path id="HFBRMI10-43" d="M 3603 667 
C 3546 641 3488 602 3430 570 
C 3123 413 2925 309 2483 270 
C 2240 270 1997 270 1766 353 
C 1568 429 1421 538 1286 685 
C 909 1120 864 1733 992 2276 
C 1197 3106 1843 3924 2758 4110 
C 3181 4193 3629 4091 3917 3943 
L 4147 3802 
L 4320 4250 
C 4173 4298 4032 4353 3885 4384 
C 3322 4512 2726 4512 2195 4282 
C 1965 4180 1754 4045 1562 3885 
C 800 3251 147 1990 646 870 
C 845 428 1229 102 1715 -19 
C 1933 -64 2150 -64 2368 -64 
C 2784 -64 3066 41 3386 197 
C 3424 217 3526 256 3546 288 
C 3565 321 3590 583 3603 667 
z
" transform="scale(0.015625)"/>
       <path id="HFBR17-76" d="M 45 3040 
C 77 2912 269 2405 282 2373 
C 346 2194 1107 39 1126 19 
C 1146 -13 1203 0 1235 0 
L 1459 0 
C 1542 0 1594 -19 1613 58 
C 1818 597 2566 2733 2675 3040 
L 2278 3040 
C 1971 2175 1658 1308 1370 423 
L 704 2317 
C 608 2547 550 2809 442 3021 
C 326 3040 179 3040 45 3040 
z
" transform="scale(0.015625)"/>
       <path id="HFBR17-6f" d="M 685 2693 
C 115 2127 51 1144 544 508 
C 614 411 698 328 794 257 
C 1030 64 1376 -77 1779 -32 
C 2419 45 2861 566 2995 1112 
C 3174 1877 2797 2731 2093 3001 
C 1542 3226 992 3001 685 2693 
z
M 2285 2519 
C 2592 2242 2650 1799 2624 1407 
C 2605 1105 2522 790 2310 565 
C 1965 192 1325 192 954 552 
C 762 758 646 1053 627 1407 
C 595 1927 723 2480 1235 2686 
C 1613 2853 2048 2731 2285 2519 
z
" transform="scale(0.015625)"/>
       <path id="HFBR17-6c" d="M 410 4460 
L 410 0 
L 813 0 
L 813 4460 
L 410 4460 
z
" transform="scale(0.015625)"/>
       <path id="HFBR17-74" d="M 691 3872 
L 691 3009 
L 70 3009 
L 70 2688 
L 685 2688 
L 685 961 
C 685 677 666 335 851 97 
C 960 -45 1107 -83 1331 -64 
C 1517 -64 1702 -25 1875 42 
C 1933 68 2144 161 2170 207 
C 2182 233 2099 518 2099 518 
L 1946 401 
C 1747 278 1350 149 1184 382 
C 1037 582 1075 880 1075 1112 
L 1075 2688 
L 2067 2688 
L 2067 3009 
L 1075 3009 
L 1075 3872 
L 691 3872 
z
" transform="scale(0.015625)"/>
      </defs>
      <use xlink:href="#HFBRMI10-76" transform="scale(0.996264)"/>
      <use xlink:href="#HFBRMI10-43" transform="translate(45.661776 -14.943915) scale(0.697382)"/>
      <use xlink:href="#HFBR17-28" transform="translate(127.544976 0) scale(0.996264)"/>
      <use xlink:href="#HFBR17-76" transform="translate(166.565185 0) scale(0.996264)"/>
      <use xlink:href="#HFBR17-6f" transform="translate(208.906223 0) scale(0.996264)"/>
      <use xlink:href="#HFBR17-6c" transform="translate(259.54944 0) scale(0.996264)"/>
      <use xlink:href="#HFBR17-74" transform="translate(278.644399 0) scale(0.996264)"/>
      <use xlink:href="#HFBR17-73" transform="translate(314.758787 0) scale(0.996264)"/>
      <use xlink:href="#HFBR17-29" transform="translate(353.197817 0) scale(0.996264)"/>
     </g>
    </g>
   </g>
   <g id="line2d_8">
    <path d="M 64.301997 140.118176 
L 85.806144 140.224283 
L 85.811375 154.460478 
L 85.900183 154.314871 
L 171.933686 154.218975 
L 171.935547 138.502946 
L 172.074588 140.117436 
L 172.075016 140.118999 
L 172.18673 140.118176 
L 322.237852 140.118176 
L 322.237852 140.118176 
" clip-path="url(#p0b06f6303d)" style="fill: none; stroke: #ffbbbb; stroke-width: 3; stroke-linecap: square"/>
   </g>
   <g id="line2d_9">
    <path d="M 64.301997 140.118176 
L 85.806058 140.212143 
L 85.811375 154.460332 
L 85.900183 154.314871 
L 171.933686 154.218969 
L 171.934008 106.733366 
L 171.934429 22.224713 
L 171.947532 140.120937 
L 172.04503 140.118173 
L 322.237852 140.118176 
L 322.237852 140.118176 
" clip-path="url(#p0b06f6303d)" style="fill: none; stroke: #0000ff; stroke-linecap: square"/>
   </g>
   <g id="patch_3">
    <path d="M 46.405205 161.072267 
L 46.405205 15.612925 
" style="fill: none; stroke: #000000; stroke-width: 0.8; stroke-linejoin: miter; stroke-linecap: square"/>
   </g>
   <g id="patch_4">
    <path d="M 51.405205 166.072267 
L 335.134645 166.072267 
" style="fill: none; stroke: #000000; stroke-width: 0.8; stroke-linejoin: miter; stroke-linecap: square"/>
   </g>
   <g id="text_10">
    <!-- Collector voltage with and without diode -->
    <g style="fill: #aa0000" transform="translate(72.303832 16.885892) scale(0.14 -0.14)">
     <defs>
      <path id="HFBR17-43" d="M 3872 696 
C 3744 631 3629 541 3501 477 
C 3200 323 2816 265 2400 303 
C 2029 355 1722 535 1498 760 
C 781 1482 730 2750 1363 3542 
C 1632 3896 2042 4160 2643 4160 
C 2886 4160 3136 4115 3360 4025 
C 3494 3966 3622 3889 3750 3825 
L 3827 4276 
C 3686 4331 3539 4388 3392 4422 
C 3034 4520 2490 4520 2118 4430 
C 1466 4283 992 3829 723 3304 
C 352 2561 397 1633 845 934 
C 960 749 1107 583 1274 441 
C 1658 108 2131 -84 2790 -32 
C 3187 -32 3418 33 3725 205 
C 3757 224 3878 289 3898 316 
C 3910 348 3878 610 3872 696 
z
" transform="scale(0.015625)"/>
      <path id="HFBR17-72" d="M 800 2224 
L 794 2224 
L 794 3033 
L 410 3033 
L 410 0 
L 813 0 
L 813 1465 
C 813 1562 813 1658 826 1754 
C 915 2301 1389 2706 2010 2706 
L 2010 3072 
C 1600 3072 1222 2873 979 2545 
C 909 2449 832 2339 800 2224 
z
" transform="scale(0.015625)"/>
      <path id="HFBR17-61" d="M 506 2497 
C 614 2551 704 2630 813 2683 
C 986 2762 1165 2816 1357 2816 
C 1446 2822 1549 2835 1638 2816 
C 1798 2790 1939 2693 2035 2557 
C 2131 2401 2170 2265 2170 2014 
L 2170 1729 
C 1862 1729 1555 1703 1261 1625 
C 890 1541 486 1352 352 1014 
C 218 690 358 261 646 66 
C 787 -32 954 -32 1120 -19 
C 1389 0 1658 65 1888 208 
C 1997 272 2106 357 2170 467 
L 2176 467 
L 2176 13 
L 2579 13 
L 2579 1721 
C 2579 1908 2598 2109 2560 2297 
C 2522 2555 2362 2769 2176 2918 
C 1958 3086 1709 3143 1376 3118 
C 1069 3118 832 3040 602 2929 
C 570 2916 506 2895 486 2857 
C 467 2830 480 2785 480 2752 
C 493 2667 499 2582 506 2497 
z
M 2170 1536 
L 2170 1048 
C 2170 900 2176 765 2093 637 
C 2022 534 1926 463 1824 412 
C 1459 225 902 283 742 592 
C 614 816 749 1080 934 1228 
C 1210 1440 1747 1536 2170 1536 
z
" transform="scale(0.015625)"/>
      <path id="HFBR17-67" d="M 2266 767 
L 2272 767 
L 2272 170 
C 2272 -10 2272 -183 2214 -356 
C 2118 -588 1952 -800 1677 -838 
C 1600 -845 1517 -838 1440 -832 
C 1024 -832 749 -707 416 -555 
L 416 -799 
C 416 -922 435 -928 557 -967 
C 883 -1102 1472 -1236 1875 -1134 
C 2323 -1018 2650 -594 2682 -78 
C 2688 12 2682 109 2682 200 
L 2682 3072 
L 2278 3072 
L 2278 2559 
C 2182 2719 2080 2867 1914 2970 
C 1466 3240 858 2944 608 2597 
C 198 2089 122 1302 448 735 
C 512 626 589 523 678 433 
C 986 131 1510 -30 1888 240 
C 2042 343 2221 581 2266 767 
z
M 1632 2752 
C 1690 2752 1754 2752 1811 2739 
C 2042 2694 2170 2488 2246 2282 
C 2291 2141 2278 1987 2278 1839 
C 2278 1518 2272 1184 2163 881 
C 2086 657 1926 457 1677 432 
C 1594 425 1510 438 1427 457 
C 1037 547 768 881 685 1267 
C 570 1826 845 2507 1408 2700 
C 1478 2726 1555 2745 1632 2752 
z
" transform="scale(0.015625)"/>
      <path id="HFBR17-77" d="M 45 3040 
C 58 2957 922 58 922 58 
C 941 0 973 0 1056 0 
L 1254 0 
C 1286 0 1331 -6 1350 19 
C 1370 39 1427 244 1427 244 
C 1619 936 1952 1982 2080 2630 
L 2086 2630 
C 2086 2540 2118 2450 2138 2361 
C 2240 1905 2784 64 2810 19 
C 2829 -13 2880 0 2912 0 
L 3155 0 
C 3187 0 3232 -6 3258 7 
C 3277 19 3283 45 3290 64 
C 3482 745 4141 2893 4166 3040 
C 4032 3040 3898 3040 3782 3021 
L 3757 2956 
C 3514 2112 3251 1293 3034 423 
L 3027 423 
L 2957 718 
L 2285 3040 
L 1907 3040 
C 1664 2168 1382 1334 1178 423 
L 1069 871 
C 858 1588 659 2317 442 3021 
C 326 3040 179 3040 45 3040 
z
" transform="scale(0.015625)"/>
      <path id="HFBR17-69" d="M 410 4480 
L 410 4075 
L 813 4075 
L 813 4480 
L 410 4480 
z
M 410 3033 
L 410 0 
L 813 0 
L 813 3033 
L 410 3033 
z
" transform="scale(0.015625)"/>
      <path id="HFBR17-68" d="M 410 4460 
L 410 0 
L 819 0 
L 819 1407 
C 819 1722 800 2044 941 2339 
C 1011 2487 1120 2616 1267 2693 
C 1389 2751 1517 2751 1651 2738 
C 1843 2738 2029 2687 2150 2525 
C 2266 2377 2272 2185 2272 2004 
L 2272 0 
L 2682 0 
L 2682 1742 
C 2682 2063 2714 2416 2554 2706 
C 2426 2924 2202 3027 1965 3059 
C 1837 3072 1709 3072 1581 3053 
C 1350 3009 1152 2882 998 2710 
C 928 2627 845 2526 819 2417 
L 813 2417 
L 813 4460 
L 410 4460 
z
" transform="scale(0.015625)"/>
      <path id="HFBR17-6e" d="M 806 2386 
L 800 2386 
L 800 3033 
L 410 3033 
L 410 0 
L 819 0 
L 819 1404 
C 819 1718 800 2040 941 2334 
C 1011 2482 1120 2610 1267 2687 
C 1389 2745 1517 2745 1651 2732 
C 1843 2732 2029 2681 2150 2520 
C 2266 2372 2272 2180 2272 2000 
L 2272 0 
L 2682 0 
L 2682 1719 
C 2682 2040 2714 2392 2560 2681 
C 2438 2912 2202 3021 1952 3053 
C 1824 3072 1690 3072 1562 3047 
C 1229 2976 922 2707 806 2386 
z
" transform="scale(0.015625)"/>
      <path id="HFBR17-64" d="M 2278 4460 
L 2278 2648 
C 2157 2783 2035 2911 1869 2988 
C 1299 3226 749 2918 467 2410 
C 141 1806 179 1009 570 443 
C 845 51 1299 -141 1779 32 
C 1965 103 2189 289 2266 456 
L 2272 456 
L 2272 0 
L 2682 0 
L 2682 4460 
L 2278 4460 
z
M 2253 2397 
C 2285 2339 2272 2262 2272 2198 
L 2272 874 
C 2272 726 2266 713 2182 598 
C 2067 424 1888 302 1677 283 
C 1370 257 1056 405 877 656 
C 774 803 717 983 685 1163 
C 672 1234 672 1298 666 1369 
C 627 1793 717 2294 1088 2564 
C 1152 2609 1222 2641 1293 2673 
C 1664 2815 2074 2776 2253 2397 
z
" transform="scale(0.015625)"/>
      <path id="HFBR17-75" d="M 410 3008 
L 410 830 
C 410 643 416 457 493 283 
C 614 33 870 -64 1133 -64 
C 1485 -64 1837 52 2093 303 
C 2163 373 2227 444 2272 534 
L 2278 534 
L 2278 -25 
L 2682 -25 
L 2682 3008 
L 2272 3008 
L 2272 1466 
C 2272 1196 2310 900 2170 656 
C 2067 476 1888 335 1690 271 
C 1555 232 1414 232 1274 245 
C 1139 258 992 271 902 386 
C 774 541 819 907 819 1132 
L 819 3008 
L 410 3008 
z
" transform="scale(0.015625)"/>
     </defs>
     <use xlink:href="#HFBR17-43" transform="scale(0.996264)"/>
     <use xlink:href="#HFBR17-6f" transform="translate(65.172032 0) scale(0.996264)"/>
     <use xlink:href="#HFBR17-6c" transform="translate(115.81525 0) scale(0.996264)"/>
     <use xlink:href="#HFBR17-6c" transform="translate(134.910209 0) scale(0.996264)"/>
     <use xlink:href="#HFBR17-65" transform="translate(154.005168 0) scale(0.996264)"/>
     <use xlink:href="#HFBR17-63" transform="translate(198.836836 0) scale(0.996264)"/>
     <use xlink:href="#HFBR17-74" transform="translate(243.668503 0) scale(0.996264)"/>
     <use xlink:href="#HFBR17-6f" transform="translate(279.782891 0) scale(0.996264)"/>
     <use xlink:href="#HFBR17-72" transform="translate(327.52038 0) scale(0.996264)"/>
     <use xlink:href="#HFBR17-76" transform="translate(390.94895 0) scale(0.996264)"/>
     <use xlink:href="#HFBR17-6f" transform="translate(433.289988 0) scale(0.996264)"/>
     <use xlink:href="#HFBR17-6c" transform="translate(483.933206 0) scale(0.996264)"/>
     <use xlink:href="#HFBR17-74" transform="translate(503.028165 0) scale(0.996264)"/>
     <use xlink:href="#HFBR17-61" transform="translate(539.142553 0) scale(0.996264)"/>
     <use xlink:href="#HFBR17-67" transform="translate(585.634635 0) scale(0.996264)"/>
     <use xlink:href="#HFBR17-65" transform="translate(633.787132 0) scale(0.996264)"/>
     <use xlink:href="#HFBR17-77" transform="translate(710.084011 0) scale(0.996264)"/>
     <use xlink:href="#HFBR17-69" transform="translate(775.671052 0) scale(0.996264)"/>
     <use xlink:href="#HFBR17-74" transform="translate(794.766011 0) scale(0.996264)"/>
     <use xlink:href="#HFBR17-68" transform="translate(830.880399 0) scale(0.996264)"/>
     <use xlink:href="#HFBR17-61" transform="translate(910.498108 0) scale(0.996264)"/>
     <use xlink:href="#HFBR17-6e" transform="translate(956.99019 0) scale(0.996264)"/>
     <use xlink:href="#HFBR17-64" transform="translate(1005.142687 0) scale(0.996264)"/>
     <use xlink:href="#HFBR17-77" transform="translate(1084.760396 0) scale(0.996264)"/>
     <use xlink:href="#HFBR17-69" transform="translate(1150.347437 0) scale(0.996264)"/>
     <use xlink:href="#HFBR17-74" transform="translate(1169.442396 0) scale(0.996264)"/>
     <use xlink:href="#HFBR17-68" transform="translate(1205.556784 0) scale(0.996264)"/>
     <use xlink:href="#HFBR17-6f" transform="translate(1253.709281 0) scale(0.996264)"/>
     <use xlink:href="#HFBR17-75" transform="translate(1304.352498 0) scale(0.996264)"/>
     <use xlink:href="#HFBR17-74" transform="translate(1352.504995 0) scale(0.996264)"/>
     <use xlink:href="#HFBR17-64" transform="translate(1420.084595 0) scale(0.996264)"/>
     <use xlink:href="#HFBR17-69" transform="translate(1468.237092 0) scale(0.996264)"/>
     <use xlink:href="#HFBR17-6f" transform="translate(1487.332051 0) scale(0.996264)"/>
     <use xlink:href="#HFBR17-64" transform="translate(1537.975269 0) scale(0.996264)"/>
     <use xlink:href="#HFBR17-65" transform="translate(1586.127766 0) scale(0.996264)"/>
    </g>
   </g>
   <g id="legend_1">
    <g id="line2d_10">
     <path d="M 234.904533 30.612925 
L 246.904533 30.612925 
L 258.904533 30.612925 
" style="fill: none; stroke: #ffbbbb; stroke-width: 3; stroke-linecap: square"/>
    </g>
    <g id="text_11">
     <!-- With diode -->
     <g transform="translate(268.504533 34.812925) scale(0.12 -0.12)">
      <defs>
       <path id="HFBR17-57" d="M 45 4480 
L 1363 0 
L 1811 0 
C 2131 1194 2784 3209 2963 4069 
L 2970 4069 
C 2976 3953 3014 3844 3040 3736 
C 3200 3106 3782 1129 3782 1129 
L 4083 122 
C 4090 90 4096 45 4122 20 
C 4141 -13 4211 0 4243 0 
L 4582 0 
L 5901 4480 
C 5773 4480 5632 4480 5523 4460 
L 5491 4390 
L 5242 3551 
C 4954 2513 4621 1513 4365 436 
L 4358 436 
C 4346 565 4301 693 4269 822 
L 4096 1451 
C 4032 1668 3232 4435 3206 4461 
C 3187 4493 3123 4480 3091 4480 
L 2758 4480 
C 2662 4127 2554 3787 2451 3440 
C 2176 2439 1856 1476 1619 436 
L 1562 705 
C 1312 1653 499 4390 499 4390 
C 480 4480 454 4480 346 4480 
L 45 4480 
z
" transform="scale(0.015625)"/>
      </defs>
      <use xlink:href="#HFBR17-57" transform="scale(0.996264)"/>
      <use xlink:href="#HFBR17-69" transform="translate(92.569156 0) scale(0.996264)"/>
      <use xlink:href="#HFBR17-74" transform="translate(111.664115 0) scale(0.996264)"/>
      <use xlink:href="#HFBR17-68" transform="translate(147.778503 0) scale(0.996264)"/>
      <use xlink:href="#HFBR17-64" transform="translate(227.396211 0) scale(0.996264)"/>
      <use xlink:href="#HFBR17-69" transform="translate(275.548708 0) scale(0.996264)"/>
      <use xlink:href="#HFBR17-6f" transform="translate(294.643667 0) scale(0.996264)"/>
      <use xlink:href="#HFBR17-64" transform="translate(345.286885 0) scale(0.996264)"/>
      <use xlink:href="#HFBR17-65" transform="translate(393.439382 0) scale(0.996264)"/>
     </g>
    </g>
    <g id="line2d_11">
     <path d="M 234.904533 47.005453 
L 246.904533 47.005453 
L 258.904533 47.005453 
" style="fill: none; stroke: #0000ff; stroke-linecap: square"/>
    </g>
    <g id="text_12">
     <!-- No diode -->
     <g transform="translate(268.504533 51.205453) scale(0.12 -0.12)">
      <defs>
       <path id="HFBR17-4e" d="M 525 4454 
L 525 0 
L 922 0 
L 922 4100 
L 928 4100 
L 2547 1161 
C 2765 773 2976 380 3200 0 
C 3373 -39 3622 0 3821 0 
L 3821 4454 
L 3424 4454 
L 3424 354 
L 1811 3268 
C 1587 3661 1382 4074 1146 4454 
C 973 4493 723 4454 525 4454 
z
" transform="scale(0.015625)"/>
      </defs>
      <use xlink:href="#HFBR17-4e" transform="scale(0.996264)"/>
      <use xlink:href="#HFBR17-6f" transform="translate(67.662753 0) scale(0.996264)"/>
      <use xlink:href="#HFBR17-64" transform="translate(149.771183 0) scale(0.996264)"/>
      <use xlink:href="#HFBR17-69" transform="translate(197.92368 0) scale(0.996264)"/>
      <use xlink:href="#HFBR17-6f" transform="translate(217.018639 0) scale(0.996264)"/>
      <use xlink:href="#HFBR17-64" transform="translate(267.661856 0) scale(0.996264)"/>
      <use xlink:href="#HFBR17-65" transform="translate(315.814353 0) scale(0.996264)"/>
     </g>
    </g>
   </g>
  </g>
  <g id="axes_2">
   <g id="patch_5">
    <path d="M 401.530362 161.072267 
L 685.259802 161.072267 
L 685.259802 15.612925 
L 401.530362 15.612925 
z
" style="fill: #ffffff"/>
   </g>
   <g id="matplotlib.axis_3">
    <g id="xtick_5">
     <g id="line2d_12">
      <g>
       <use xlink:href="#m8a0f4317b8" x="401.530362" y="166.072267" style="stroke: #000000; stroke-width: 0.8"/>
      </g>
     </g>
     <g id="text_13">
      <!-- $\mathdefault{1.2510}$ -->
      <g transform="translate(381.190165 182.758158) scale(0.14 -0.14)">
       <defs>
        <path id="HFBRMI10-3a" d="M 685 500 
L 685 0 
L 1184 0 
L 1184 500 
L 685 500 
z
" transform="scale(0.015625)"/>
        <path id="HFBR17-35" d="M 538 4245 
L 538 1949 
L 781 1949 
C 813 1949 858 1943 883 1956 
C 915 1975 934 2020 954 2046 
C 998 2103 1050 2148 1101 2193 
C 1331 2386 1773 2463 2067 2315 
C 2470 2123 2547 1614 2515 1216 
C 2496 964 2419 733 2272 585 
C 1933 224 1363 224 947 435 
C 742 538 570 699 442 891 
L 435 891 
C 416 859 269 634 269 595 
C 269 569 288 550 301 531 
C 493 306 742 132 1030 36 
C 1600 -144 2240 -3 2643 460 
C 3123 1019 3059 1930 2502 2417 
C 2336 2572 2106 2681 1830 2706 
C 1459 2758 1126 2578 928 2411 
L 928 3904 
L 2746 3904 
L 2746 4245 
L 538 4245 
z
" transform="scale(0.015625)"/>
       </defs>
       <use xlink:href="#HFBR17-31" transform="scale(0.996264)"/>
       <use xlink:href="#HFBRMI10-3a" transform="translate(50.643218 0) scale(0.996264)"/>
       <use xlink:href="#HFBR17-32" transform="translate(79.700665 0) scale(0.996264)"/>
       <use xlink:href="#HFBR17-35" transform="translate(130.343883 0) scale(0.996264)"/>
       <use xlink:href="#HFBR17-31" transform="translate(180.9871 0) scale(0.996264)"/>
       <use xlink:href="#HFBR17-30" transform="translate(231.630318 0) scale(0.996264)"/>
      </g>
     </g>
    </g>
    <g id="xtick_6">
     <g id="line2d_13">
      <g>
       <use xlink:href="#m8a0f4317b8" x="472.462722" y="166.072267" style="stroke: #000000; stroke-width: 0.8"/>
      </g>
     </g>
     <g id="text_14">
      <!-- $\mathdefault{1.2515}$ -->
      <g transform="translate(452.122525 182.758158) scale(0.14 -0.14)">
       <use xlink:href="#HFBR17-31" transform="scale(0.996264)"/>
       <use xlink:href="#HFBRMI10-3a" transform="translate(50.643218 0) scale(0.996264)"/>
       <use xlink:href="#HFBR17-32" transform="translate(79.700665 0) scale(0.996264)"/>
       <use xlink:href="#HFBR17-35" transform="translate(130.343883 0) scale(0.996264)"/>
       <use xlink:href="#HFBR17-31" transform="translate(180.9871 0) scale(0.996264)"/>
       <use xlink:href="#HFBR17-35" transform="translate(231.630318 0) scale(0.996264)"/>
      </g>
     </g>
    </g>
    <g id="xtick_7">
     <g id="line2d_14">
      <g>
       <use xlink:href="#m8a0f4317b8" x="543.395082" y="166.072267" style="stroke: #000000; stroke-width: 0.8"/>
      </g>
     </g>
     <g id="text_15">
      <!-- $\mathdefault{1.2520}$ -->
      <g transform="translate(523.054885 182.758158) scale(0.14 -0.14)">
       <use xlink:href="#HFBR17-31" transform="scale(0.996264)"/>
       <use xlink:href="#HFBRMI10-3a" transform="translate(50.643218 0) scale(0.996264)"/>
       <use xlink:href="#HFBR17-32" transform="translate(79.700665 0) scale(0.996264)"/>
       <use xlink:href="#HFBR17-35" transform="translate(130.343883 0) scale(0.996264)"/>
       <use xlink:href="#HFBR17-32" transform="translate(180.9871 0) scale(0.996264)"/>
       <use xlink:href="#HFBR17-30" transform="translate(231.630318 0) scale(0.996264)"/>
      </g>
     </g>
    </g>
    <g id="xtick_8">
     <g id="line2d_15">
      <g>
       <use xlink:href="#m8a0f4317b8" x="614.327442" y="166.072267" style="stroke: #000000; stroke-width: 0.8"/>
      </g>
     </g>
     <g id="text_16">
      <!-- $\mathdefault{1.2525}$ -->
      <g transform="translate(593.987245 182.758158) scale(0.14 -0.14)">
       <use xlink:href="#HFBR17-31" transform="scale(0.996264)"/>
       <use xlink:href="#HFBRMI10-3a" transform="translate(50.643218 0) scale(0.996264)"/>
       <use xlink:href="#HFBR17-32" transform="translate(79.700665 0) scale(0.996264)"/>
       <use xlink:href="#HFBR17-35" transform="translate(130.343883 0) scale(0.996264)"/>
       <use xlink:href="#HFBR17-32" transform="translate(180.9871 0) scale(0.996264)"/>
       <use xlink:href="#HFBR17-35" transform="translate(231.630318 0) scale(0.996264)"/>
      </g>
     </g>
    </g>
    <g id="xtick_9">
     <g id="line2d_16">
      <g>
       <use xlink:href="#m8a0f4317b8" x="685.259802" y="166.072267" style="stroke: #000000; stroke-width: 0.8"/>
      </g>
     </g>
     <g id="text_17">
      <!-- $\mathdefault{1.2530}$ -->
      <g transform="translate(664.919605 182.758158) scale(0.14 -0.14)">
       <use xlink:href="#HFBR17-31" transform="scale(0.996264)"/>
       <use xlink:href="#HFBRMI10-3a" transform="translate(50.643218 0) scale(0.996264)"/>
       <use xlink:href="#HFBR17-32" transform="translate(79.700665 0) scale(0.996264)"/>
       <use xlink:href="#HFBR17-35" transform="translate(130.343883 0) scale(0.996264)"/>
       <use xlink:href="#HFBR17-33" transform="translate(180.9871 0) scale(0.996264)"/>
       <use xlink:href="#HFBR17-30" transform="translate(231.630318 0) scale(0.996264)"/>
      </g>
     </g>
    </g>
    <g id="text_18">
     <!-- $t$ (sec) -->
     <g transform="translate(522.883743 199.543541) scale(0.14 -0.14)">
      <use xlink:href="#HFBRMI10-74" transform="scale(0.996264)"/>
      <use xlink:href="#HFBR17-28" transform="translate(76.915212 0) scale(0.996264)"/>
      <use xlink:href="#HFBR17-73" transform="translate(115.93542 0) scale(0.996264)"/>
      <use xlink:href="#HFBR17-65" transform="translate(154.37445 0) scale(0.996264)"/>
      <use xlink:href="#HFBR17-63" transform="translate(199.206117 0) scale(0.996264)"/>
      <use xlink:href="#HFBR17-29" transform="translate(244.037785 0) scale(0.996264)"/>
     </g>
    </g>
   </g>
   <g id="matplotlib.axis_4">
    <g id="ytick_4">
     <g id="line2d_17">
      <g>
       <use xlink:href="#m1cefb8098c" x="396.530362" y="154.276592" style="stroke: #000000; stroke-width: 0.8"/>
      </g>
     </g>
     <g id="text_19">
      <!-- $\mathdefault{0.00}$ -->
      <g transform="translate(363.494908 159.119538) scale(0.14 -0.14)">
       <use xlink:href="#HFBR17-30" transform="scale(0.996264)"/>
       <use xlink:href="#HFBRMI10-3a" transform="translate(50.643218 0) scale(0.996264)"/>
       <use xlink:href="#HFBR17-30" transform="translate(79.700665 0) scale(0.996264)"/>
       <use xlink:href="#HFBR17-30" transform="translate(130.343883 0) scale(0.996264)"/>
      </g>
     </g>
    </g>
    <g id="ytick_5">
     <g id="line2d_18">
      <g>
       <use xlink:href="#m1cefb8098c" x="396.530362" y="118.978532" style="stroke: #000000; stroke-width: 0.8"/>
      </g>
     </g>
     <g id="text_20">
      <!-- $\mathdefault{0.01}$ -->
      <g transform="translate(363.494908 123.821478) scale(0.14 -0.14)">
       <use xlink:href="#HFBR17-30" transform="scale(0.996264)"/>
       <use xlink:href="#HFBRMI10-3a" transform="translate(50.643218 0) scale(0.996264)"/>
       <use xlink:href="#HFBR17-30" transform="translate(79.700665 0) scale(0.996264)"/>
       <use xlink:href="#HFBR17-31" transform="translate(130.343883 0) scale(0.996264)"/>
      </g>
     </g>
    </g>
    <g id="ytick_6">
     <g id="line2d_19">
      <g>
       <use xlink:href="#m1cefb8098c" x="396.530362" y="83.680472" style="stroke: #000000; stroke-width: 0.8"/>
      </g>
     </g>
     <g id="text_21">
      <!-- $\mathdefault{0.02}$ -->
      <g transform="translate(363.494908 88.523417) scale(0.14 -0.14)">
       <use xlink:href="#HFBR17-30" transform="scale(0.996264)"/>
       <use xlink:href="#HFBRMI10-3a" transform="translate(50.643218 0) scale(0.996264)"/>
       <use xlink:href="#HFBR17-30" transform="translate(79.700665 0) scale(0.996264)"/>
       <use xlink:href="#HFBR17-32" transform="translate(130.343883 0) scale(0.996264)"/>
      </g>
     </g>
    </g>
    <g id="ytick_7">
     <g id="line2d_20">
      <g>
       <use xlink:href="#m1cefb8098c" x="396.530362" y="48.382411" style="stroke: #000000; stroke-width: 0.8"/>
      </g>
     </g>
     <g id="text_22">
      <!-- $\mathdefault{0.03}$ -->
      <g transform="translate(363.494908 53.225357) scale(0.14 -0.14)">
       <use xlink:href="#HFBR17-30" transform="scale(0.996264)"/>
       <use xlink:href="#HFBRMI10-3a" transform="translate(50.643218 0) scale(0.996264)"/>
       <use xlink:href="#HFBR17-30" transform="translate(79.700665 0) scale(0.996264)"/>
       <use xlink:href="#HFBR17-33" transform="translate(130.343883 0) scale(0.996264)"/>
      </g>
     </g>
    </g>
    <g id="text_23">
     <!-- $i_{D}$ (A) -->
     <g transform="translate(356.395417 106.982998) rotate(-90) scale(0.14 -0.14)">
      <defs>
       <path id="HFBRMI10-69" d="M 1370 4032 
L 1773 4032 
L 1856 4436 
C 1722 4436 1574 4436 1459 4416 
C 1414 4303 1395 4165 1370 4032 
z
M 1152 3010 
L 512 -32 
C 646 -32 794 -32 909 -13 
L 934 57 
L 1555 3010 
L 1152 3010 
z
" transform="scale(0.015625)"/>
       <path id="HFBRMI10-44" d="M 1568 4449 
L 627 0 
L 1792 0 
C 2074 0 2362 0 2643 38 
C 3565 185 4282 850 4634 1553 
C 4986 2256 5062 3183 4563 3842 
C 4320 4161 3955 4397 3469 4449 
C 3283 4449 3098 4449 2912 4449 
L 1568 4449 
z
M 1139 346 
L 1939 4096 
L 2829 4096 
C 2950 4096 3072 4096 3194 4096 
C 3558 4096 3942 3955 4147 3704 
C 4576 3224 4531 2506 4352 1929 
C 4102 1142 3488 520 2650 385 
C 2438 346 2221 346 2003 346 
L 1139 346 
z
" transform="scale(0.015625)"/>
       <path id="HFBR17-41" d="M 134 6 
L 422 6 
L 538 19 
C 730 435 864 909 1037 1344 
C 1670 1344 2362 1344 2963 1344 
L 3014 1260 
C 3123 931 3251 614 3366 291 
C 3398 193 3430 97 3482 19 
C 3622 0 3789 0 3942 0 
C 3834 314 2349 4301 2304 4409 
C 2298 4435 2285 4473 2253 4480 
C 2214 4486 2176 4480 2138 4480 
L 1926 4480 
C 1830 4480 1792 4492 1766 4391 
C 1741 4326 134 6 134 6 
z
M 2010 4043 
C 2278 3246 2566 2462 2848 1678 
L 1165 1678 
L 1722 3207 
L 2010 4043 
z
" transform="scale(0.015625)"/>
      </defs>
      <use xlink:href="#HFBRMI10-69" transform="scale(0.996264)"/>
      <use xlink:href="#HFBRMI10-44" transform="translate(22.415788 -14.943915) scale(0.697382)"/>
      <use xlink:href="#HFBR17-28" transform="translate(111.563342 0) scale(0.996264)"/>
      <use xlink:href="#HFBR17-41" transform="translate(150.583551 0) scale(0.996264)"/>
      <use xlink:href="#HFBR17-29" transform="translate(214.095169 0) scale(0.996264)"/>
     </g>
    </g>
   </g>
   <g id="line2d_21">
    <path d="M 348.778013 154.276596 
L 521.335118 154.258093 
L 521.455941 151.490358 
L 521.710872 123.073298 
L 522.278331 73.369873 
L 522.84579 42.719084 
L 523.271384 30.1684 
L 523.696978 24.05167 
L 523.980707 22.470211 
L 524.122572 22.224713 
L 524.264437 22.268694 
L 524.548166 23.043345 
L 524.97376 25.395749 
L 525.683084 30.97009 
L 529.939026 67.140295 
L 531.783267 80.098601 
L 533.647775 91.573224 
L 535.47175 101.41217 
L 537.66052 111.570387 
L 539.84929 120.390306 
L 542.03806 127.871935 
L 544.690186 135.374146 
L 546.514953 139.779668 
L 548.355599 143.651597 
L 550.195457 147.011369 
L 552.027329 149.900498 
L 553.809626 152.305587 
L 555.370728 154.060541 
L 555.92451 154.457637 
L 556.157065 154.363676 
L 556.610441 154.10446 
L 556.938552 154.302681 
L 557.302685 154.434512 
L 557.592148 154.242417 
L 557.909426 154.120304 
L 558.234102 154.299839 
L 558.603151 154.422436 
L 558.902951 154.234123 
L 559.215466 154.132841 
L 559.608384 154.34715 
L 559.930337 154.404687 
L 560.709943 154.22705 
L 561.210981 154.401499 
L 562.034039 154.247131 
L 562.494431 154.397229 
L 562.917217 154.172459 
L 563.182383 154.17865 
L 563.895369 154.351118 
L 564.456488 154.177237 
L 565.227809 154.326557 
L 565.718429 154.17402 
L 566.571543 154.29552 
L 566.998428 154.176376 
L 567.897899 154.2752 
L 568.285961 154.180437 
L 569.201785 154.268059 
L 569.593609 154.188356 
L 570.459562 154.283902 
L 570.885766 154.19289 
L 571.738407 154.288258 
L 572.169542 154.195679 
L 573.031089 154.285912 
L 573.481717 154.203927 
L 574.299702 154.293696 
L 574.783346 154.210108 
L 575.567563 154.300772 
L 576.075173 154.213906 
L 576.870847 154.293839 
L 577.363212 154.216742 
L 578.167648 154.289691 
L 578.644583 154.218144 
L 579.452825 154.289791 
L 579.966871 154.228122 
L 580.695 154.303538 
L 581.257149 154.230965 
L 581.984063 154.30166 
L 582.546039 154.233398 
L 583.276988 154.298749 
L 583.859526 154.24114 
L 584.570097 154.295954 
L 585.157567 154.245248 
L 585.837304 154.300024 
L 586.447156 154.247308 
L 587.134284 154.296352 
L 587.741435 154.250276 
L 588.418171 154.295993 
L 589.047765 154.255644 
L 589.710154 154.293786 
L 590.33236 154.256276 
L 590.999604 154.292252 
L 591.643247 154.26212 
L 592.300657 154.288359 
L 592.918145 154.260643 
L 593.608706 154.28326 
L 594.206447 154.261806 
L 594.894424 154.282963 
L 595.525801 154.26851 
L 596.185357 154.281681 
L 596.816743 154.269796 
L 597.476298 154.280487 
L 598.127562 154.274406 
L 598.767246 154.279378 
L 599.398652 154.272125 
L 600.085384 154.273839 
L 600.723358 154.27847 
L 601.381786 154.272246 
L 602.031997 154.281836 
L 602.68518 154.26978 
L 603.331646 154.283596 
L 603.997911 154.266308 
L 604.64821 154.287361 
L 605.335998 154.260436 
L 606.027893 154.296844 
L 606.828312 154.250358 
L 614.233048 154.274013 
L 615.124823 154.295661 
L 620.679604 154.272917 
L 622.282458 154.261711 
L 627.350977 154.263962 
L 658.727032 154.279894 
L 668.286655 154.275089 
L 677.605272 154.274738 
L 685.268074 154.275028 
L 685.268074 154.275028 
" clip-path="url(#p49fe251e3d)" style="fill: none; stroke: #aa0000; stroke-linecap: square"/>
   </g>
   <g id="patch_6">
    <path d="M 396.530362 161.072267 
L 396.530362 15.612925 
" style="fill: none; stroke: #000000; stroke-width: 0.8; stroke-linejoin: miter; stroke-linecap: square"/>
   </g>
   <g id="patch_7">
    <path d="M 401.530362 166.072267 
L 685.259802 166.072267 
" style="fill: none; stroke: #000000; stroke-width: 0.8; stroke-linejoin: miter; stroke-linecap: square"/>
   </g>
   <g id="text_24">
    <!-- Diode current -->
    <g style="fill: #aa0000" transform="translate(502.604254 16.885892) scale(0.14 -0.14)">
     <defs>
      <path id="HFBR17-44" d="M 512 4480 
L 512 0 
L 1805 0 
C 2010 0 2214 0 2413 19 
C 2925 71 3366 321 3661 629 
C 4486 1483 4480 2952 3667 3819 
C 3373 4133 2976 4384 2477 4448 
C 2234 4480 1984 4480 1741 4480 
L 512 4480 
z
M 954 340 
L 954 4132 
L 1779 4132 
C 1952 4132 2125 4132 2298 4119 
C 2586 4087 2867 3991 3104 3823 
C 3622 3464 3840 2827 3840 2217 
C 3840 1703 3699 1176 3322 809 
C 3066 572 2720 398 2304 353 
C 2138 340 1965 340 1798 340 
L 954 340 
z
" transform="scale(0.015625)"/>
     </defs>
     <use xlink:href="#HFBR17-44" transform="scale(0.996264)"/>
     <use xlink:href="#HFBR17-69" transform="translate(71.606187 0) scale(0.996264)"/>
     <use xlink:href="#HFBR17-6f" transform="translate(90.701146 0) scale(0.996264)"/>
     <use xlink:href="#HFBR17-64" transform="translate(141.344364 0) scale(0.996264)"/>
     <use xlink:href="#HFBR17-65" transform="translate(189.496861 0) scale(0.996264)"/>
     <use xlink:href="#HFBR17-63" transform="translate(265.79374 0) scale(0.996264)"/>
     <use xlink:href="#HFBR17-75" transform="translate(310.625407 0) scale(0.996264)"/>
     <use xlink:href="#HFBR17-72" transform="translate(358.777904 0) scale(0.996264)"/>
     <use xlink:href="#HFBR17-72" transform="translate(390.741263 0) scale(0.996264)"/>
     <use xlink:href="#HFBR17-65" transform="translate(422.704622 0) scale(0.996264)"/>
     <use xlink:href="#HFBR17-6e" transform="translate(467.53629 0) scale(0.996264)"/>
     <use xlink:href="#HFBR17-74" transform="translate(515.688787 0) scale(0.996264)"/>
    </g>
   </g>
   <g id="legend_2">
    <g id="line2d_22">
     <path d="M 585.029691 30.612925 
L 597.029691 30.612925 
L 609.029691 30.612925 
" style="fill: none; stroke: #aa0000; stroke-linecap: square"/>
    </g>
    <g id="text_25">
     <!-- With diode -->
     <g transform="translate(618.629691 34.812925) scale(0.12 -0.12)">
      <use xlink:href="#HFBR17-57" transform="scale(0.996264)"/>
      <use xlink:href="#HFBR17-69" transform="translate(92.569156 0) scale(0.996264)"/>
      <use xlink:href="#HFBR17-74" transform="translate(111.664115 0) scale(0.996264)"/>
      <use xlink:href="#HFBR17-68" transform="translate(147.778503 0) scale(0.996264)"/>
      <use xlink:href="#HFBR17-64" transform="translate(227.396211 0) scale(0.996264)"/>
      <use xlink:href="#HFBR17-69" transform="translate(275.548708 0) scale(0.996264)"/>
      <use xlink:href="#HFBR17-6f" transform="translate(294.643667 0) scale(0.996264)"/>
      <use xlink:href="#HFBR17-64" transform="translate(345.286885 0) scale(0.996264)"/>
      <use xlink:href="#HFBR17-65" transform="translate(393.439382 0) scale(0.996264)"/>
     </g>
    </g>
   </g>
  </g>
 </g>
 <defs>
  <clipPath id="p0b06f6303d">
   <rect x="51.405205" y="15.612925" width="283.72944" height="145.459342"/>
  </clipPath>
  <clipPath id="p49fe251e3d">
   <rect x="401.530362" y="15.612925" width="283.72944" height="145.459342"/>
  </clipPath>
 </defs>
</svg>
